M48
; DRILL file {KiCad 5.1.9} date Fri Feb 19 00:32:53 2021
; FORMAT={-:-/ absolute / inch / decimal}
; #@! TF.CreationDate,2021-02-19T00:32:53+01:00
; #@! TF.GenerationSoftware,Kicad,Pcbnew,5.1.9
; #@! TF.FileFunction,Plated,1,2,PTH
FMAT,2
INCH
T1C0.0157
T2C0.0295
T3C0.0315
T4C0.0394
T5C0.0433
T6C0.0512
T7C0.0591
%
G90
G05
T1
X2.5098Y-4.5768
X3.58Y-5.16
X3.595Y-4.92
X3.75Y-3.34
X3.878Y-2.6083
X3.9475Y-4.7475
X3.955Y-4.92
X4.31Y-4.92
T2
X3.2Y-3.53
X3.25Y-3.53
X3.3Y-3.53
X3.8875Y-3.53
X3.9375Y-3.53
X3.9875Y-3.53
X4.57Y-3.5275
X4.62Y-3.5275
X4.67Y-3.5275
T3
X3.39Y-2.48
X3.39Y-2.78
X3.49Y-2.48
X3.49Y-2.78
X4.05Y-2.11
X4.05Y-2.41
X4.15Y-2.11
X4.15Y-2.41
T4
X3.0118Y-3.9868
X3.4843Y-3.9868
X3.6988Y-3.9868
X3.75Y-2.025
X3.75Y-2.125
X3.75Y-2.225
X3.75Y-2.325
X3.75Y-2.425
X3.75Y-2.525
X3.75Y-2.625
X3.75Y-2.725
X4.1713Y-3.9868
X4.3818Y-3.9868
X4.65Y-2.025
X4.65Y-2.125
X4.65Y-2.225
X4.65Y-2.325
X4.65Y-2.425
X4.65Y-2.525
X4.65Y-2.625
X4.65Y-2.725
X4.8543Y-3.9868
T5
X3.04Y-3.77
X3.44Y-3.77
X3.73Y-3.77
X4.13Y-3.77
X4.42Y-3.77
X4.82Y-3.77
T6
X3.0118Y-4.4671
X3.25Y-3.91
X3.4862Y-4.4691
X3.6988Y-4.4671
X3.937Y-3.91
X4.1732Y-4.4691
X4.3818Y-4.4671
X4.62Y-3.91
X4.8562Y-4.4691
T7
X2.6367Y-3.2553
X2.68Y-3.06
X2.7233Y-2.8647
X2.7684Y-2.6476
X2.8116Y-2.4524
X2.8584Y-2.2376
X2.9016Y-2.0424
X3.25Y-1.8
X3.45Y-1.8
X4.9884Y-2.0524
X5.0316Y-2.2476
X5.0767Y-2.4547
X5.12Y-2.65
X5.1633Y-2.8453
T0
M30
