%TF.GenerationSoftware,KiCad,Pcbnew,5.1.9*%
%TF.CreationDate,2021-02-19T00:33:09+01:00*%
%TF.ProjectId,klingel,6b6c696e-6765-46c2-9e6b-696361645f70,rev?*%
%TF.SameCoordinates,Original*%
%TF.FileFunction,Copper,L2,Bot*%
%TF.FilePolarity,Positive*%
%FSLAX46Y46*%
G04 Gerber Fmt 4.6, Leading zero omitted, Abs format (unit mm)*
G04 Created by KiCad (PCBNEW 5.1.9) date 2021-02-19 00:33:09*
%MOMM*%
%LPD*%
G01*
G04 APERTURE LIST*
%TA.AperFunction,ComponentPad*%
%ADD10O,2.000000X1.600000*%
%TD*%
%TA.AperFunction,ComponentPad*%
%ADD11R,2.000000X2.000000*%
%TD*%
%TA.AperFunction,ComponentPad*%
%ADD12O,1.600000X1.600000*%
%TD*%
%TA.AperFunction,ComponentPad*%
%ADD13R,1.600000X1.600000*%
%TD*%
%TA.AperFunction,ComponentPad*%
%ADD14R,1.050000X1.500000*%
%TD*%
%TA.AperFunction,ComponentPad*%
%ADD15O,1.050000X1.500000*%
%TD*%
%TA.AperFunction,ComponentPad*%
%ADD16C,3.000000*%
%TD*%
%TA.AperFunction,ComponentPad*%
%ADD17C,2.500000*%
%TD*%
%TA.AperFunction,ComponentPad*%
%ADD18O,2.500000X3.500000*%
%TD*%
%TA.AperFunction,ComponentPad*%
%ADD19O,2.200000X2.200000*%
%TD*%
%TA.AperFunction,ComponentPad*%
%ADD20R,2.200000X2.200000*%
%TD*%
%TA.AperFunction,ViaPad*%
%ADD21C,0.800000*%
%TD*%
%TA.AperFunction,Conductor*%
%ADD22C,0.500000*%
%TD*%
%TA.AperFunction,Conductor*%
%ADD23C,0.254000*%
%TD*%
%TA.AperFunction,Conductor*%
%ADD24C,0.100000*%
%TD*%
G04 APERTURE END LIST*
D10*
%TO.P,U3,16*%
%TO.N,Net-(U3-Pad16)*%
X118110000Y-51435000D03*
%TO.P,U3,15*%
%TO.N,Net-(U3-Pad15)*%
X118110000Y-53975000D03*
%TO.P,U3,14*%
%TO.N,Net-(U3-Pad14)*%
X118110000Y-56515000D03*
%TO.P,U3,13*%
%TO.N,Net-(U3-Pad13)*%
X118110000Y-59055000D03*
%TO.P,U3,12*%
%TO.N,Net-(U3-Pad12)*%
X118110000Y-61595000D03*
%TO.P,U3,11*%
%TO.N,Net-(U3-Pad11)*%
X118110000Y-64135000D03*
%TO.P,U3,10*%
%TO.N,GND*%
X118110000Y-66675000D03*
%TO.P,U3,9*%
%TO.N,+5V*%
X118110000Y-69215000D03*
%TO.P,U3,8*%
%TO.N,Net-(U3-Pad8)*%
X95250000Y-69215000D03*
%TO.P,U3,7*%
%TO.N,led*%
X95250000Y-66675000D03*
%TO.P,U3,6*%
%TO.N,Net-(D5-Pad2)*%
X95250000Y-64135000D03*
%TO.P,U3,5*%
%TO.N,relayA*%
X95250000Y-61595000D03*
%TO.P,U3,4*%
%TO.N,relayB*%
X95250000Y-59055000D03*
%TO.P,U3,3*%
%TO.N,ws28*%
X95250000Y-56515000D03*
D11*
%TO.P,U3,1*%
%TO.N,Net-(U3-Pad1)*%
X95250000Y-51435000D03*
D10*
%TO.P,U3,2*%
%TO.N,Net-(U3-Pad2)*%
X95250000Y-53975000D03*
%TD*%
D12*
%TO.P,U5,4*%
%TO.N,Net-(U3-Pad14)*%
X88646000Y-70612000D03*
%TO.P,U5,2*%
%TO.N,Net-(R6-Pad1)*%
X86106000Y-62992000D03*
%TO.P,U5,3*%
%TO.N,GND*%
X86106000Y-70612000D03*
D13*
%TO.P,U5,1*%
%TO.N,Net-(C4-Pad1)*%
X88646000Y-62992000D03*
%TD*%
%TO.P,J4,2*%
%TO.N,Net-(D4-Pad4)*%
%TA.AperFunction,ComponentPad*%
G36*
G01*
X72384645Y-55507202D02*
X73360941Y-55723642D01*
G75*
G02*
X74310761Y-57214562I-270550J-1220370D01*
G01*
X74310761Y-57214562D01*
G75*
G02*
X72819841Y-58164382I-1220370J270550D01*
G01*
X71843545Y-57947942D01*
G75*
G02*
X70893725Y-56457022I270550J1220370D01*
G01*
X70893725Y-56457022D01*
G75*
G02*
X72384645Y-55507202I1220370J-270550D01*
G01*
G37*
%TD.AperFunction*%
%TO.P,J4,1*%
%TO.N,Net-(D4-Pad3)*%
%TA.AperFunction,ComponentPad*%
G36*
G01*
X73484159Y-50547618D02*
X74460455Y-50764058D01*
G75*
G02*
X75410275Y-52254978I-270550J-1220370D01*
G01*
X75410275Y-52254978D01*
G75*
G02*
X73919355Y-53204798I-1220370J270550D01*
G01*
X72943059Y-52988358D01*
G75*
G02*
X71993239Y-51497438I270550J1220370D01*
G01*
X71993239Y-51497438D01*
G75*
G02*
X73484159Y-50547618I1220370J-270550D01*
G01*
G37*
%TD.AperFunction*%
%TD*%
D12*
%TO.P,U4,4*%
%TO.N,Net-(U3-Pad13)*%
X102870000Y-53594000D03*
%TO.P,U4,2*%
%TO.N,Net-(R5-Pad1)*%
X105410000Y-61214000D03*
%TO.P,U4,3*%
%TO.N,GND*%
X105410000Y-53594000D03*
D13*
%TO.P,U4,1*%
%TO.N,Net-(C3-Pad1)*%
X102870000Y-61214000D03*
%TD*%
D14*
%TO.P,Q3,1*%
%TO.N,Net-(D1-Pad2)*%
X118618000Y-89598500D03*
D15*
%TO.P,Q3,3*%
%TO.N,GND*%
X116078000Y-89598500D03*
%TO.P,Q3,2*%
%TO.N,Net-(Q3-Pad2)*%
X117348000Y-89598500D03*
%TD*%
D14*
%TO.P,Q2,1*%
%TO.N,Net-(D2-Pad2)*%
X83820000Y-89662000D03*
D15*
%TO.P,Q2,3*%
%TO.N,GND*%
X81280000Y-89662000D03*
%TO.P,Q2,2*%
%TO.N,Net-(Q2-Pad2)*%
X82550000Y-89662000D03*
%TD*%
D14*
%TO.P,Q1,1*%
%TO.N,Net-(D6-Pad2)*%
X101282500Y-89662000D03*
D15*
%TO.P,Q1,3*%
%TO.N,GND*%
X98742500Y-89662000D03*
%TO.P,Q1,2*%
%TO.N,Net-(Q1-Pad2)*%
X100012500Y-89662000D03*
%TD*%
D16*
%TO.P,K3,1*%
%TO.N,Net-(J5-Pad2)*%
X100000000Y-99314000D03*
D17*
%TO.P,K3,5*%
%TO.N,Net-(D6-Pad2)*%
X105950000Y-101264000D03*
D16*
%TO.P,K3,4*%
%TO.N,Net-(D4-Pad4)*%
X106000000Y-113514000D03*
%TO.P,K3,3*%
%TO.N,Net-(K3-Pad3)*%
X93950000Y-113464000D03*
D17*
%TO.P,K3,2*%
%TO.N,+5V*%
X93950000Y-101264000D03*
%TD*%
D16*
%TO.P,K2,1*%
%TO.N,Net-(J1-Pad2)*%
X82550000Y-99314000D03*
D17*
%TO.P,K2,5*%
%TO.N,Net-(D2-Pad2)*%
X88500000Y-101264000D03*
D16*
%TO.P,K2,4*%
%TO.N,Net-(J1-Pad3)*%
X88550000Y-113514000D03*
%TO.P,K2,3*%
%TO.N,Net-(J1-Pad1)*%
X76500000Y-113464000D03*
D17*
%TO.P,K2,2*%
%TO.N,+5V*%
X76500000Y-101264000D03*
%TD*%
D16*
%TO.P,K1,1*%
%TO.N,Net-(J3-Pad2)*%
X117348000Y-99314000D03*
D17*
%TO.P,K1,5*%
%TO.N,Net-(D1-Pad2)*%
X123298000Y-101264000D03*
D16*
%TO.P,K1,4*%
%TO.N,Net-(J3-Pad3)*%
X123348000Y-113514000D03*
%TO.P,K1,3*%
%TO.N,Net-(J3-Pad1)*%
X111298000Y-113464000D03*
D17*
%TO.P,K1,2*%
%TO.N,+5V*%
X111298000Y-101264000D03*
%TD*%
D18*
%TO.P,J6,2*%
%TO.N,+5V*%
X82550000Y-45720000D03*
%TO.P,J6,1*%
%TO.N,GND*%
X87630000Y-45720000D03*
%TD*%
%TO.P,J5,2*%
%TO.N,Net-(J5-Pad2)*%
%TA.AperFunction,ComponentPad*%
G36*
G01*
X70098645Y-65921202D02*
X71074941Y-66137642D01*
G75*
G02*
X72024761Y-67628562I-270550J-1220370D01*
G01*
X72024761Y-67628562D01*
G75*
G02*
X70533841Y-68578382I-1220370J270550D01*
G01*
X69557545Y-68361942D01*
G75*
G02*
X68607725Y-66871022I270550J1220370D01*
G01*
X68607725Y-66871022D01*
G75*
G02*
X70098645Y-65921202I1220370J-270550D01*
G01*
G37*
%TD.AperFunction*%
%TO.P,J5,1*%
%TO.N,Net-(D4-Pad3)*%
%TA.AperFunction,ComponentPad*%
G36*
G01*
X71198159Y-60961618D02*
X72174455Y-61178058D01*
G75*
G02*
X73124275Y-62668978I-270550J-1220370D01*
G01*
X73124275Y-62668978D01*
G75*
G02*
X71633355Y-63618798I-1220370J270550D01*
G01*
X70657059Y-63402358D01*
G75*
G02*
X69707239Y-61911438I270550J1220370D01*
G01*
X69707239Y-61911438D01*
G75*
G02*
X71198159Y-60961618I1220370J-270550D01*
G01*
G37*
%TD.AperFunction*%
%TD*%
%TO.P,J3,3*%
%TO.N,Net-(J3-Pad3)*%
%TA.AperFunction,ComponentPad*%
G36*
G01*
X129707185Y-63462566D02*
X128730889Y-63679006D01*
G75*
G02*
X127239969Y-62729186I-270550J1220370D01*
G01*
X127239969Y-62729186D01*
G75*
G02*
X128189789Y-61238266I1220370J270550D01*
G01*
X129166085Y-61021826D01*
G75*
G02*
X130657005Y-61971646I270550J-1220370D01*
G01*
X130657005Y-61971646D01*
G75*
G02*
X129707185Y-63462566I-1220370J-270550D01*
G01*
G37*
%TD.AperFunction*%
%TO.P,J3,2*%
%TO.N,Net-(J3-Pad2)*%
%TA.AperFunction,ComponentPad*%
G36*
G01*
X130806698Y-68422150D02*
X129830402Y-68638590D01*
G75*
G02*
X128339482Y-67688770I-270550J1220370D01*
G01*
X128339482Y-67688770D01*
G75*
G02*
X129289302Y-66197850I1220370J270550D01*
G01*
X130265598Y-65981410D01*
G75*
G02*
X131756518Y-66931230I270550J-1220370D01*
G01*
X131756518Y-66931230D01*
G75*
G02*
X130806698Y-68422150I-1220370J-270550D01*
G01*
G37*
%TD.AperFunction*%
%TO.P,J3,1*%
%TO.N,Net-(J3-Pad1)*%
%TA.AperFunction,ComponentPad*%
G36*
G01*
X131906211Y-73381734D02*
X130929915Y-73598174D01*
G75*
G02*
X129438995Y-72648354I-270550J1220370D01*
G01*
X129438995Y-72648354D01*
G75*
G02*
X130388815Y-71157434I1220370J270550D01*
G01*
X131365111Y-70940994D01*
G75*
G02*
X132856031Y-71890814I270550J-1220370D01*
G01*
X132856031Y-71890814D01*
G75*
G02*
X131906211Y-73381734I-1220370J-270550D01*
G01*
G37*
%TD.AperFunction*%
%TD*%
%TO.P,J2,2*%
%TO.N,Net-(D3-Pad4)*%
%TA.AperFunction,ComponentPad*%
G36*
G01*
X127462941Y-53242358D02*
X126486645Y-53458798D01*
G75*
G02*
X124995725Y-52508978I-270550J1220370D01*
G01*
X124995725Y-52508978D01*
G75*
G02*
X125945545Y-51018058I1220370J270550D01*
G01*
X126921841Y-50801618D01*
G75*
G02*
X128412761Y-51751438I270550J-1220370D01*
G01*
X128412761Y-51751438D01*
G75*
G02*
X127462941Y-53242358I-1220370J-270550D01*
G01*
G37*
%TD.AperFunction*%
%TO.P,J2,1*%
%TO.N,Net-(D3-Pad3)*%
%TA.AperFunction,ComponentPad*%
G36*
G01*
X128562455Y-58201942D02*
X127586159Y-58418382D01*
G75*
G02*
X126095239Y-57468562I-270550J1220370D01*
G01*
X126095239Y-57468562D01*
G75*
G02*
X127045059Y-55977642I1220370J270550D01*
G01*
X128021355Y-55761202D01*
G75*
G02*
X129512275Y-56711022I270550J-1220370D01*
G01*
X129512275Y-56711022D01*
G75*
G02*
X128562455Y-58201942I-1220370J-270550D01*
G01*
G37*
%TD.AperFunction*%
%TD*%
%TO.P,J1,3*%
%TO.N,Net-(J1-Pad3)*%
%TA.AperFunction,ComponentPad*%
G36*
G01*
X66754889Y-81354994D02*
X67731185Y-81571434D01*
G75*
G02*
X68681005Y-83062354I-270550J-1220370D01*
G01*
X68681005Y-83062354D01*
G75*
G02*
X67190085Y-84012174I-1220370J270550D01*
G01*
X66213789Y-83795734D01*
G75*
G02*
X65263969Y-82304814I270550J1220370D01*
G01*
X65263969Y-82304814D01*
G75*
G02*
X66754889Y-81354994I1220370J-270550D01*
G01*
G37*
%TD.AperFunction*%
%TO.P,J1,2*%
%TO.N,Net-(J1-Pad2)*%
%TA.AperFunction,ComponentPad*%
G36*
G01*
X67854402Y-76395410D02*
X68830698Y-76611850D01*
G75*
G02*
X69780518Y-78102770I-270550J-1220370D01*
G01*
X69780518Y-78102770D01*
G75*
G02*
X68289598Y-79052590I-1220370J270550D01*
G01*
X67313302Y-78836150D01*
G75*
G02*
X66363482Y-77345230I270550J1220370D01*
G01*
X66363482Y-77345230D01*
G75*
G02*
X67854402Y-76395410I1220370J-270550D01*
G01*
G37*
%TD.AperFunction*%
%TO.P,J1,1*%
%TO.N,Net-(J1-Pad1)*%
%TA.AperFunction,ComponentPad*%
G36*
G01*
X68953915Y-71435826D02*
X69930211Y-71652266D01*
G75*
G02*
X70880031Y-73143186I-270550J-1220370D01*
G01*
X70880031Y-73143186D01*
G75*
G02*
X69389111Y-74093006I-1220370J270550D01*
G01*
X68412815Y-73876566D01*
G75*
G02*
X67462995Y-72385646I270550J1220370D01*
G01*
X67462995Y-72385646D01*
G75*
G02*
X68953915Y-71435826I1220370J-270550D01*
G01*
G37*
%TD.AperFunction*%
%TD*%
D19*
%TO.P,D6,2*%
%TO.N,Net-(D6-Pad2)*%
X104902000Y-95758000D03*
D20*
%TO.P,D6,1*%
%TO.N,+5V*%
X94742000Y-95758000D03*
%TD*%
D19*
%TO.P,D2,2*%
%TO.N,Net-(D2-Pad2)*%
X87376000Y-95758000D03*
D20*
%TO.P,D2,1*%
%TO.N,+5V*%
X77216000Y-95758000D03*
%TD*%
D19*
%TO.P,D1,2*%
%TO.N,Net-(D1-Pad2)*%
X122428000Y-95758000D03*
D20*
%TO.P,D1,1*%
%TO.N,+5V*%
X112268000Y-95758000D03*
%TD*%
D21*
%TO.N,+5V*%
X91313000Y-124968000D03*
X100457000Y-124968000D03*
X109474000Y-124968000D03*
X100266500Y-120586500D03*
%TO.N,Net-(D5-Pad2)*%
X90932000Y-131064000D03*
X95250000Y-84836000D03*
%TO.N,Net-(D11-Pad2)*%
X98500000Y-66250000D03*
X63750000Y-116250000D03*
%TD*%
D22*
%TO.N,Net-(J1-Pad2)*%
X80304990Y-89956990D02*
X68072000Y-77724000D01*
X80304990Y-97068990D02*
X80304990Y-89956990D01*
X82550000Y-99314000D02*
X80304990Y-97068990D01*
%TO.N,Net-(J1-Pad1)*%
X74799999Y-93073000D02*
X74799999Y-111763999D01*
X66251989Y-84524990D02*
X74799999Y-93073000D01*
X64672218Y-84524990D02*
X66251989Y-84524990D01*
X74799999Y-111763999D02*
X76500000Y-113464000D01*
X64672218Y-77263711D02*
X64672218Y-84524990D01*
X69171513Y-72764416D02*
X64672218Y-77263711D01*
%TO.N,Net-(J5-Pad2)*%
X100000000Y-96933549D02*
X100000000Y-99314000D01*
X70316243Y-67249792D02*
X100000000Y-96933549D01*
%TO.N,Net-(D4-Pad4)*%
X75690490Y-69469492D02*
X87881998Y-81661000D01*
X75690490Y-59924039D02*
X75690490Y-69469492D01*
X72602243Y-56835792D02*
X75690490Y-59924039D01*
X107650001Y-111863999D02*
X106000000Y-113514000D01*
X107650001Y-88858035D02*
X107650001Y-111863999D01*
X100452966Y-81661000D02*
X107650001Y-88858035D01*
X87881998Y-81661000D02*
X100452966Y-81661000D01*
%TO.N,Net-(D5-Pad2)*%
X94551500Y-87074872D02*
X94551500Y-85534500D01*
X101950001Y-94473373D02*
X94551500Y-87074872D01*
X101950001Y-115600999D02*
X101950001Y-94473373D01*
X94551500Y-85534500D02*
X95250000Y-84836000D01*
X90932000Y-131064000D02*
X85217000Y-131064000D01*
X85217000Y-131064000D02*
X81470500Y-127317500D01*
X81470500Y-127317500D02*
X81470500Y-120142000D01*
X81470500Y-120142000D02*
X84328000Y-117284500D01*
X100266500Y-117284500D02*
X101950001Y-115600999D01*
X84328000Y-117284500D02*
X100266500Y-117284500D01*
%TO.N,Net-(J1-Pad3)*%
X75500009Y-91211106D02*
X66972487Y-82683584D01*
X75500009Y-97052011D02*
X75500009Y-91211106D01*
X88550000Y-110102002D02*
X75500009Y-97052011D01*
X88550000Y-113514000D02*
X88550000Y-110102002D01*
%TO.N,Net-(D11-Pad2)*%
X60564691Y-113064689D02*
X61485568Y-113985568D01*
X61485568Y-113985568D02*
X63750000Y-116250000D01*
X60250000Y-112074988D02*
X60368045Y-112457022D01*
X60490781Y-112840983D02*
X60564691Y-113064689D01*
X60250000Y-87926143D02*
X60250000Y-112074988D01*
X98500000Y-66250000D02*
X98500000Y-51874998D01*
X73751999Y-42399999D02*
X68867911Y-47284087D01*
X98500000Y-51874998D02*
X89025001Y-42399999D01*
X65500000Y-72250000D02*
X62697053Y-75052947D01*
X89025001Y-42399999D02*
X73751999Y-42399999D01*
X67413853Y-66086147D02*
X65500000Y-68000000D01*
X62697053Y-75052947D02*
X61263874Y-81502252D01*
X68867911Y-47284087D02*
X68867911Y-58767684D01*
X65500000Y-68000000D02*
X65500000Y-72250000D01*
X61263874Y-81502252D02*
X61263874Y-86912269D01*
X68867911Y-58767684D02*
X67413853Y-60221742D01*
X60368045Y-112457022D02*
X60490781Y-112840983D01*
X67413853Y-60221742D02*
X67413853Y-66086147D01*
X61263874Y-86912269D02*
X60250000Y-87926143D01*
%TD*%
D23*
%TO.N,+5V*%
X139177214Y-84340000D02*
X133967581Y-84340000D01*
X133870617Y-84349550D01*
X133746207Y-84387290D01*
X133688604Y-84418079D01*
X133688562Y-84418100D01*
X133688523Y-84418122D01*
X133631550Y-84448575D01*
X133531052Y-84531052D01*
X133448575Y-84631550D01*
X133387290Y-84746207D01*
X133349550Y-84870617D01*
X133336807Y-85000000D01*
X133349550Y-85129383D01*
X133387290Y-85253793D01*
X133401161Y-85279743D01*
X134277012Y-87452360D01*
X135015292Y-89690486D01*
X135607608Y-91971609D01*
X136051477Y-94286169D01*
X136345058Y-96624561D01*
X136487126Y-98977038D01*
X136477087Y-101333764D01*
X136314984Y-103684936D01*
X136001493Y-106020746D01*
X135537920Y-108331449D01*
X134926194Y-110607440D01*
X134168875Y-112839192D01*
X133269111Y-115017423D01*
X132230661Y-117133047D01*
X131057841Y-119177260D01*
X129755560Y-121141511D01*
X128329217Y-123017651D01*
X126784788Y-124797821D01*
X125128699Y-126474617D01*
X123367839Y-128041057D01*
X121509594Y-129490578D01*
X119561659Y-130817175D01*
X117532185Y-132015298D01*
X115429615Y-133079961D01*
X113262736Y-134006714D01*
X111040551Y-134791709D01*
X108772343Y-135431665D01*
X106467586Y-135923908D01*
X104135840Y-136266398D01*
X101786868Y-136457701D01*
X99430445Y-136497019D01*
X97076399Y-136384192D01*
X94734535Y-136119686D01*
X92414616Y-135704604D01*
X90126344Y-135140684D01*
X87879207Y-134430266D01*
X85682604Y-133576316D01*
X83545689Y-132582395D01*
X81477366Y-131452645D01*
X79486265Y-130191779D01*
X77580671Y-128805043D01*
X75768559Y-127298244D01*
X74057445Y-125677630D01*
X72454477Y-123949969D01*
X70966352Y-122122479D01*
X69599244Y-120202743D01*
X68358895Y-118198826D01*
X67250423Y-116118996D01*
X66278491Y-113971996D01*
X65447136Y-111766751D01*
X64759825Y-109512459D01*
X64219416Y-107218491D01*
X63828171Y-104894443D01*
X63587717Y-102549992D01*
X63499057Y-100194898D01*
X63562560Y-97839024D01*
X63777965Y-95492118D01*
X64144369Y-93164024D01*
X64660246Y-90864433D01*
X65323450Y-88602908D01*
X66132972Y-86384074D01*
X66348359Y-85872938D01*
X73914999Y-93439579D01*
X73915000Y-111720520D01*
X73910718Y-111763999D01*
X73927804Y-111937489D01*
X73978411Y-112104312D01*
X74060589Y-112258058D01*
X74143467Y-112359045D01*
X74143470Y-112359048D01*
X74171183Y-112392816D01*
X74204950Y-112420528D01*
X74499363Y-112714941D01*
X74447047Y-112841244D01*
X74365000Y-113253721D01*
X74365000Y-113674279D01*
X74447047Y-114086756D01*
X74607988Y-114475302D01*
X74841637Y-114824983D01*
X75139017Y-115122363D01*
X75488698Y-115356012D01*
X75877244Y-115516953D01*
X76289721Y-115599000D01*
X76710279Y-115599000D01*
X77122756Y-115516953D01*
X77511302Y-115356012D01*
X77860983Y-115122363D01*
X78158363Y-114824983D01*
X78392012Y-114475302D01*
X78552953Y-114086756D01*
X78635000Y-113674279D01*
X78635000Y-113253721D01*
X78552953Y-112841244D01*
X78392012Y-112452698D01*
X78158363Y-112103017D01*
X77860983Y-111805637D01*
X77511302Y-111571988D01*
X77122756Y-111411047D01*
X76710279Y-111329000D01*
X76289721Y-111329000D01*
X75877244Y-111411047D01*
X75750941Y-111463363D01*
X75684999Y-111397421D01*
X75684999Y-102963974D01*
X75824126Y-103033433D01*
X76182312Y-103131290D01*
X76552706Y-103157389D01*
X76921075Y-103110725D01*
X77273262Y-102993094D01*
X77508086Y-102867577D01*
X77634000Y-102577605D01*
X76500000Y-101443605D01*
X76485858Y-101457748D01*
X76306253Y-101278143D01*
X76320395Y-101264000D01*
X76306253Y-101249858D01*
X76485858Y-101070253D01*
X76500000Y-101084395D01*
X76514143Y-101070253D01*
X76693748Y-101249858D01*
X76679605Y-101264000D01*
X77813605Y-102398000D01*
X78103577Y-102272086D01*
X78269433Y-101939874D01*
X78367290Y-101581688D01*
X78393389Y-101211294D01*
X78391311Y-101194891D01*
X87665001Y-110468582D01*
X87665001Y-111569672D01*
X87538698Y-111621988D01*
X87189017Y-111855637D01*
X86891637Y-112153017D01*
X86657988Y-112502698D01*
X86497047Y-112891244D01*
X86415000Y-113303721D01*
X86415000Y-113724279D01*
X86497047Y-114136756D01*
X86657988Y-114525302D01*
X86891637Y-114874983D01*
X87189017Y-115172363D01*
X87538698Y-115406012D01*
X87927244Y-115566953D01*
X88339721Y-115649000D01*
X88760279Y-115649000D01*
X89172756Y-115566953D01*
X89561302Y-115406012D01*
X89910983Y-115172363D01*
X90208363Y-114874983D01*
X90442012Y-114525302D01*
X90602953Y-114136756D01*
X90685000Y-113724279D01*
X90685000Y-113303721D01*
X90675055Y-113253721D01*
X91815000Y-113253721D01*
X91815000Y-113674279D01*
X91897047Y-114086756D01*
X92057988Y-114475302D01*
X92291637Y-114824983D01*
X92589017Y-115122363D01*
X92938698Y-115356012D01*
X93327244Y-115516953D01*
X93739721Y-115599000D01*
X94160279Y-115599000D01*
X94572756Y-115516953D01*
X94961302Y-115356012D01*
X95310983Y-115122363D01*
X95608363Y-114824983D01*
X95842012Y-114475302D01*
X96002953Y-114086756D01*
X96085000Y-113674279D01*
X96085000Y-113253721D01*
X96002953Y-112841244D01*
X95842012Y-112452698D01*
X95608363Y-112103017D01*
X95310983Y-111805637D01*
X94961302Y-111571988D01*
X94572756Y-111411047D01*
X94160279Y-111329000D01*
X93739721Y-111329000D01*
X93327244Y-111411047D01*
X92938698Y-111571988D01*
X92589017Y-111805637D01*
X92291637Y-112103017D01*
X92057988Y-112452698D01*
X91897047Y-112841244D01*
X91815000Y-113253721D01*
X90675055Y-113253721D01*
X90602953Y-112891244D01*
X90442012Y-112502698D01*
X90208363Y-112153017D01*
X89910983Y-111855637D01*
X89561302Y-111621988D01*
X89435000Y-111569672D01*
X89435000Y-110145467D01*
X89439281Y-110102001D01*
X89435000Y-110058535D01*
X89435000Y-110058525D01*
X89422195Y-109928512D01*
X89371589Y-109761689D01*
X89289411Y-109607943D01*
X89228073Y-109533203D01*
X89206532Y-109506955D01*
X89206530Y-109506953D01*
X89178817Y-109473185D01*
X89145049Y-109445472D01*
X77061413Y-97361837D01*
X77089000Y-97334250D01*
X77089000Y-95885000D01*
X77343000Y-95885000D01*
X77343000Y-97334250D01*
X77501750Y-97493000D01*
X78316000Y-97496072D01*
X78440482Y-97483812D01*
X78560180Y-97447502D01*
X78670494Y-97388537D01*
X78767185Y-97309185D01*
X78846537Y-97212494D01*
X78905502Y-97102180D01*
X78941812Y-96982482D01*
X78954072Y-96858000D01*
X78951000Y-96043750D01*
X78792250Y-95885000D01*
X77343000Y-95885000D01*
X77089000Y-95885000D01*
X77069000Y-95885000D01*
X77069000Y-95631000D01*
X77089000Y-95631000D01*
X77089000Y-94181750D01*
X77343000Y-94181750D01*
X77343000Y-95631000D01*
X78792250Y-95631000D01*
X78951000Y-95472250D01*
X78954072Y-94658000D01*
X78941812Y-94533518D01*
X78905502Y-94413820D01*
X78846537Y-94303506D01*
X78767185Y-94206815D01*
X78670494Y-94127463D01*
X78560180Y-94068498D01*
X78440482Y-94032188D01*
X78316000Y-94019928D01*
X77501750Y-94023000D01*
X77343000Y-94181750D01*
X77089000Y-94181750D01*
X76930250Y-94023000D01*
X76385009Y-94020943D01*
X76385009Y-91254571D01*
X76389290Y-91211105D01*
X76385009Y-91167639D01*
X76385009Y-91167629D01*
X76372204Y-91037616D01*
X76321598Y-90870793D01*
X76239420Y-90717047D01*
X76215219Y-90687558D01*
X76156541Y-90616059D01*
X76156539Y-90616057D01*
X76128826Y-90582289D01*
X76095058Y-90554576D01*
X69158613Y-83618132D01*
X69194344Y-83554654D01*
X69309856Y-83201767D01*
X69354304Y-82833125D01*
X69325979Y-82462895D01*
X69225969Y-82105304D01*
X69058119Y-81774095D01*
X68828879Y-81481997D01*
X68547057Y-81240232D01*
X68223485Y-81058095D01*
X67959026Y-80971528D01*
X66801926Y-80715005D01*
X66525660Y-80681695D01*
X66155430Y-80710020D01*
X65797839Y-80810030D01*
X65557218Y-80931972D01*
X65557218Y-77630289D01*
X65700758Y-77486749D01*
X65690183Y-77574459D01*
X65718508Y-77944689D01*
X65818518Y-78302280D01*
X65986368Y-78633489D01*
X66215608Y-78925587D01*
X66497430Y-79167352D01*
X66821002Y-79349489D01*
X67085461Y-79436056D01*
X68242560Y-79692579D01*
X68518826Y-79725889D01*
X68800743Y-79704321D01*
X79419991Y-90323570D01*
X79419990Y-97025521D01*
X79415709Y-97068990D01*
X79419990Y-97112459D01*
X79419990Y-97112466D01*
X79427111Y-97184767D01*
X79432795Y-97242480D01*
X79441315Y-97270566D01*
X79483401Y-97409302D01*
X79565579Y-97563048D01*
X79676173Y-97697807D01*
X79709946Y-97725524D01*
X80549363Y-98564942D01*
X80497047Y-98691244D01*
X80415000Y-99103721D01*
X80415000Y-99524279D01*
X80497047Y-99936756D01*
X80657988Y-100325302D01*
X80891637Y-100674983D01*
X81189017Y-100972363D01*
X81538698Y-101206012D01*
X81927244Y-101366953D01*
X82339721Y-101449000D01*
X82760279Y-101449000D01*
X83172756Y-101366953D01*
X83561302Y-101206012D01*
X83752370Y-101078344D01*
X86615000Y-101078344D01*
X86615000Y-101449656D01*
X86687439Y-101813834D01*
X86829534Y-102156882D01*
X87035825Y-102465618D01*
X87298382Y-102728175D01*
X87607118Y-102934466D01*
X87950166Y-103076561D01*
X88314344Y-103149000D01*
X88685656Y-103149000D01*
X89049834Y-103076561D01*
X89392882Y-102934466D01*
X89701618Y-102728175D01*
X89852188Y-102577605D01*
X92816000Y-102577605D01*
X92941914Y-102867577D01*
X93274126Y-103033433D01*
X93632312Y-103131290D01*
X94002706Y-103157389D01*
X94371075Y-103110725D01*
X94723262Y-102993094D01*
X94958086Y-102867577D01*
X95084000Y-102577605D01*
X93950000Y-101443605D01*
X92816000Y-102577605D01*
X89852188Y-102577605D01*
X89964175Y-102465618D01*
X90170466Y-102156882D01*
X90312561Y-101813834D01*
X90385000Y-101449656D01*
X90385000Y-101316706D01*
X92056611Y-101316706D01*
X92103275Y-101685075D01*
X92220906Y-102037262D01*
X92346423Y-102272086D01*
X92636395Y-102398000D01*
X93770395Y-101264000D01*
X94129605Y-101264000D01*
X95263605Y-102398000D01*
X95553577Y-102272086D01*
X95719433Y-101939874D01*
X95817290Y-101581688D01*
X95843389Y-101211294D01*
X95796725Y-100842925D01*
X95679094Y-100490738D01*
X95553577Y-100255914D01*
X95263605Y-100130000D01*
X94129605Y-101264000D01*
X93770395Y-101264000D01*
X92636395Y-100130000D01*
X92346423Y-100255914D01*
X92180567Y-100588126D01*
X92082710Y-100946312D01*
X92056611Y-101316706D01*
X90385000Y-101316706D01*
X90385000Y-101078344D01*
X90312561Y-100714166D01*
X90170466Y-100371118D01*
X89964175Y-100062382D01*
X89852188Y-99950395D01*
X92816000Y-99950395D01*
X93950000Y-101084395D01*
X95084000Y-99950395D01*
X94958086Y-99660423D01*
X94625874Y-99494567D01*
X94267688Y-99396710D01*
X93897294Y-99370611D01*
X93528925Y-99417275D01*
X93176738Y-99534906D01*
X92941914Y-99660423D01*
X92816000Y-99950395D01*
X89852188Y-99950395D01*
X89701618Y-99799825D01*
X89392882Y-99593534D01*
X89049834Y-99451439D01*
X88685656Y-99379000D01*
X88314344Y-99379000D01*
X87950166Y-99451439D01*
X87607118Y-99593534D01*
X87298382Y-99799825D01*
X87035825Y-100062382D01*
X86829534Y-100371118D01*
X86687439Y-100714166D01*
X86615000Y-101078344D01*
X83752370Y-101078344D01*
X83910983Y-100972363D01*
X84208363Y-100674983D01*
X84442012Y-100325302D01*
X84602953Y-99936756D01*
X84685000Y-99524279D01*
X84685000Y-99103721D01*
X84602953Y-98691244D01*
X84442012Y-98302698D01*
X84208363Y-97953017D01*
X83910983Y-97655637D01*
X83561302Y-97421988D01*
X83172756Y-97261047D01*
X82760279Y-97179000D01*
X82339721Y-97179000D01*
X81927244Y-97261047D01*
X81800942Y-97313363D01*
X81189990Y-96702412D01*
X81189990Y-95587117D01*
X85641000Y-95587117D01*
X85641000Y-95928883D01*
X85707675Y-96264081D01*
X85838463Y-96579831D01*
X86028337Y-96863998D01*
X86270002Y-97105663D01*
X86554169Y-97295537D01*
X86869919Y-97426325D01*
X87205117Y-97493000D01*
X87546883Y-97493000D01*
X87882081Y-97426325D01*
X88197831Y-97295537D01*
X88481998Y-97105663D01*
X88723663Y-96863998D01*
X88727670Y-96858000D01*
X93003928Y-96858000D01*
X93016188Y-96982482D01*
X93052498Y-97102180D01*
X93111463Y-97212494D01*
X93190815Y-97309185D01*
X93287506Y-97388537D01*
X93397820Y-97447502D01*
X93517518Y-97483812D01*
X93642000Y-97496072D01*
X94456250Y-97493000D01*
X94615000Y-97334250D01*
X94615000Y-95885000D01*
X94869000Y-95885000D01*
X94869000Y-97334250D01*
X95027750Y-97493000D01*
X95842000Y-97496072D01*
X95966482Y-97483812D01*
X96086180Y-97447502D01*
X96196494Y-97388537D01*
X96293185Y-97309185D01*
X96372537Y-97212494D01*
X96431502Y-97102180D01*
X96467812Y-96982482D01*
X96480072Y-96858000D01*
X96477000Y-96043750D01*
X96318250Y-95885000D01*
X94869000Y-95885000D01*
X94615000Y-95885000D01*
X93165750Y-95885000D01*
X93007000Y-96043750D01*
X93003928Y-96858000D01*
X88727670Y-96858000D01*
X88913537Y-96579831D01*
X89044325Y-96264081D01*
X89111000Y-95928883D01*
X89111000Y-95587117D01*
X89044325Y-95251919D01*
X88913537Y-94936169D01*
X88727671Y-94658000D01*
X93003928Y-94658000D01*
X93007000Y-95472250D01*
X93165750Y-95631000D01*
X94615000Y-95631000D01*
X94615000Y-94181750D01*
X94456250Y-94023000D01*
X93642000Y-94019928D01*
X93517518Y-94032188D01*
X93397820Y-94068498D01*
X93287506Y-94127463D01*
X93190815Y-94206815D01*
X93111463Y-94303506D01*
X93052498Y-94413820D01*
X93016188Y-94533518D01*
X93003928Y-94658000D01*
X88727671Y-94658000D01*
X88723663Y-94652002D01*
X88481998Y-94410337D01*
X88197831Y-94220463D01*
X87882081Y-94089675D01*
X87546883Y-94023000D01*
X87205117Y-94023000D01*
X86869919Y-94089675D01*
X86554169Y-94220463D01*
X86270002Y-94410337D01*
X86028337Y-94652002D01*
X85838463Y-94936169D01*
X85707675Y-95251919D01*
X85641000Y-95587117D01*
X81189990Y-95587117D01*
X81189990Y-91043747D01*
X81280000Y-91052612D01*
X81507399Y-91030215D01*
X81726059Y-90963885D01*
X81915000Y-90862894D01*
X82103940Y-90963885D01*
X82322600Y-91030215D01*
X82550000Y-91052612D01*
X82777399Y-91030215D01*
X82986098Y-90966907D01*
X83050820Y-91001502D01*
X83170518Y-91037812D01*
X83295000Y-91050072D01*
X84345000Y-91050072D01*
X84469482Y-91037812D01*
X84589180Y-91001502D01*
X84699494Y-90942537D01*
X84796185Y-90863185D01*
X84875537Y-90766494D01*
X84934502Y-90656180D01*
X84970812Y-90536482D01*
X84983072Y-90412000D01*
X84983072Y-88912000D01*
X84970812Y-88787518D01*
X84934502Y-88667820D01*
X84875537Y-88557506D01*
X84796185Y-88460815D01*
X84699494Y-88381463D01*
X84589180Y-88322498D01*
X84469482Y-88286188D01*
X84345000Y-88273928D01*
X83295000Y-88273928D01*
X83170518Y-88286188D01*
X83050820Y-88322498D01*
X82986098Y-88357093D01*
X82777400Y-88293785D01*
X82550000Y-88271388D01*
X82322601Y-88293785D01*
X82103941Y-88360115D01*
X81915001Y-88461106D01*
X81726060Y-88360115D01*
X81507400Y-88293785D01*
X81280000Y-88271388D01*
X81052601Y-88293785D01*
X80833941Y-88360115D01*
X80632422Y-88467829D01*
X80455789Y-88612788D01*
X80346065Y-88746486D01*
X70258126Y-78658548D01*
X70293857Y-78595070D01*
X70409369Y-78242183D01*
X70453817Y-77873541D01*
X70425492Y-77503311D01*
X70325482Y-77145720D01*
X70157632Y-76814511D01*
X69928392Y-76522413D01*
X69646570Y-76280648D01*
X69322998Y-76098511D01*
X69058539Y-76011944D01*
X67901439Y-75755421D01*
X67625173Y-75722111D01*
X67452160Y-75735348D01*
X68615574Y-74571934D01*
X69342073Y-74732995D01*
X69618339Y-74766305D01*
X69988570Y-74737980D01*
X70346161Y-74637970D01*
X70677370Y-74470120D01*
X70969468Y-74240880D01*
X71211233Y-73959058D01*
X71393370Y-73635486D01*
X71508882Y-73282599D01*
X71553330Y-72913957D01*
X71525005Y-72543727D01*
X71424995Y-72186136D01*
X71257145Y-71854927D01*
X71027905Y-71562829D01*
X70746083Y-71321064D01*
X70422511Y-71138927D01*
X70158052Y-71052360D01*
X69000952Y-70795837D01*
X68724686Y-70762527D01*
X68354456Y-70790852D01*
X67996865Y-70890862D01*
X67665656Y-71058712D01*
X67373558Y-71287952D01*
X67131793Y-71569774D01*
X66949656Y-71893346D01*
X66834144Y-72246233D01*
X66789696Y-72614875D01*
X66818021Y-72985105D01*
X66918031Y-73342696D01*
X67060509Y-73623841D01*
X64077174Y-76607177D01*
X64043401Y-76634894D01*
X63932807Y-76769653D01*
X63850629Y-76923399D01*
X63800023Y-77090222D01*
X63787218Y-77220235D01*
X63787218Y-77220242D01*
X63782937Y-77263711D01*
X63787218Y-77307180D01*
X63787219Y-84374850D01*
X63746207Y-84387291D01*
X63631550Y-84448576D01*
X63531052Y-84531053D01*
X63448575Y-84631551D01*
X63387290Y-84746208D01*
X63375358Y-84785541D01*
X62603595Y-86793772D01*
X62597135Y-86812300D01*
X62590645Y-86830705D01*
X61848875Y-89165714D01*
X61848862Y-89165752D01*
X61844703Y-89180429D01*
X61837556Y-89205644D01*
X61837549Y-89205674D01*
X61243864Y-91582632D01*
X61243856Y-91582662D01*
X61235078Y-91623185D01*
X61135000Y-92167202D01*
X61135000Y-88292721D01*
X61858923Y-87568799D01*
X61892691Y-87541086D01*
X61920613Y-87507064D01*
X62003284Y-87406329D01*
X62003285Y-87406328D01*
X62085463Y-87252582D01*
X62136069Y-87085759D01*
X62148874Y-86955746D01*
X62148874Y-86955736D01*
X62153155Y-86912270D01*
X62148874Y-86868804D01*
X62148874Y-81599400D01*
X63505072Y-75496506D01*
X66095049Y-72906530D01*
X66128817Y-72878817D01*
X66203541Y-72787767D01*
X66239411Y-72744059D01*
X66321589Y-72590314D01*
X66372195Y-72423490D01*
X66372625Y-72419125D01*
X66385000Y-72293477D01*
X66385000Y-72293469D01*
X66389281Y-72250000D01*
X66385000Y-72206531D01*
X66385000Y-68366578D01*
X67973240Y-66778339D01*
X67934426Y-67100251D01*
X67962751Y-67470481D01*
X68062761Y-67828072D01*
X68230611Y-68159281D01*
X68459851Y-68451379D01*
X68741673Y-68693144D01*
X69065245Y-68875281D01*
X69329704Y-68961848D01*
X70486803Y-69218371D01*
X70763069Y-69251681D01*
X71044986Y-69230113D01*
X95834827Y-94019955D01*
X95027750Y-94023000D01*
X94869000Y-94181750D01*
X94869000Y-95631000D01*
X96318250Y-95631000D01*
X96477000Y-95472250D01*
X96480045Y-94665173D01*
X99115000Y-97300128D01*
X99115000Y-97369672D01*
X98988698Y-97421988D01*
X98639017Y-97655637D01*
X98341637Y-97953017D01*
X98107988Y-98302698D01*
X97947047Y-98691244D01*
X97865000Y-99103721D01*
X97865000Y-99524279D01*
X97947047Y-99936756D01*
X98107988Y-100325302D01*
X98341637Y-100674983D01*
X98639017Y-100972363D01*
X98988698Y-101206012D01*
X99377244Y-101366953D01*
X99789721Y-101449000D01*
X100210279Y-101449000D01*
X100622756Y-101366953D01*
X101011302Y-101206012D01*
X101065002Y-101170131D01*
X101065001Y-115234420D01*
X99899922Y-116399500D01*
X84371465Y-116399500D01*
X84327999Y-116395219D01*
X84284533Y-116399500D01*
X84284523Y-116399500D01*
X84154510Y-116412305D01*
X83987687Y-116462911D01*
X83833941Y-116545089D01*
X83831397Y-116547177D01*
X83732953Y-116627968D01*
X83732951Y-116627970D01*
X83699183Y-116655683D01*
X83671470Y-116689451D01*
X80875451Y-119485471D01*
X80841684Y-119513183D01*
X80813971Y-119546951D01*
X80813968Y-119546954D01*
X80731090Y-119647941D01*
X80648912Y-119801687D01*
X80598305Y-119968510D01*
X80581219Y-120142000D01*
X80585501Y-120185479D01*
X80585500Y-127274031D01*
X80581219Y-127317500D01*
X80585500Y-127360969D01*
X80585500Y-127360976D01*
X80592041Y-127427387D01*
X80598305Y-127490990D01*
X80602959Y-127506330D01*
X80648911Y-127657812D01*
X80731089Y-127811558D01*
X80841683Y-127946317D01*
X80875456Y-127974034D01*
X84560470Y-131659049D01*
X84588183Y-131692817D01*
X84621951Y-131720530D01*
X84621953Y-131720532D01*
X84644929Y-131739388D01*
X84722941Y-131803411D01*
X84876687Y-131885589D01*
X85043510Y-131936195D01*
X85173523Y-131949000D01*
X85173533Y-131949000D01*
X85216999Y-131953281D01*
X85260465Y-131949000D01*
X90393546Y-131949000D01*
X90441744Y-131981205D01*
X90630102Y-132059226D01*
X90830061Y-132099000D01*
X91033939Y-132099000D01*
X91233898Y-132059226D01*
X91422256Y-131981205D01*
X91591774Y-131867937D01*
X91735937Y-131723774D01*
X91849205Y-131554256D01*
X91927226Y-131365898D01*
X91967000Y-131165939D01*
X91967000Y-130962061D01*
X91927226Y-130762102D01*
X91849205Y-130573744D01*
X91735937Y-130404226D01*
X91591774Y-130260063D01*
X91422256Y-130146795D01*
X91233898Y-130068774D01*
X91033939Y-130029000D01*
X90830061Y-130029000D01*
X90630102Y-130068774D01*
X90441744Y-130146795D01*
X90393546Y-130179000D01*
X85583579Y-130179000D01*
X82355500Y-126950922D01*
X82355500Y-120508578D01*
X84694579Y-118169500D01*
X100223031Y-118169500D01*
X100266500Y-118173781D01*
X100309969Y-118169500D01*
X100309977Y-118169500D01*
X100439990Y-118156695D01*
X100606813Y-118106089D01*
X100760559Y-118023911D01*
X100895317Y-117913317D01*
X100923034Y-117879544D01*
X102545051Y-116257528D01*
X102578818Y-116229816D01*
X102610970Y-116190640D01*
X102689411Y-116095059D01*
X102689412Y-116095058D01*
X102771590Y-115941312D01*
X102818006Y-115788303D01*
X102822196Y-115774490D01*
X102825071Y-115745301D01*
X102835001Y-115644476D01*
X102835001Y-115644468D01*
X102839282Y-115600999D01*
X102835001Y-115557530D01*
X102835001Y-95587117D01*
X103167000Y-95587117D01*
X103167000Y-95928883D01*
X103233675Y-96264081D01*
X103364463Y-96579831D01*
X103554337Y-96863998D01*
X103796002Y-97105663D01*
X104080169Y-97295537D01*
X104395919Y-97426325D01*
X104731117Y-97493000D01*
X105072883Y-97493000D01*
X105408081Y-97426325D01*
X105723831Y-97295537D01*
X106007998Y-97105663D01*
X106249663Y-96863998D01*
X106439537Y-96579831D01*
X106570325Y-96264081D01*
X106637000Y-95928883D01*
X106637000Y-95587117D01*
X106570325Y-95251919D01*
X106439537Y-94936169D01*
X106249663Y-94652002D01*
X106007998Y-94410337D01*
X105723831Y-94220463D01*
X105408081Y-94089675D01*
X105072883Y-94023000D01*
X104731117Y-94023000D01*
X104395919Y-94089675D01*
X104080169Y-94220463D01*
X103796002Y-94410337D01*
X103554337Y-94652002D01*
X103364463Y-94936169D01*
X103233675Y-95251919D01*
X103167000Y-95587117D01*
X102835001Y-95587117D01*
X102835001Y-94516838D01*
X102839282Y-94473372D01*
X102835001Y-94429906D01*
X102835001Y-94429896D01*
X102822196Y-94299883D01*
X102771590Y-94133060D01*
X102689412Y-93979314D01*
X102628839Y-93905506D01*
X102606533Y-93878326D01*
X102606531Y-93878324D01*
X102578818Y-93844556D01*
X102545050Y-93816843D01*
X99746805Y-91018598D01*
X99785100Y-91030215D01*
X100012500Y-91052612D01*
X100239899Y-91030215D01*
X100448598Y-90966907D01*
X100513320Y-91001502D01*
X100633018Y-91037812D01*
X100757500Y-91050072D01*
X101807500Y-91050072D01*
X101931982Y-91037812D01*
X102051680Y-91001502D01*
X102161994Y-90942537D01*
X102258685Y-90863185D01*
X102338037Y-90766494D01*
X102397002Y-90656180D01*
X102433312Y-90536482D01*
X102445572Y-90412000D01*
X102445572Y-88912000D01*
X102433312Y-88787518D01*
X102397002Y-88667820D01*
X102338037Y-88557506D01*
X102258685Y-88460815D01*
X102161994Y-88381463D01*
X102051680Y-88322498D01*
X101931982Y-88286188D01*
X101807500Y-88273928D01*
X100757500Y-88273928D01*
X100633018Y-88286188D01*
X100513320Y-88322498D01*
X100448598Y-88357093D01*
X100239900Y-88293785D01*
X100012500Y-88271388D01*
X99785101Y-88293785D01*
X99566441Y-88360115D01*
X99377501Y-88461106D01*
X99188560Y-88360115D01*
X98969900Y-88293785D01*
X98742500Y-88271388D01*
X98515101Y-88293785D01*
X98296441Y-88360115D01*
X98094922Y-88467829D01*
X97918289Y-88612788D01*
X97773330Y-88789421D01*
X97684261Y-88956055D01*
X95436500Y-86708294D01*
X95436500Y-85901078D01*
X95495043Y-85842535D01*
X95551898Y-85831226D01*
X95740256Y-85753205D01*
X95909774Y-85639937D01*
X96053937Y-85495774D01*
X96167205Y-85326256D01*
X96245226Y-85137898D01*
X96285000Y-84937939D01*
X96285000Y-84734061D01*
X96245226Y-84534102D01*
X96167205Y-84345744D01*
X96053937Y-84176226D01*
X95909774Y-84032063D01*
X95740256Y-83918795D01*
X95551898Y-83840774D01*
X95351939Y-83801000D01*
X95148061Y-83801000D01*
X94948102Y-83840774D01*
X94759744Y-83918795D01*
X94590226Y-84032063D01*
X94446063Y-84176226D01*
X94332795Y-84345744D01*
X94254774Y-84534102D01*
X94243465Y-84590957D01*
X93956451Y-84877971D01*
X93922684Y-84905683D01*
X93894971Y-84939451D01*
X93894968Y-84939454D01*
X93812090Y-85040441D01*
X93729912Y-85194187D01*
X93679305Y-85361010D01*
X93662219Y-85534500D01*
X93666501Y-85577979D01*
X93666500Y-87031402D01*
X93662219Y-87074872D01*
X93666500Y-87118341D01*
X93666500Y-87118348D01*
X93674651Y-87201107D01*
X93679305Y-87248362D01*
X93693379Y-87294755D01*
X93729911Y-87415184D01*
X93812089Y-87568930D01*
X93922683Y-87703689D01*
X93956456Y-87731406D01*
X101065002Y-94839953D01*
X101065002Y-97457869D01*
X101011302Y-97421988D01*
X100885000Y-97369672D01*
X100885000Y-96977018D01*
X100889281Y-96933549D01*
X100885000Y-96890080D01*
X100885000Y-96890072D01*
X100872195Y-96760059D01*
X100821589Y-96593236D01*
X100739411Y-96439490D01*
X100687975Y-96376815D01*
X100656532Y-96338502D01*
X100656530Y-96338500D01*
X100628817Y-96304732D01*
X100595051Y-96277021D01*
X72502369Y-68184340D01*
X72538100Y-68120862D01*
X72653612Y-67767975D01*
X72698060Y-67399333D01*
X72669735Y-67029103D01*
X72569725Y-66671512D01*
X72401875Y-66340303D01*
X72172635Y-66048205D01*
X71890813Y-65806440D01*
X71567241Y-65624303D01*
X71302782Y-65537736D01*
X70145682Y-65281213D01*
X69869416Y-65247903D01*
X69499186Y-65276228D01*
X69141595Y-65376238D01*
X68810386Y-65544088D01*
X68518288Y-65773328D01*
X68298853Y-66029120D01*
X68298853Y-62140667D01*
X69033940Y-62140667D01*
X69062265Y-62510897D01*
X69162275Y-62868488D01*
X69330125Y-63199697D01*
X69559365Y-63491795D01*
X69841187Y-63733560D01*
X70164759Y-63915697D01*
X70429218Y-64002264D01*
X71586317Y-64258787D01*
X71862583Y-64292097D01*
X72232814Y-64263772D01*
X72590405Y-64163762D01*
X72921614Y-63995912D01*
X73213712Y-63766672D01*
X73455477Y-63484850D01*
X73637614Y-63161278D01*
X73753126Y-62808391D01*
X73797574Y-62439749D01*
X73769249Y-62069519D01*
X73669239Y-61711928D01*
X73501389Y-61380719D01*
X73272149Y-61088621D01*
X72990327Y-60846856D01*
X72666755Y-60664719D01*
X72402296Y-60578152D01*
X71245196Y-60321629D01*
X70968930Y-60288319D01*
X70598700Y-60316644D01*
X70241109Y-60416654D01*
X69909900Y-60584504D01*
X69617802Y-60813744D01*
X69376037Y-61095566D01*
X69193900Y-61419138D01*
X69078388Y-61772025D01*
X69033940Y-62140667D01*
X68298853Y-62140667D01*
X68298853Y-60588320D01*
X69462960Y-59424214D01*
X69496728Y-59396501D01*
X69535263Y-59349547D01*
X69607322Y-59261743D01*
X69689500Y-59107998D01*
X69740106Y-58941174D01*
X69752911Y-58811161D01*
X69752911Y-58811153D01*
X69757192Y-58767684D01*
X69752911Y-58724215D01*
X69752911Y-56686251D01*
X70220426Y-56686251D01*
X70248751Y-57056481D01*
X70348761Y-57414072D01*
X70516611Y-57745281D01*
X70745851Y-58037379D01*
X71027673Y-58279144D01*
X71351245Y-58461281D01*
X71615704Y-58547848D01*
X72772803Y-58804371D01*
X73049069Y-58837681D01*
X73330985Y-58816113D01*
X74805490Y-60290618D01*
X74805491Y-69426013D01*
X74801209Y-69469492D01*
X74818295Y-69642982D01*
X74868902Y-69809805D01*
X74951080Y-69963551D01*
X75033958Y-70064538D01*
X75033961Y-70064541D01*
X75061674Y-70098309D01*
X75095442Y-70126022D01*
X87225468Y-82256049D01*
X87253181Y-82289817D01*
X87286949Y-82317530D01*
X87286951Y-82317532D01*
X87318314Y-82343271D01*
X87387939Y-82400411D01*
X87541685Y-82482589D01*
X87657901Y-82517843D01*
X87708507Y-82533195D01*
X87717118Y-82534043D01*
X87838521Y-82546000D01*
X87838529Y-82546000D01*
X87881998Y-82550281D01*
X87925467Y-82546000D01*
X100086388Y-82546000D01*
X106765001Y-89224614D01*
X106765001Y-99561275D01*
X106499834Y-99451439D01*
X106135656Y-99379000D01*
X105764344Y-99379000D01*
X105400166Y-99451439D01*
X105057118Y-99593534D01*
X104748382Y-99799825D01*
X104485825Y-100062382D01*
X104279534Y-100371118D01*
X104137439Y-100714166D01*
X104065000Y-101078344D01*
X104065000Y-101449656D01*
X104137439Y-101813834D01*
X104279534Y-102156882D01*
X104485825Y-102465618D01*
X104748382Y-102728175D01*
X105057118Y-102934466D01*
X105400166Y-103076561D01*
X105764344Y-103149000D01*
X106135656Y-103149000D01*
X106499834Y-103076561D01*
X106765002Y-102966725D01*
X106765002Y-111497419D01*
X106749058Y-111513363D01*
X106622756Y-111461047D01*
X106210279Y-111379000D01*
X105789721Y-111379000D01*
X105377244Y-111461047D01*
X104988698Y-111621988D01*
X104639017Y-111855637D01*
X104341637Y-112153017D01*
X104107988Y-112502698D01*
X103947047Y-112891244D01*
X103865000Y-113303721D01*
X103865000Y-113724279D01*
X103947047Y-114136756D01*
X104107988Y-114525302D01*
X104341637Y-114874983D01*
X104639017Y-115172363D01*
X104988698Y-115406012D01*
X105377244Y-115566953D01*
X105789721Y-115649000D01*
X106210279Y-115649000D01*
X106622756Y-115566953D01*
X107011302Y-115406012D01*
X107360983Y-115172363D01*
X107658363Y-114874983D01*
X107892012Y-114525302D01*
X108052953Y-114136756D01*
X108135000Y-113724279D01*
X108135000Y-113303721D01*
X108125055Y-113253721D01*
X109163000Y-113253721D01*
X109163000Y-113674279D01*
X109245047Y-114086756D01*
X109405988Y-114475302D01*
X109639637Y-114824983D01*
X109937017Y-115122363D01*
X110286698Y-115356012D01*
X110675244Y-115516953D01*
X111087721Y-115599000D01*
X111508279Y-115599000D01*
X111920756Y-115516953D01*
X112309302Y-115356012D01*
X112658983Y-115122363D01*
X112956363Y-114824983D01*
X113190012Y-114475302D01*
X113350953Y-114086756D01*
X113433000Y-113674279D01*
X113433000Y-113303721D01*
X121213000Y-113303721D01*
X121213000Y-113724279D01*
X121295047Y-114136756D01*
X121455988Y-114525302D01*
X121689637Y-114874983D01*
X121987017Y-115172363D01*
X122336698Y-115406012D01*
X122725244Y-115566953D01*
X123137721Y-115649000D01*
X123558279Y-115649000D01*
X123970756Y-115566953D01*
X124359302Y-115406012D01*
X124708983Y-115172363D01*
X125006363Y-114874983D01*
X125240012Y-114525302D01*
X125400953Y-114136756D01*
X125483000Y-113724279D01*
X125483000Y-113303721D01*
X125400953Y-112891244D01*
X125240012Y-112502698D01*
X125006363Y-112153017D01*
X124708983Y-111855637D01*
X124359302Y-111621988D01*
X123970756Y-111461047D01*
X123558279Y-111379000D01*
X123137721Y-111379000D01*
X122725244Y-111461047D01*
X122336698Y-111621988D01*
X121987017Y-111855637D01*
X121689637Y-112153017D01*
X121455988Y-112502698D01*
X121295047Y-112891244D01*
X121213000Y-113303721D01*
X113433000Y-113303721D01*
X113433000Y-113253721D01*
X113350953Y-112841244D01*
X113190012Y-112452698D01*
X112956363Y-112103017D01*
X112658983Y-111805637D01*
X112309302Y-111571988D01*
X111920756Y-111411047D01*
X111508279Y-111329000D01*
X111087721Y-111329000D01*
X110675244Y-111411047D01*
X110286698Y-111571988D01*
X109937017Y-111805637D01*
X109639637Y-112103017D01*
X109405988Y-112452698D01*
X109245047Y-112841244D01*
X109163000Y-113253721D01*
X108125055Y-113253721D01*
X108052953Y-112891244D01*
X108000637Y-112764942D01*
X108245050Y-112520529D01*
X108278818Y-112492816D01*
X108306722Y-112458816D01*
X108389412Y-112358058D01*
X108406021Y-112326984D01*
X108471590Y-112204312D01*
X108522196Y-112037489D01*
X108535001Y-111907476D01*
X108535001Y-111907468D01*
X108539282Y-111863999D01*
X108535001Y-111820530D01*
X108535001Y-102577605D01*
X110164000Y-102577605D01*
X110289914Y-102867577D01*
X110622126Y-103033433D01*
X110980312Y-103131290D01*
X111350706Y-103157389D01*
X111719075Y-103110725D01*
X112071262Y-102993094D01*
X112306086Y-102867577D01*
X112432000Y-102577605D01*
X111298000Y-101443605D01*
X110164000Y-102577605D01*
X108535001Y-102577605D01*
X108535001Y-101316706D01*
X109404611Y-101316706D01*
X109451275Y-101685075D01*
X109568906Y-102037262D01*
X109694423Y-102272086D01*
X109984395Y-102398000D01*
X111118395Y-101264000D01*
X111477605Y-101264000D01*
X112611605Y-102398000D01*
X112901577Y-102272086D01*
X113067433Y-101939874D01*
X113165290Y-101581688D01*
X113191389Y-101211294D01*
X113144725Y-100842925D01*
X113027094Y-100490738D01*
X112901577Y-100255914D01*
X112611605Y-100130000D01*
X111477605Y-101264000D01*
X111118395Y-101264000D01*
X109984395Y-100130000D01*
X109694423Y-100255914D01*
X109528567Y-100588126D01*
X109430710Y-100946312D01*
X109404611Y-101316706D01*
X108535001Y-101316706D01*
X108535001Y-99950395D01*
X110164000Y-99950395D01*
X111298000Y-101084395D01*
X112432000Y-99950395D01*
X112306086Y-99660423D01*
X111973874Y-99494567D01*
X111615688Y-99396710D01*
X111245294Y-99370611D01*
X110876925Y-99417275D01*
X110524738Y-99534906D01*
X110289914Y-99660423D01*
X110164000Y-99950395D01*
X108535001Y-99950395D01*
X108535001Y-99103721D01*
X115213000Y-99103721D01*
X115213000Y-99524279D01*
X115295047Y-99936756D01*
X115455988Y-100325302D01*
X115689637Y-100674983D01*
X115987017Y-100972363D01*
X116336698Y-101206012D01*
X116725244Y-101366953D01*
X117137721Y-101449000D01*
X117558279Y-101449000D01*
X117970756Y-101366953D01*
X118359302Y-101206012D01*
X118550370Y-101078344D01*
X121413000Y-101078344D01*
X121413000Y-101449656D01*
X121485439Y-101813834D01*
X121627534Y-102156882D01*
X121833825Y-102465618D01*
X122096382Y-102728175D01*
X122405118Y-102934466D01*
X122748166Y-103076561D01*
X123112344Y-103149000D01*
X123483656Y-103149000D01*
X123847834Y-103076561D01*
X124190882Y-102934466D01*
X124499618Y-102728175D01*
X124762175Y-102465618D01*
X124968466Y-102156882D01*
X125110561Y-101813834D01*
X125183000Y-101449656D01*
X125183000Y-101078344D01*
X125110561Y-100714166D01*
X124968466Y-100371118D01*
X124762175Y-100062382D01*
X124499618Y-99799825D01*
X124190882Y-99593534D01*
X123847834Y-99451439D01*
X123483656Y-99379000D01*
X123112344Y-99379000D01*
X122748166Y-99451439D01*
X122405118Y-99593534D01*
X122096382Y-99799825D01*
X121833825Y-100062382D01*
X121627534Y-100371118D01*
X121485439Y-100714166D01*
X121413000Y-101078344D01*
X118550370Y-101078344D01*
X118708983Y-100972363D01*
X119006363Y-100674983D01*
X119240012Y-100325302D01*
X119400953Y-99936756D01*
X119483000Y-99524279D01*
X119483000Y-99103721D01*
X119400953Y-98691244D01*
X119240012Y-98302698D01*
X119006363Y-97953017D01*
X118708983Y-97655637D01*
X118359302Y-97421988D01*
X117970756Y-97261047D01*
X117558279Y-97179000D01*
X117137721Y-97179000D01*
X116725244Y-97261047D01*
X116336698Y-97421988D01*
X115987017Y-97655637D01*
X115689637Y-97953017D01*
X115455988Y-98302698D01*
X115295047Y-98691244D01*
X115213000Y-99103721D01*
X108535001Y-99103721D01*
X108535001Y-96858000D01*
X110529928Y-96858000D01*
X110542188Y-96982482D01*
X110578498Y-97102180D01*
X110637463Y-97212494D01*
X110716815Y-97309185D01*
X110813506Y-97388537D01*
X110923820Y-97447502D01*
X111043518Y-97483812D01*
X111168000Y-97496072D01*
X111982250Y-97493000D01*
X112141000Y-97334250D01*
X112141000Y-95885000D01*
X112395000Y-95885000D01*
X112395000Y-97334250D01*
X112553750Y-97493000D01*
X113368000Y-97496072D01*
X113492482Y-97483812D01*
X113612180Y-97447502D01*
X113722494Y-97388537D01*
X113819185Y-97309185D01*
X113898537Y-97212494D01*
X113957502Y-97102180D01*
X113993812Y-96982482D01*
X114006072Y-96858000D01*
X114003000Y-96043750D01*
X113844250Y-95885000D01*
X112395000Y-95885000D01*
X112141000Y-95885000D01*
X110691750Y-95885000D01*
X110533000Y-96043750D01*
X110529928Y-96858000D01*
X108535001Y-96858000D01*
X108535001Y-94658000D01*
X110529928Y-94658000D01*
X110533000Y-95472250D01*
X110691750Y-95631000D01*
X112141000Y-95631000D01*
X112141000Y-94181750D01*
X112395000Y-94181750D01*
X112395000Y-95631000D01*
X113844250Y-95631000D01*
X113888133Y-95587117D01*
X120693000Y-95587117D01*
X120693000Y-95928883D01*
X120759675Y-96264081D01*
X120890463Y-96579831D01*
X121080337Y-96863998D01*
X121322002Y-97105663D01*
X121606169Y-97295537D01*
X121921919Y-97426325D01*
X122257117Y-97493000D01*
X122598883Y-97493000D01*
X122934081Y-97426325D01*
X123249831Y-97295537D01*
X123533998Y-97105663D01*
X123775663Y-96863998D01*
X123965537Y-96579831D01*
X124096325Y-96264081D01*
X124163000Y-95928883D01*
X124163000Y-95587117D01*
X124096325Y-95251919D01*
X123965537Y-94936169D01*
X123775663Y-94652002D01*
X123533998Y-94410337D01*
X123249831Y-94220463D01*
X122934081Y-94089675D01*
X122598883Y-94023000D01*
X122257117Y-94023000D01*
X121921919Y-94089675D01*
X121606169Y-94220463D01*
X121322002Y-94410337D01*
X121080337Y-94652002D01*
X120890463Y-94936169D01*
X120759675Y-95251919D01*
X120693000Y-95587117D01*
X113888133Y-95587117D01*
X114003000Y-95472250D01*
X114006072Y-94658000D01*
X113993812Y-94533518D01*
X113957502Y-94413820D01*
X113898537Y-94303506D01*
X113819185Y-94206815D01*
X113722494Y-94127463D01*
X113612180Y-94068498D01*
X113492482Y-94032188D01*
X113368000Y-94019928D01*
X112553750Y-94023000D01*
X112395000Y-94181750D01*
X112141000Y-94181750D01*
X111982250Y-94023000D01*
X111168000Y-94019928D01*
X111043518Y-94032188D01*
X110923820Y-94068498D01*
X110813506Y-94127463D01*
X110716815Y-94206815D01*
X110637463Y-94303506D01*
X110578498Y-94413820D01*
X110542188Y-94533518D01*
X110529928Y-94658000D01*
X108535001Y-94658000D01*
X108535001Y-89316521D01*
X114918000Y-89316521D01*
X114918000Y-89880478D01*
X114934785Y-90050899D01*
X115001115Y-90269559D01*
X115108829Y-90471078D01*
X115253788Y-90647712D01*
X115430421Y-90792671D01*
X115631940Y-90900385D01*
X115850600Y-90966715D01*
X116078000Y-90989112D01*
X116305399Y-90966715D01*
X116524059Y-90900385D01*
X116713000Y-90799394D01*
X116901940Y-90900385D01*
X117120600Y-90966715D01*
X117348000Y-90989112D01*
X117575399Y-90966715D01*
X117784098Y-90903407D01*
X117848820Y-90938002D01*
X117968518Y-90974312D01*
X118093000Y-90986572D01*
X119143000Y-90986572D01*
X119267482Y-90974312D01*
X119387180Y-90938002D01*
X119497494Y-90879037D01*
X119594185Y-90799685D01*
X119673537Y-90702994D01*
X119732502Y-90592680D01*
X119768812Y-90472982D01*
X119781072Y-90348500D01*
X119781072Y-88848500D01*
X119768812Y-88724018D01*
X119732502Y-88604320D01*
X119673537Y-88494006D01*
X119594185Y-88397315D01*
X119497494Y-88317963D01*
X119387180Y-88258998D01*
X119267482Y-88222688D01*
X119143000Y-88210428D01*
X118093000Y-88210428D01*
X117968518Y-88222688D01*
X117848820Y-88258998D01*
X117784098Y-88293593D01*
X117575400Y-88230285D01*
X117348000Y-88207888D01*
X117120601Y-88230285D01*
X116901941Y-88296615D01*
X116713001Y-88397606D01*
X116524060Y-88296615D01*
X116305400Y-88230285D01*
X116078000Y-88207888D01*
X115850601Y-88230285D01*
X115631941Y-88296615D01*
X115430422Y-88404329D01*
X115253789Y-88549288D01*
X115108830Y-88725921D01*
X115001115Y-88927440D01*
X114934785Y-89146100D01*
X114918000Y-89316521D01*
X108535001Y-89316521D01*
X108535001Y-88901504D01*
X108539282Y-88858035D01*
X108535001Y-88814566D01*
X108535001Y-88814558D01*
X108522196Y-88684545D01*
X108511325Y-88648708D01*
X108471590Y-88517721D01*
X108389412Y-88363976D01*
X108306533Y-88262988D01*
X108306531Y-88262986D01*
X108278818Y-88229218D01*
X108245052Y-88201507D01*
X101109500Y-81065956D01*
X101081783Y-81032183D01*
X100947025Y-80921589D01*
X100793279Y-80839411D01*
X100626456Y-80788805D01*
X100496443Y-80776000D01*
X100496435Y-80776000D01*
X100452966Y-80771719D01*
X100409497Y-80776000D01*
X88248577Y-80776000D01*
X79891702Y-72419125D01*
X128765696Y-72419125D01*
X128810144Y-72787767D01*
X128925656Y-73140654D01*
X129107793Y-73464226D01*
X129349558Y-73746048D01*
X129641656Y-73975288D01*
X129972865Y-74143138D01*
X130330456Y-74243148D01*
X130700686Y-74271473D01*
X130976952Y-74238163D01*
X132134052Y-73981640D01*
X132398511Y-73895073D01*
X132722083Y-73712936D01*
X133003905Y-73471171D01*
X133233145Y-73179073D01*
X133400995Y-72847864D01*
X133501005Y-72490273D01*
X133529330Y-72120043D01*
X133484882Y-71751401D01*
X133369370Y-71398514D01*
X133187233Y-71074942D01*
X132945468Y-70793120D01*
X132653370Y-70563880D01*
X132322161Y-70396030D01*
X131964570Y-70296020D01*
X131594339Y-70267695D01*
X131318073Y-70301005D01*
X130160974Y-70557528D01*
X129896515Y-70644095D01*
X129572943Y-70826232D01*
X129291121Y-71067997D01*
X129061881Y-71360095D01*
X128894031Y-71691304D01*
X128794021Y-72048895D01*
X128765696Y-72419125D01*
X79891702Y-72419125D01*
X77943242Y-70470665D01*
X84671000Y-70470665D01*
X84671000Y-70753335D01*
X84726147Y-71030574D01*
X84834320Y-71291727D01*
X84991363Y-71526759D01*
X85191241Y-71726637D01*
X85426273Y-71883680D01*
X85687426Y-71991853D01*
X85964665Y-72047000D01*
X86247335Y-72047000D01*
X86524574Y-71991853D01*
X86785727Y-71883680D01*
X87020759Y-71726637D01*
X87220637Y-71526759D01*
X87376000Y-71294241D01*
X87531363Y-71526759D01*
X87731241Y-71726637D01*
X87966273Y-71883680D01*
X88227426Y-71991853D01*
X88504665Y-72047000D01*
X88787335Y-72047000D01*
X89064574Y-71991853D01*
X89325727Y-71883680D01*
X89560759Y-71726637D01*
X89760637Y-71526759D01*
X89917680Y-71291727D01*
X90025853Y-71030574D01*
X90081000Y-70753335D01*
X90081000Y-70470665D01*
X90025853Y-70193426D01*
X89917680Y-69932273D01*
X89760637Y-69697241D01*
X89560759Y-69497363D01*
X89325727Y-69340320D01*
X89064574Y-69232147D01*
X88787335Y-69177000D01*
X88504665Y-69177000D01*
X88227426Y-69232147D01*
X87966273Y-69340320D01*
X87731241Y-69497363D01*
X87531363Y-69697241D01*
X87376000Y-69929759D01*
X87220637Y-69697241D01*
X87020759Y-69497363D01*
X86785727Y-69340320D01*
X86524574Y-69232147D01*
X86247335Y-69177000D01*
X85964665Y-69177000D01*
X85687426Y-69232147D01*
X85426273Y-69340320D01*
X85191241Y-69497363D01*
X84991363Y-69697241D01*
X84834320Y-69932273D01*
X84726147Y-70193426D01*
X84671000Y-70470665D01*
X77943242Y-70470665D01*
X76575490Y-69102914D01*
X76575490Y-62850665D01*
X84671000Y-62850665D01*
X84671000Y-63133335D01*
X84726147Y-63410574D01*
X84834320Y-63671727D01*
X84991363Y-63906759D01*
X85191241Y-64106637D01*
X85426273Y-64263680D01*
X85687426Y-64371853D01*
X85964665Y-64427000D01*
X86247335Y-64427000D01*
X86524574Y-64371853D01*
X86785727Y-64263680D01*
X87020759Y-64106637D01*
X87219357Y-63908039D01*
X87220188Y-63916482D01*
X87256498Y-64036180D01*
X87315463Y-64146494D01*
X87394815Y-64243185D01*
X87491506Y-64322537D01*
X87601820Y-64381502D01*
X87721518Y-64417812D01*
X87846000Y-64430072D01*
X89446000Y-64430072D01*
X89570482Y-64417812D01*
X89690180Y-64381502D01*
X89800494Y-64322537D01*
X89897185Y-64243185D01*
X89976537Y-64146494D01*
X90035502Y-64036180D01*
X90071812Y-63916482D01*
X90084072Y-63792000D01*
X90084072Y-62192000D01*
X90071812Y-62067518D01*
X90035502Y-61947820D01*
X89976537Y-61837506D01*
X89897185Y-61740815D01*
X89800494Y-61661463D01*
X89690180Y-61602498D01*
X89570482Y-61566188D01*
X89446000Y-61553928D01*
X87846000Y-61553928D01*
X87721518Y-61566188D01*
X87601820Y-61602498D01*
X87491506Y-61661463D01*
X87394815Y-61740815D01*
X87315463Y-61837506D01*
X87256498Y-61947820D01*
X87220188Y-62067518D01*
X87219357Y-62075961D01*
X87020759Y-61877363D01*
X86785727Y-61720320D01*
X86524574Y-61612147D01*
X86247335Y-61557000D01*
X85964665Y-61557000D01*
X85687426Y-61612147D01*
X85426273Y-61720320D01*
X85191241Y-61877363D01*
X84991363Y-62077241D01*
X84834320Y-62312273D01*
X84726147Y-62573426D01*
X84671000Y-62850665D01*
X76575490Y-62850665D01*
X76575490Y-59967508D01*
X76579771Y-59924039D01*
X76575490Y-59880570D01*
X76575490Y-59880562D01*
X76562685Y-59750549D01*
X76512079Y-59583726D01*
X76429901Y-59429980D01*
X76347022Y-59328992D01*
X76347020Y-59328990D01*
X76319307Y-59295222D01*
X76285540Y-59267510D01*
X74788369Y-57770339D01*
X74824100Y-57706862D01*
X74939612Y-57353975D01*
X74984060Y-56985333D01*
X74955735Y-56615103D01*
X74855725Y-56257512D01*
X74687875Y-55926303D01*
X74458635Y-55634205D01*
X74176813Y-55392440D01*
X73853241Y-55210303D01*
X73588782Y-55123736D01*
X72431682Y-54867213D01*
X72155416Y-54833903D01*
X71785186Y-54862228D01*
X71427595Y-54962238D01*
X71096386Y-55130088D01*
X70804288Y-55359328D01*
X70562523Y-55641150D01*
X70380386Y-55964722D01*
X70264874Y-56317609D01*
X70220426Y-56686251D01*
X69752911Y-56686251D01*
X69752911Y-51726667D01*
X71319940Y-51726667D01*
X71348265Y-52096897D01*
X71448275Y-52454488D01*
X71616125Y-52785697D01*
X71845365Y-53077795D01*
X72127187Y-53319560D01*
X72450759Y-53501697D01*
X72715218Y-53588264D01*
X73872317Y-53844787D01*
X74148583Y-53878097D01*
X74518814Y-53849772D01*
X74876405Y-53749762D01*
X75207614Y-53581912D01*
X75499712Y-53352672D01*
X75741477Y-53070850D01*
X75923614Y-52747278D01*
X76039126Y-52394391D01*
X76083574Y-52025749D01*
X76055249Y-51655519D01*
X75955239Y-51297928D01*
X75787389Y-50966719D01*
X75558149Y-50674621D01*
X75276327Y-50432856D01*
X74952755Y-50250719D01*
X74688296Y-50164152D01*
X73531196Y-49907629D01*
X73254930Y-49874319D01*
X72884700Y-49902644D01*
X72527109Y-50002654D01*
X72195900Y-50170504D01*
X71903802Y-50399744D01*
X71662037Y-50681566D01*
X71479900Y-51005138D01*
X71364388Y-51358025D01*
X71319940Y-51726667D01*
X69752911Y-51726667D01*
X69752911Y-47650665D01*
X72215000Y-45188577D01*
X72215000Y-45274299D01*
X72322026Y-45812354D01*
X72531965Y-46319192D01*
X72836750Y-46775334D01*
X73224666Y-47163250D01*
X73680808Y-47468035D01*
X74187646Y-47677974D01*
X74725701Y-47785000D01*
X75274299Y-47785000D01*
X75812354Y-47677974D01*
X76319192Y-47468035D01*
X76775334Y-47163250D01*
X77163250Y-46775334D01*
X77468035Y-46319192D01*
X77663623Y-45847000D01*
X80665000Y-45847000D01*
X80665000Y-46347000D01*
X80725996Y-46712305D01*
X80857088Y-47058691D01*
X81053237Y-47372847D01*
X81306906Y-47642699D01*
X81608347Y-47857878D01*
X81945975Y-48010114D01*
X82130355Y-48057695D01*
X82423000Y-47941572D01*
X82423000Y-45847000D01*
X82677000Y-45847000D01*
X82677000Y-47941572D01*
X82969645Y-48057695D01*
X83154025Y-48010114D01*
X83491653Y-47857878D01*
X83793094Y-47642699D01*
X84046763Y-47372847D01*
X84242912Y-47058691D01*
X84374004Y-46712305D01*
X84435000Y-46347000D01*
X84435000Y-45847000D01*
X82677000Y-45847000D01*
X82423000Y-45847000D01*
X80665000Y-45847000D01*
X77663623Y-45847000D01*
X77677974Y-45812354D01*
X77785000Y-45274299D01*
X77785000Y-45093000D01*
X80665000Y-45093000D01*
X80665000Y-45593000D01*
X82423000Y-45593000D01*
X82423000Y-43498428D01*
X82677000Y-43498428D01*
X82677000Y-45593000D01*
X84435000Y-45593000D01*
X84435000Y-45127403D01*
X85745000Y-45127403D01*
X85745000Y-46312596D01*
X85772275Y-46589523D01*
X85880061Y-46944847D01*
X86055097Y-47272317D01*
X86290655Y-47559345D01*
X86577683Y-47794903D01*
X86905152Y-47969939D01*
X87260476Y-48077725D01*
X87630000Y-48114120D01*
X87999523Y-48077725D01*
X88354847Y-47969939D01*
X88682317Y-47794903D01*
X88969345Y-47559345D01*
X89204903Y-47272317D01*
X89379939Y-46944848D01*
X89487725Y-46589524D01*
X89515000Y-46312597D01*
X89515000Y-45127403D01*
X89487725Y-44850476D01*
X89379939Y-44495152D01*
X89204903Y-44167683D01*
X88969345Y-43880655D01*
X88682317Y-43645097D01*
X88354848Y-43470061D01*
X87999524Y-43362275D01*
X87630000Y-43325880D01*
X87260477Y-43362275D01*
X86905153Y-43470061D01*
X86577684Y-43645097D01*
X86290656Y-43880655D01*
X86055098Y-44167683D01*
X85880061Y-44495152D01*
X85772275Y-44850476D01*
X85745000Y-45127403D01*
X84435000Y-45127403D01*
X84435000Y-45093000D01*
X84374004Y-44727695D01*
X84242912Y-44381309D01*
X84046763Y-44067153D01*
X83793094Y-43797301D01*
X83491653Y-43582122D01*
X83154025Y-43429886D01*
X82969645Y-43382305D01*
X82677000Y-43498428D01*
X82423000Y-43498428D01*
X82130355Y-43382305D01*
X81945975Y-43429886D01*
X81608347Y-43582122D01*
X81306906Y-43797301D01*
X81053237Y-44067153D01*
X80857088Y-44381309D01*
X80725996Y-44727695D01*
X80665000Y-45093000D01*
X77785000Y-45093000D01*
X77785000Y-44725701D01*
X77677974Y-44187646D01*
X77468035Y-43680808D01*
X77203563Y-43284999D01*
X88658423Y-43284999D01*
X93873000Y-48499577D01*
X93873000Y-49922933D01*
X93798815Y-49983815D01*
X93719463Y-50080506D01*
X93660498Y-50190820D01*
X93624188Y-50310518D01*
X93611928Y-50435000D01*
X93611928Y-52435000D01*
X93624188Y-52559482D01*
X93660498Y-52679180D01*
X93719463Y-52789494D01*
X93798815Y-52886185D01*
X93895506Y-52965537D01*
X93983476Y-53012559D01*
X93851068Y-53173899D01*
X93717818Y-53423192D01*
X93635764Y-53693691D01*
X93608057Y-53975000D01*
X93635764Y-54256309D01*
X93717818Y-54526808D01*
X93851068Y-54776101D01*
X94030392Y-54994608D01*
X94248899Y-55173932D01*
X94381858Y-55245000D01*
X94248899Y-55316068D01*
X94030392Y-55495392D01*
X93851068Y-55713899D01*
X93717818Y-55963192D01*
X93635764Y-56233691D01*
X93608057Y-56515000D01*
X93635764Y-56796309D01*
X93717818Y-57066808D01*
X93851068Y-57316101D01*
X94030392Y-57534608D01*
X94248899Y-57713932D01*
X94381858Y-57785000D01*
X94248899Y-57856068D01*
X94030392Y-58035392D01*
X93851068Y-58253899D01*
X93717818Y-58503192D01*
X93635764Y-58773691D01*
X93608057Y-59055000D01*
X93635764Y-59336309D01*
X93717818Y-59606808D01*
X93851068Y-59856101D01*
X94030392Y-60074608D01*
X94248899Y-60253932D01*
X94381858Y-60325000D01*
X94248899Y-60396068D01*
X94030392Y-60575392D01*
X93851068Y-60793899D01*
X93717818Y-61043192D01*
X93635764Y-61313691D01*
X93608057Y-61595000D01*
X93635764Y-61876309D01*
X93717818Y-62146808D01*
X93851068Y-62396101D01*
X94030392Y-62614608D01*
X94248899Y-62793932D01*
X94381858Y-62865000D01*
X94248899Y-62936068D01*
X94030392Y-63115392D01*
X93851068Y-63333899D01*
X93717818Y-63583192D01*
X93635764Y-63853691D01*
X93608057Y-64135000D01*
X93635764Y-64416309D01*
X93717818Y-64686808D01*
X93851068Y-64936101D01*
X94030392Y-65154608D01*
X94248899Y-65333932D01*
X94381858Y-65405000D01*
X94248899Y-65476068D01*
X94030392Y-65655392D01*
X93851068Y-65873899D01*
X93717818Y-66123192D01*
X93635764Y-66393691D01*
X93608057Y-66675000D01*
X93635764Y-66956309D01*
X93717818Y-67226808D01*
X93851068Y-67476101D01*
X94030392Y-67694608D01*
X94248899Y-67873932D01*
X94381858Y-67945000D01*
X94248899Y-68016068D01*
X94030392Y-68195392D01*
X93851068Y-68413899D01*
X93717818Y-68663192D01*
X93635764Y-68933691D01*
X93608057Y-69215000D01*
X93635764Y-69496309D01*
X93717818Y-69766808D01*
X93851068Y-70016101D01*
X94030392Y-70234608D01*
X94248899Y-70413932D01*
X94498192Y-70547182D01*
X94768691Y-70629236D01*
X94979508Y-70650000D01*
X95520492Y-70650000D01*
X95731309Y-70629236D01*
X96001808Y-70547182D01*
X96251101Y-70413932D01*
X96469608Y-70234608D01*
X96648932Y-70016101D01*
X96782182Y-69766808D01*
X96843690Y-69564039D01*
X116518096Y-69564039D01*
X116528556Y-69621730D01*
X116634449Y-69883421D01*
X116789361Y-70119425D01*
X116987338Y-70320673D01*
X117220773Y-70479430D01*
X117480694Y-70589596D01*
X117757113Y-70646937D01*
X117983000Y-70494474D01*
X117983000Y-69342000D01*
X118237000Y-69342000D01*
X118237000Y-70494474D01*
X118462887Y-70646937D01*
X118739306Y-70589596D01*
X118999227Y-70479430D01*
X119232662Y-70320673D01*
X119430639Y-70119425D01*
X119585551Y-69883421D01*
X119691444Y-69621730D01*
X119701904Y-69564039D01*
X119579915Y-69342000D01*
X118237000Y-69342000D01*
X117983000Y-69342000D01*
X116640085Y-69342000D01*
X116518096Y-69564039D01*
X96843690Y-69564039D01*
X96864236Y-69496309D01*
X96891943Y-69215000D01*
X96864236Y-68933691D01*
X96782182Y-68663192D01*
X96648932Y-68413899D01*
X96469608Y-68195392D01*
X96251101Y-68016068D01*
X96118142Y-67945000D01*
X96251101Y-67873932D01*
X96469608Y-67694608D01*
X96648932Y-67476101D01*
X96782182Y-67226808D01*
X96864236Y-66956309D01*
X96891943Y-66675000D01*
X96864236Y-66393691D01*
X96782182Y-66123192D01*
X96648932Y-65873899D01*
X96469608Y-65655392D01*
X96251101Y-65476068D01*
X96118142Y-65405000D01*
X96251101Y-65333932D01*
X96469608Y-65154608D01*
X96648932Y-64936101D01*
X96782182Y-64686808D01*
X96864236Y-64416309D01*
X96891943Y-64135000D01*
X96864236Y-63853691D01*
X96782182Y-63583192D01*
X96648932Y-63333899D01*
X96469608Y-63115392D01*
X96251101Y-62936068D01*
X96118142Y-62865000D01*
X96251101Y-62793932D01*
X96469608Y-62614608D01*
X96648932Y-62396101D01*
X96782182Y-62146808D01*
X96864236Y-61876309D01*
X96891943Y-61595000D01*
X96864236Y-61313691D01*
X96782182Y-61043192D01*
X96648932Y-60793899D01*
X96469608Y-60575392D01*
X96251101Y-60396068D01*
X96118142Y-60325000D01*
X96251101Y-60253932D01*
X96469608Y-60074608D01*
X96648932Y-59856101D01*
X96782182Y-59606808D01*
X96864236Y-59336309D01*
X96891943Y-59055000D01*
X96864236Y-58773691D01*
X96782182Y-58503192D01*
X96648932Y-58253899D01*
X96469608Y-58035392D01*
X96251101Y-57856068D01*
X96118142Y-57785000D01*
X96251101Y-57713932D01*
X96469608Y-57534608D01*
X96648932Y-57316101D01*
X96782182Y-57066808D01*
X96864236Y-56796309D01*
X96891943Y-56515000D01*
X96864236Y-56233691D01*
X96782182Y-55963192D01*
X96648932Y-55713899D01*
X96469608Y-55495392D01*
X96251101Y-55316068D01*
X96118142Y-55245000D01*
X96251101Y-55173932D01*
X96469608Y-54994608D01*
X96648932Y-54776101D01*
X96782182Y-54526808D01*
X96864236Y-54256309D01*
X96891943Y-53975000D01*
X96864236Y-53693691D01*
X96782182Y-53423192D01*
X96648932Y-53173899D01*
X96516524Y-53012559D01*
X96604494Y-52965537D01*
X96701185Y-52886185D01*
X96780537Y-52789494D01*
X96839502Y-52679180D01*
X96875812Y-52559482D01*
X96888072Y-52435000D01*
X96888072Y-51514649D01*
X97615001Y-52241578D01*
X97615000Y-65711546D01*
X97582795Y-65759744D01*
X97504774Y-65948102D01*
X97465000Y-66148061D01*
X97465000Y-66351939D01*
X97504774Y-66551898D01*
X97582795Y-66740256D01*
X97696063Y-66909774D01*
X97840226Y-67053937D01*
X98009744Y-67167205D01*
X98198102Y-67245226D01*
X98398061Y-67285000D01*
X98601939Y-67285000D01*
X98801898Y-67245226D01*
X98990256Y-67167205D01*
X99159774Y-67053937D01*
X99303937Y-66909774D01*
X99417205Y-66740256D01*
X99495226Y-66551898D01*
X99535000Y-66351939D01*
X99535000Y-66148061D01*
X99495226Y-65948102D01*
X99417205Y-65759744D01*
X99385000Y-65711546D01*
X99385000Y-60414000D01*
X101431928Y-60414000D01*
X101431928Y-62014000D01*
X101444188Y-62138482D01*
X101480498Y-62258180D01*
X101539463Y-62368494D01*
X101618815Y-62465185D01*
X101715506Y-62544537D01*
X101825820Y-62603502D01*
X101945518Y-62639812D01*
X102070000Y-62652072D01*
X103670000Y-62652072D01*
X103794482Y-62639812D01*
X103914180Y-62603502D01*
X104024494Y-62544537D01*
X104121185Y-62465185D01*
X104200537Y-62368494D01*
X104259502Y-62258180D01*
X104295812Y-62138482D01*
X104296643Y-62130039D01*
X104495241Y-62328637D01*
X104730273Y-62485680D01*
X104991426Y-62593853D01*
X105268665Y-62649000D01*
X105551335Y-62649000D01*
X105828574Y-62593853D01*
X106089727Y-62485680D01*
X106324759Y-62328637D01*
X106524637Y-62128759D01*
X106681680Y-61893727D01*
X106789853Y-61632574D01*
X106845000Y-61355335D01*
X106845000Y-61072665D01*
X106789853Y-60795426D01*
X106681680Y-60534273D01*
X106524637Y-60299241D01*
X106324759Y-60099363D01*
X106089727Y-59942320D01*
X105828574Y-59834147D01*
X105551335Y-59779000D01*
X105268665Y-59779000D01*
X104991426Y-59834147D01*
X104730273Y-59942320D01*
X104495241Y-60099363D01*
X104296643Y-60297961D01*
X104295812Y-60289518D01*
X104259502Y-60169820D01*
X104200537Y-60059506D01*
X104121185Y-59962815D01*
X104024494Y-59883463D01*
X103914180Y-59824498D01*
X103794482Y-59788188D01*
X103670000Y-59775928D01*
X102070000Y-59775928D01*
X101945518Y-59788188D01*
X101825820Y-59824498D01*
X101715506Y-59883463D01*
X101618815Y-59962815D01*
X101539463Y-60059506D01*
X101480498Y-60169820D01*
X101444188Y-60289518D01*
X101431928Y-60414000D01*
X99385000Y-60414000D01*
X99385000Y-53452665D01*
X101435000Y-53452665D01*
X101435000Y-53735335D01*
X101490147Y-54012574D01*
X101598320Y-54273727D01*
X101755363Y-54508759D01*
X101955241Y-54708637D01*
X102190273Y-54865680D01*
X102451426Y-54973853D01*
X102728665Y-55029000D01*
X103011335Y-55029000D01*
X103288574Y-54973853D01*
X103549727Y-54865680D01*
X103784759Y-54708637D01*
X103984637Y-54508759D01*
X104140000Y-54276241D01*
X104295363Y-54508759D01*
X104495241Y-54708637D01*
X104730273Y-54865680D01*
X104991426Y-54973853D01*
X105268665Y-55029000D01*
X105551335Y-55029000D01*
X105828574Y-54973853D01*
X106089727Y-54865680D01*
X106324759Y-54708637D01*
X106524637Y-54508759D01*
X106681680Y-54273727D01*
X106789853Y-54012574D01*
X106845000Y-53735335D01*
X106845000Y-53452665D01*
X106789853Y-53175426D01*
X106681680Y-52914273D01*
X106524637Y-52679241D01*
X106324759Y-52479363D01*
X106089727Y-52322320D01*
X105828574Y-52214147D01*
X105551335Y-52159000D01*
X105268665Y-52159000D01*
X104991426Y-52214147D01*
X104730273Y-52322320D01*
X104495241Y-52479363D01*
X104295363Y-52679241D01*
X104140000Y-52911759D01*
X103984637Y-52679241D01*
X103784759Y-52479363D01*
X103549727Y-52322320D01*
X103288574Y-52214147D01*
X103011335Y-52159000D01*
X102728665Y-52159000D01*
X102451426Y-52214147D01*
X102190273Y-52322320D01*
X101955241Y-52479363D01*
X101755363Y-52679241D01*
X101598320Y-52914273D01*
X101490147Y-53175426D01*
X101435000Y-53452665D01*
X99385000Y-53452665D01*
X99385000Y-51918463D01*
X99389281Y-51874997D01*
X99385000Y-51831531D01*
X99385000Y-51831521D01*
X99372195Y-51701508D01*
X99321589Y-51534685D01*
X99239411Y-51380939D01*
X99128817Y-51246181D01*
X99095049Y-51218468D01*
X98003581Y-50127000D01*
X117312951Y-50127000D01*
X117108899Y-50236068D01*
X116890392Y-50415392D01*
X116711068Y-50633899D01*
X116577818Y-50883192D01*
X116495764Y-51153691D01*
X116468057Y-51435000D01*
X116495764Y-51716309D01*
X116577818Y-51986808D01*
X116711068Y-52236101D01*
X116890392Y-52454608D01*
X117108899Y-52633932D01*
X117241858Y-52705000D01*
X117108899Y-52776068D01*
X116890392Y-52955392D01*
X116711068Y-53173899D01*
X116577818Y-53423192D01*
X116495764Y-53693691D01*
X116468057Y-53975000D01*
X116495764Y-54256309D01*
X116577818Y-54526808D01*
X116711068Y-54776101D01*
X116890392Y-54994608D01*
X117108899Y-55173932D01*
X117241858Y-55245000D01*
X117108899Y-55316068D01*
X116890392Y-55495392D01*
X116711068Y-55713899D01*
X116577818Y-55963192D01*
X116495764Y-56233691D01*
X116468057Y-56515000D01*
X116495764Y-56796309D01*
X116577818Y-57066808D01*
X116711068Y-57316101D01*
X116890392Y-57534608D01*
X117108899Y-57713932D01*
X117241858Y-57785000D01*
X117108899Y-57856068D01*
X116890392Y-58035392D01*
X116711068Y-58253899D01*
X116577818Y-58503192D01*
X116495764Y-58773691D01*
X116468057Y-59055000D01*
X116495764Y-59336309D01*
X116577818Y-59606808D01*
X116711068Y-59856101D01*
X116890392Y-60074608D01*
X117108899Y-60253932D01*
X117241858Y-60325000D01*
X117108899Y-60396068D01*
X116890392Y-60575392D01*
X116711068Y-60793899D01*
X116577818Y-61043192D01*
X116495764Y-61313691D01*
X116468057Y-61595000D01*
X116495764Y-61876309D01*
X116577818Y-62146808D01*
X116711068Y-62396101D01*
X116890392Y-62614608D01*
X117108899Y-62793932D01*
X117241858Y-62865000D01*
X117108899Y-62936068D01*
X116890392Y-63115392D01*
X116711068Y-63333899D01*
X116577818Y-63583192D01*
X116495764Y-63853691D01*
X116468057Y-64135000D01*
X116495764Y-64416309D01*
X116577818Y-64686808D01*
X116711068Y-64936101D01*
X116890392Y-65154608D01*
X117108899Y-65333932D01*
X117241858Y-65405000D01*
X117108899Y-65476068D01*
X116890392Y-65655392D01*
X116711068Y-65873899D01*
X116577818Y-66123192D01*
X116495764Y-66393691D01*
X116468057Y-66675000D01*
X116495764Y-66956309D01*
X116577818Y-67226808D01*
X116711068Y-67476101D01*
X116890392Y-67694608D01*
X117108899Y-67873932D01*
X117238345Y-67943122D01*
X117220773Y-67950570D01*
X116987338Y-68109327D01*
X116789361Y-68310575D01*
X116634449Y-68546579D01*
X116528556Y-68808270D01*
X116518096Y-68865961D01*
X116640085Y-69088000D01*
X117983000Y-69088000D01*
X117983000Y-69068000D01*
X118237000Y-69068000D01*
X118237000Y-69088000D01*
X119579915Y-69088000D01*
X119701904Y-68865961D01*
X119691444Y-68808270D01*
X119585551Y-68546579D01*
X119430639Y-68310575D01*
X119232662Y-68109327D01*
X118999227Y-67950570D01*
X118981655Y-67943122D01*
X119111101Y-67873932D01*
X119329608Y-67694608D01*
X119508932Y-67476101D01*
X119517783Y-67459541D01*
X127666183Y-67459541D01*
X127710631Y-67828183D01*
X127826143Y-68181070D01*
X128008280Y-68504642D01*
X128250045Y-68786464D01*
X128542143Y-69015704D01*
X128873352Y-69183554D01*
X129230943Y-69283564D01*
X129601173Y-69311889D01*
X129877439Y-69278579D01*
X131034539Y-69022056D01*
X131298998Y-68935489D01*
X131622570Y-68753352D01*
X131904392Y-68511587D01*
X132133632Y-68219489D01*
X132301482Y-67888280D01*
X132401492Y-67530689D01*
X132429817Y-67160459D01*
X132385369Y-66791817D01*
X132269857Y-66438930D01*
X132087720Y-66115358D01*
X131845955Y-65833536D01*
X131553857Y-65604296D01*
X131222648Y-65436446D01*
X130865057Y-65336436D01*
X130494826Y-65308111D01*
X130218560Y-65341421D01*
X129061461Y-65597944D01*
X128797002Y-65684511D01*
X128473430Y-65866648D01*
X128191608Y-66108413D01*
X127962368Y-66400511D01*
X127794518Y-66731720D01*
X127694508Y-67089311D01*
X127666183Y-67459541D01*
X119517783Y-67459541D01*
X119642182Y-67226808D01*
X119724236Y-66956309D01*
X119751943Y-66675000D01*
X119724236Y-66393691D01*
X119642182Y-66123192D01*
X119508932Y-65873899D01*
X119329608Y-65655392D01*
X119111101Y-65476068D01*
X118978142Y-65405000D01*
X119111101Y-65333932D01*
X119329608Y-65154608D01*
X119508932Y-64936101D01*
X119642182Y-64686808D01*
X119724236Y-64416309D01*
X119751943Y-64135000D01*
X119724236Y-63853691D01*
X119642182Y-63583192D01*
X119508932Y-63333899D01*
X119329608Y-63115392D01*
X119111101Y-62936068D01*
X118978142Y-62865000D01*
X119111101Y-62793932D01*
X119329608Y-62614608D01*
X119423699Y-62499957D01*
X126566670Y-62499957D01*
X126611118Y-62868599D01*
X126726630Y-63221486D01*
X126908767Y-63545058D01*
X127150532Y-63826880D01*
X127442630Y-64056120D01*
X127773839Y-64223970D01*
X128131430Y-64323980D01*
X128501660Y-64352305D01*
X128777926Y-64318995D01*
X129935026Y-64062472D01*
X130199485Y-63975905D01*
X130523057Y-63793768D01*
X130804879Y-63552003D01*
X131034119Y-63259905D01*
X131201969Y-62928696D01*
X131301979Y-62571105D01*
X131330304Y-62200875D01*
X131285856Y-61832233D01*
X131170344Y-61479346D01*
X130988207Y-61155774D01*
X130746442Y-60873952D01*
X130454344Y-60644712D01*
X130123135Y-60476862D01*
X129765544Y-60376852D01*
X129395313Y-60348527D01*
X129119047Y-60381837D01*
X127961948Y-60638360D01*
X127697489Y-60724927D01*
X127373917Y-60907064D01*
X127092095Y-61148829D01*
X126862855Y-61440927D01*
X126695005Y-61772136D01*
X126594995Y-62129727D01*
X126566670Y-62499957D01*
X119423699Y-62499957D01*
X119508932Y-62396101D01*
X119642182Y-62146808D01*
X119724236Y-61876309D01*
X119751943Y-61595000D01*
X119724236Y-61313691D01*
X119642182Y-61043192D01*
X119508932Y-60793899D01*
X119329608Y-60575392D01*
X119111101Y-60396068D01*
X118978142Y-60325000D01*
X119111101Y-60253932D01*
X119329608Y-60074608D01*
X119508932Y-59856101D01*
X119642182Y-59606808D01*
X119724236Y-59336309D01*
X119751943Y-59055000D01*
X119724236Y-58773691D01*
X119642182Y-58503192D01*
X119508932Y-58253899D01*
X119329608Y-58035392D01*
X119111101Y-57856068D01*
X118978142Y-57785000D01*
X119111101Y-57713932D01*
X119329608Y-57534608D01*
X119508932Y-57316101D01*
X119549965Y-57239333D01*
X125421940Y-57239333D01*
X125466388Y-57607975D01*
X125581900Y-57960862D01*
X125764037Y-58284434D01*
X126005802Y-58566256D01*
X126297900Y-58795496D01*
X126629109Y-58963346D01*
X126986700Y-59063356D01*
X127356930Y-59091681D01*
X127633196Y-59058371D01*
X128790296Y-58801848D01*
X129054755Y-58715281D01*
X129378327Y-58533144D01*
X129660149Y-58291379D01*
X129889389Y-57999281D01*
X130057239Y-57668072D01*
X130157249Y-57310481D01*
X130185574Y-56940251D01*
X130141126Y-56571609D01*
X130025614Y-56218722D01*
X129843477Y-55895150D01*
X129601712Y-55613328D01*
X129309614Y-55384088D01*
X128978405Y-55216238D01*
X128620814Y-55116228D01*
X128250583Y-55087903D01*
X127974317Y-55121213D01*
X126817218Y-55377736D01*
X126552759Y-55464303D01*
X126229187Y-55646440D01*
X125947365Y-55888205D01*
X125718125Y-56180303D01*
X125550275Y-56511512D01*
X125450265Y-56869103D01*
X125421940Y-57239333D01*
X119549965Y-57239333D01*
X119642182Y-57066808D01*
X119724236Y-56796309D01*
X119751943Y-56515000D01*
X119724236Y-56233691D01*
X119642182Y-55963192D01*
X119508932Y-55713899D01*
X119329608Y-55495392D01*
X119111101Y-55316068D01*
X118978142Y-55245000D01*
X119111101Y-55173932D01*
X119329608Y-54994608D01*
X119508932Y-54776101D01*
X119642182Y-54526808D01*
X119724236Y-54256309D01*
X119751943Y-53975000D01*
X119724236Y-53693691D01*
X119642182Y-53423192D01*
X119508932Y-53173899D01*
X119329608Y-52955392D01*
X119111101Y-52776068D01*
X118978142Y-52705000D01*
X119111101Y-52633932D01*
X119329608Y-52454608D01*
X119473111Y-52279749D01*
X124322426Y-52279749D01*
X124366874Y-52648391D01*
X124482386Y-53001278D01*
X124664523Y-53324850D01*
X124906288Y-53606672D01*
X125198386Y-53835912D01*
X125529595Y-54003762D01*
X125887186Y-54103772D01*
X126257416Y-54132097D01*
X126533682Y-54098787D01*
X127690782Y-53842264D01*
X127955241Y-53755697D01*
X128278813Y-53573560D01*
X128560635Y-53331795D01*
X128789875Y-53039697D01*
X128957725Y-52708488D01*
X129057735Y-52350897D01*
X129086060Y-51980667D01*
X129041612Y-51612025D01*
X128926100Y-51259138D01*
X128743963Y-50935566D01*
X128502198Y-50653744D01*
X128210100Y-50424504D01*
X127878891Y-50256654D01*
X127521300Y-50156644D01*
X127151069Y-50128319D01*
X126874803Y-50161629D01*
X125717704Y-50418152D01*
X125453245Y-50504719D01*
X125129673Y-50686856D01*
X124847851Y-50928621D01*
X124618611Y-51220719D01*
X124450761Y-51551928D01*
X124350751Y-51909519D01*
X124322426Y-52279749D01*
X119473111Y-52279749D01*
X119508932Y-52236101D01*
X119642182Y-51986808D01*
X119724236Y-51716309D01*
X119751943Y-51435000D01*
X119724236Y-51153691D01*
X119642182Y-50883192D01*
X119508932Y-50633899D01*
X119329608Y-50415392D01*
X119111101Y-50236068D01*
X118907049Y-50127000D01*
X119250000Y-50127000D01*
X119274776Y-50124560D01*
X119298601Y-50117333D01*
X119320557Y-50105597D01*
X119339803Y-50089803D01*
X119355597Y-50070557D01*
X119367333Y-50048601D01*
X119374560Y-50024776D01*
X119377000Y-50000000D01*
X119377000Y-44725701D01*
X122215000Y-44725701D01*
X122215000Y-45274299D01*
X122322026Y-45812354D01*
X122531965Y-46319192D01*
X122836750Y-46775334D01*
X123224666Y-47163250D01*
X123680808Y-47468035D01*
X124187646Y-47677974D01*
X124725701Y-47785000D01*
X125274299Y-47785000D01*
X125812354Y-47677974D01*
X126319192Y-47468035D01*
X126775334Y-47163250D01*
X127163250Y-46775334D01*
X127468035Y-46319192D01*
X127677974Y-45812354D01*
X127785000Y-45274299D01*
X127785000Y-44725701D01*
X127677974Y-44187646D01*
X127468035Y-43680808D01*
X127163250Y-43224666D01*
X126775334Y-42836750D01*
X126319192Y-42531965D01*
X125812354Y-42322026D01*
X125274299Y-42215000D01*
X124725701Y-42215000D01*
X124187646Y-42322026D01*
X123680808Y-42531965D01*
X123224666Y-42836750D01*
X122836750Y-43224666D01*
X122531965Y-43680808D01*
X122322026Y-44187646D01*
X122215000Y-44725701D01*
X119377000Y-44725701D01*
X119377000Y-43250000D01*
X119374560Y-43225224D01*
X119367333Y-43201399D01*
X119355597Y-43179443D01*
X119339803Y-43160197D01*
X119320557Y-43144403D01*
X119298601Y-43132667D01*
X119274776Y-43125440D01*
X119250000Y-43123000D01*
X94000000Y-43123000D01*
X93975224Y-43125440D01*
X93951399Y-43132667D01*
X93929443Y-43144403D01*
X93910197Y-43160197D01*
X93894403Y-43179443D01*
X93882667Y-43201399D01*
X93875440Y-43225224D01*
X93873000Y-43250000D01*
X93873000Y-45996420D01*
X89681535Y-41804955D01*
X89653818Y-41771182D01*
X89519060Y-41660588D01*
X89365314Y-41578410D01*
X89198491Y-41527804D01*
X89068478Y-41514999D01*
X89068470Y-41514999D01*
X89025001Y-41510718D01*
X88981532Y-41514999D01*
X73795464Y-41514999D01*
X73751998Y-41510718D01*
X73708532Y-41514999D01*
X73708522Y-41514999D01*
X73578509Y-41527804D01*
X73411686Y-41578410D01*
X73257940Y-41660588D01*
X73257938Y-41660589D01*
X73257939Y-41660589D01*
X73156952Y-41743467D01*
X73156950Y-41743469D01*
X73123182Y-41771182D01*
X73095469Y-41804950D01*
X69469151Y-45431268D01*
X70529433Y-40660000D01*
X129469469Y-40660000D01*
X139177214Y-84340000D01*
%TA.AperFunction,Conductor*%
D24*
G36*
X139177214Y-84340000D02*
G01*
X133967581Y-84340000D01*
X133870617Y-84349550D01*
X133746207Y-84387290D01*
X133688604Y-84418079D01*
X133688562Y-84418100D01*
X133688523Y-84418122D01*
X133631550Y-84448575D01*
X133531052Y-84531052D01*
X133448575Y-84631550D01*
X133387290Y-84746207D01*
X133349550Y-84870617D01*
X133336807Y-85000000D01*
X133349550Y-85129383D01*
X133387290Y-85253793D01*
X133401161Y-85279743D01*
X134277012Y-87452360D01*
X135015292Y-89690486D01*
X135607608Y-91971609D01*
X136051477Y-94286169D01*
X136345058Y-96624561D01*
X136487126Y-98977038D01*
X136477087Y-101333764D01*
X136314984Y-103684936D01*
X136001493Y-106020746D01*
X135537920Y-108331449D01*
X134926194Y-110607440D01*
X134168875Y-112839192D01*
X133269111Y-115017423D01*
X132230661Y-117133047D01*
X131057841Y-119177260D01*
X129755560Y-121141511D01*
X128329217Y-123017651D01*
X126784788Y-124797821D01*
X125128699Y-126474617D01*
X123367839Y-128041057D01*
X121509594Y-129490578D01*
X119561659Y-130817175D01*
X117532185Y-132015298D01*
X115429615Y-133079961D01*
X113262736Y-134006714D01*
X111040551Y-134791709D01*
X108772343Y-135431665D01*
X106467586Y-135923908D01*
X104135840Y-136266398D01*
X101786868Y-136457701D01*
X99430445Y-136497019D01*
X97076399Y-136384192D01*
X94734535Y-136119686D01*
X92414616Y-135704604D01*
X90126344Y-135140684D01*
X87879207Y-134430266D01*
X85682604Y-133576316D01*
X83545689Y-132582395D01*
X81477366Y-131452645D01*
X79486265Y-130191779D01*
X77580671Y-128805043D01*
X75768559Y-127298244D01*
X74057445Y-125677630D01*
X72454477Y-123949969D01*
X70966352Y-122122479D01*
X69599244Y-120202743D01*
X68358895Y-118198826D01*
X67250423Y-116118996D01*
X66278491Y-113971996D01*
X65447136Y-111766751D01*
X64759825Y-109512459D01*
X64219416Y-107218491D01*
X63828171Y-104894443D01*
X63587717Y-102549992D01*
X63499057Y-100194898D01*
X63562560Y-97839024D01*
X63777965Y-95492118D01*
X64144369Y-93164024D01*
X64660246Y-90864433D01*
X65323450Y-88602908D01*
X66132972Y-86384074D01*
X66348359Y-85872938D01*
X73914999Y-93439579D01*
X73915000Y-111720520D01*
X73910718Y-111763999D01*
X73927804Y-111937489D01*
X73978411Y-112104312D01*
X74060589Y-112258058D01*
X74143467Y-112359045D01*
X74143470Y-112359048D01*
X74171183Y-112392816D01*
X74204950Y-112420528D01*
X74499363Y-112714941D01*
X74447047Y-112841244D01*
X74365000Y-113253721D01*
X74365000Y-113674279D01*
X74447047Y-114086756D01*
X74607988Y-114475302D01*
X74841637Y-114824983D01*
X75139017Y-115122363D01*
X75488698Y-115356012D01*
X75877244Y-115516953D01*
X76289721Y-115599000D01*
X76710279Y-115599000D01*
X77122756Y-115516953D01*
X77511302Y-115356012D01*
X77860983Y-115122363D01*
X78158363Y-114824983D01*
X78392012Y-114475302D01*
X78552953Y-114086756D01*
X78635000Y-113674279D01*
X78635000Y-113253721D01*
X78552953Y-112841244D01*
X78392012Y-112452698D01*
X78158363Y-112103017D01*
X77860983Y-111805637D01*
X77511302Y-111571988D01*
X77122756Y-111411047D01*
X76710279Y-111329000D01*
X76289721Y-111329000D01*
X75877244Y-111411047D01*
X75750941Y-111463363D01*
X75684999Y-111397421D01*
X75684999Y-102963974D01*
X75824126Y-103033433D01*
X76182312Y-103131290D01*
X76552706Y-103157389D01*
X76921075Y-103110725D01*
X77273262Y-102993094D01*
X77508086Y-102867577D01*
X77634000Y-102577605D01*
X76500000Y-101443605D01*
X76485858Y-101457748D01*
X76306253Y-101278143D01*
X76320395Y-101264000D01*
X76306253Y-101249858D01*
X76485858Y-101070253D01*
X76500000Y-101084395D01*
X76514143Y-101070253D01*
X76693748Y-101249858D01*
X76679605Y-101264000D01*
X77813605Y-102398000D01*
X78103577Y-102272086D01*
X78269433Y-101939874D01*
X78367290Y-101581688D01*
X78393389Y-101211294D01*
X78391311Y-101194891D01*
X87665001Y-110468582D01*
X87665001Y-111569672D01*
X87538698Y-111621988D01*
X87189017Y-111855637D01*
X86891637Y-112153017D01*
X86657988Y-112502698D01*
X86497047Y-112891244D01*
X86415000Y-113303721D01*
X86415000Y-113724279D01*
X86497047Y-114136756D01*
X86657988Y-114525302D01*
X86891637Y-114874983D01*
X87189017Y-115172363D01*
X87538698Y-115406012D01*
X87927244Y-115566953D01*
X88339721Y-115649000D01*
X88760279Y-115649000D01*
X89172756Y-115566953D01*
X89561302Y-115406012D01*
X89910983Y-115172363D01*
X90208363Y-114874983D01*
X90442012Y-114525302D01*
X90602953Y-114136756D01*
X90685000Y-113724279D01*
X90685000Y-113303721D01*
X90675055Y-113253721D01*
X91815000Y-113253721D01*
X91815000Y-113674279D01*
X91897047Y-114086756D01*
X92057988Y-114475302D01*
X92291637Y-114824983D01*
X92589017Y-115122363D01*
X92938698Y-115356012D01*
X93327244Y-115516953D01*
X93739721Y-115599000D01*
X94160279Y-115599000D01*
X94572756Y-115516953D01*
X94961302Y-115356012D01*
X95310983Y-115122363D01*
X95608363Y-114824983D01*
X95842012Y-114475302D01*
X96002953Y-114086756D01*
X96085000Y-113674279D01*
X96085000Y-113253721D01*
X96002953Y-112841244D01*
X95842012Y-112452698D01*
X95608363Y-112103017D01*
X95310983Y-111805637D01*
X94961302Y-111571988D01*
X94572756Y-111411047D01*
X94160279Y-111329000D01*
X93739721Y-111329000D01*
X93327244Y-111411047D01*
X92938698Y-111571988D01*
X92589017Y-111805637D01*
X92291637Y-112103017D01*
X92057988Y-112452698D01*
X91897047Y-112841244D01*
X91815000Y-113253721D01*
X90675055Y-113253721D01*
X90602953Y-112891244D01*
X90442012Y-112502698D01*
X90208363Y-112153017D01*
X89910983Y-111855637D01*
X89561302Y-111621988D01*
X89435000Y-111569672D01*
X89435000Y-110145467D01*
X89439281Y-110102001D01*
X89435000Y-110058535D01*
X89435000Y-110058525D01*
X89422195Y-109928512D01*
X89371589Y-109761689D01*
X89289411Y-109607943D01*
X89228073Y-109533203D01*
X89206532Y-109506955D01*
X89206530Y-109506953D01*
X89178817Y-109473185D01*
X89145049Y-109445472D01*
X77061413Y-97361837D01*
X77089000Y-97334250D01*
X77089000Y-95885000D01*
X77343000Y-95885000D01*
X77343000Y-97334250D01*
X77501750Y-97493000D01*
X78316000Y-97496072D01*
X78440482Y-97483812D01*
X78560180Y-97447502D01*
X78670494Y-97388537D01*
X78767185Y-97309185D01*
X78846537Y-97212494D01*
X78905502Y-97102180D01*
X78941812Y-96982482D01*
X78954072Y-96858000D01*
X78951000Y-96043750D01*
X78792250Y-95885000D01*
X77343000Y-95885000D01*
X77089000Y-95885000D01*
X77069000Y-95885000D01*
X77069000Y-95631000D01*
X77089000Y-95631000D01*
X77089000Y-94181750D01*
X77343000Y-94181750D01*
X77343000Y-95631000D01*
X78792250Y-95631000D01*
X78951000Y-95472250D01*
X78954072Y-94658000D01*
X78941812Y-94533518D01*
X78905502Y-94413820D01*
X78846537Y-94303506D01*
X78767185Y-94206815D01*
X78670494Y-94127463D01*
X78560180Y-94068498D01*
X78440482Y-94032188D01*
X78316000Y-94019928D01*
X77501750Y-94023000D01*
X77343000Y-94181750D01*
X77089000Y-94181750D01*
X76930250Y-94023000D01*
X76385009Y-94020943D01*
X76385009Y-91254571D01*
X76389290Y-91211105D01*
X76385009Y-91167639D01*
X76385009Y-91167629D01*
X76372204Y-91037616D01*
X76321598Y-90870793D01*
X76239420Y-90717047D01*
X76215219Y-90687558D01*
X76156541Y-90616059D01*
X76156539Y-90616057D01*
X76128826Y-90582289D01*
X76095058Y-90554576D01*
X69158613Y-83618132D01*
X69194344Y-83554654D01*
X69309856Y-83201767D01*
X69354304Y-82833125D01*
X69325979Y-82462895D01*
X69225969Y-82105304D01*
X69058119Y-81774095D01*
X68828879Y-81481997D01*
X68547057Y-81240232D01*
X68223485Y-81058095D01*
X67959026Y-80971528D01*
X66801926Y-80715005D01*
X66525660Y-80681695D01*
X66155430Y-80710020D01*
X65797839Y-80810030D01*
X65557218Y-80931972D01*
X65557218Y-77630289D01*
X65700758Y-77486749D01*
X65690183Y-77574459D01*
X65718508Y-77944689D01*
X65818518Y-78302280D01*
X65986368Y-78633489D01*
X66215608Y-78925587D01*
X66497430Y-79167352D01*
X66821002Y-79349489D01*
X67085461Y-79436056D01*
X68242560Y-79692579D01*
X68518826Y-79725889D01*
X68800743Y-79704321D01*
X79419991Y-90323570D01*
X79419990Y-97025521D01*
X79415709Y-97068990D01*
X79419990Y-97112459D01*
X79419990Y-97112466D01*
X79427111Y-97184767D01*
X79432795Y-97242480D01*
X79441315Y-97270566D01*
X79483401Y-97409302D01*
X79565579Y-97563048D01*
X79676173Y-97697807D01*
X79709946Y-97725524D01*
X80549363Y-98564942D01*
X80497047Y-98691244D01*
X80415000Y-99103721D01*
X80415000Y-99524279D01*
X80497047Y-99936756D01*
X80657988Y-100325302D01*
X80891637Y-100674983D01*
X81189017Y-100972363D01*
X81538698Y-101206012D01*
X81927244Y-101366953D01*
X82339721Y-101449000D01*
X82760279Y-101449000D01*
X83172756Y-101366953D01*
X83561302Y-101206012D01*
X83752370Y-101078344D01*
X86615000Y-101078344D01*
X86615000Y-101449656D01*
X86687439Y-101813834D01*
X86829534Y-102156882D01*
X87035825Y-102465618D01*
X87298382Y-102728175D01*
X87607118Y-102934466D01*
X87950166Y-103076561D01*
X88314344Y-103149000D01*
X88685656Y-103149000D01*
X89049834Y-103076561D01*
X89392882Y-102934466D01*
X89701618Y-102728175D01*
X89852188Y-102577605D01*
X92816000Y-102577605D01*
X92941914Y-102867577D01*
X93274126Y-103033433D01*
X93632312Y-103131290D01*
X94002706Y-103157389D01*
X94371075Y-103110725D01*
X94723262Y-102993094D01*
X94958086Y-102867577D01*
X95084000Y-102577605D01*
X93950000Y-101443605D01*
X92816000Y-102577605D01*
X89852188Y-102577605D01*
X89964175Y-102465618D01*
X90170466Y-102156882D01*
X90312561Y-101813834D01*
X90385000Y-101449656D01*
X90385000Y-101316706D01*
X92056611Y-101316706D01*
X92103275Y-101685075D01*
X92220906Y-102037262D01*
X92346423Y-102272086D01*
X92636395Y-102398000D01*
X93770395Y-101264000D01*
X94129605Y-101264000D01*
X95263605Y-102398000D01*
X95553577Y-102272086D01*
X95719433Y-101939874D01*
X95817290Y-101581688D01*
X95843389Y-101211294D01*
X95796725Y-100842925D01*
X95679094Y-100490738D01*
X95553577Y-100255914D01*
X95263605Y-100130000D01*
X94129605Y-101264000D01*
X93770395Y-101264000D01*
X92636395Y-100130000D01*
X92346423Y-100255914D01*
X92180567Y-100588126D01*
X92082710Y-100946312D01*
X92056611Y-101316706D01*
X90385000Y-101316706D01*
X90385000Y-101078344D01*
X90312561Y-100714166D01*
X90170466Y-100371118D01*
X89964175Y-100062382D01*
X89852188Y-99950395D01*
X92816000Y-99950395D01*
X93950000Y-101084395D01*
X95084000Y-99950395D01*
X94958086Y-99660423D01*
X94625874Y-99494567D01*
X94267688Y-99396710D01*
X93897294Y-99370611D01*
X93528925Y-99417275D01*
X93176738Y-99534906D01*
X92941914Y-99660423D01*
X92816000Y-99950395D01*
X89852188Y-99950395D01*
X89701618Y-99799825D01*
X89392882Y-99593534D01*
X89049834Y-99451439D01*
X88685656Y-99379000D01*
X88314344Y-99379000D01*
X87950166Y-99451439D01*
X87607118Y-99593534D01*
X87298382Y-99799825D01*
X87035825Y-100062382D01*
X86829534Y-100371118D01*
X86687439Y-100714166D01*
X86615000Y-101078344D01*
X83752370Y-101078344D01*
X83910983Y-100972363D01*
X84208363Y-100674983D01*
X84442012Y-100325302D01*
X84602953Y-99936756D01*
X84685000Y-99524279D01*
X84685000Y-99103721D01*
X84602953Y-98691244D01*
X84442012Y-98302698D01*
X84208363Y-97953017D01*
X83910983Y-97655637D01*
X83561302Y-97421988D01*
X83172756Y-97261047D01*
X82760279Y-97179000D01*
X82339721Y-97179000D01*
X81927244Y-97261047D01*
X81800942Y-97313363D01*
X81189990Y-96702412D01*
X81189990Y-95587117D01*
X85641000Y-95587117D01*
X85641000Y-95928883D01*
X85707675Y-96264081D01*
X85838463Y-96579831D01*
X86028337Y-96863998D01*
X86270002Y-97105663D01*
X86554169Y-97295537D01*
X86869919Y-97426325D01*
X87205117Y-97493000D01*
X87546883Y-97493000D01*
X87882081Y-97426325D01*
X88197831Y-97295537D01*
X88481998Y-97105663D01*
X88723663Y-96863998D01*
X88727670Y-96858000D01*
X93003928Y-96858000D01*
X93016188Y-96982482D01*
X93052498Y-97102180D01*
X93111463Y-97212494D01*
X93190815Y-97309185D01*
X93287506Y-97388537D01*
X93397820Y-97447502D01*
X93517518Y-97483812D01*
X93642000Y-97496072D01*
X94456250Y-97493000D01*
X94615000Y-97334250D01*
X94615000Y-95885000D01*
X94869000Y-95885000D01*
X94869000Y-97334250D01*
X95027750Y-97493000D01*
X95842000Y-97496072D01*
X95966482Y-97483812D01*
X96086180Y-97447502D01*
X96196494Y-97388537D01*
X96293185Y-97309185D01*
X96372537Y-97212494D01*
X96431502Y-97102180D01*
X96467812Y-96982482D01*
X96480072Y-96858000D01*
X96477000Y-96043750D01*
X96318250Y-95885000D01*
X94869000Y-95885000D01*
X94615000Y-95885000D01*
X93165750Y-95885000D01*
X93007000Y-96043750D01*
X93003928Y-96858000D01*
X88727670Y-96858000D01*
X88913537Y-96579831D01*
X89044325Y-96264081D01*
X89111000Y-95928883D01*
X89111000Y-95587117D01*
X89044325Y-95251919D01*
X88913537Y-94936169D01*
X88727671Y-94658000D01*
X93003928Y-94658000D01*
X93007000Y-95472250D01*
X93165750Y-95631000D01*
X94615000Y-95631000D01*
X94615000Y-94181750D01*
X94456250Y-94023000D01*
X93642000Y-94019928D01*
X93517518Y-94032188D01*
X93397820Y-94068498D01*
X93287506Y-94127463D01*
X93190815Y-94206815D01*
X93111463Y-94303506D01*
X93052498Y-94413820D01*
X93016188Y-94533518D01*
X93003928Y-94658000D01*
X88727671Y-94658000D01*
X88723663Y-94652002D01*
X88481998Y-94410337D01*
X88197831Y-94220463D01*
X87882081Y-94089675D01*
X87546883Y-94023000D01*
X87205117Y-94023000D01*
X86869919Y-94089675D01*
X86554169Y-94220463D01*
X86270002Y-94410337D01*
X86028337Y-94652002D01*
X85838463Y-94936169D01*
X85707675Y-95251919D01*
X85641000Y-95587117D01*
X81189990Y-95587117D01*
X81189990Y-91043747D01*
X81280000Y-91052612D01*
X81507399Y-91030215D01*
X81726059Y-90963885D01*
X81915000Y-90862894D01*
X82103940Y-90963885D01*
X82322600Y-91030215D01*
X82550000Y-91052612D01*
X82777399Y-91030215D01*
X82986098Y-90966907D01*
X83050820Y-91001502D01*
X83170518Y-91037812D01*
X83295000Y-91050072D01*
X84345000Y-91050072D01*
X84469482Y-91037812D01*
X84589180Y-91001502D01*
X84699494Y-90942537D01*
X84796185Y-90863185D01*
X84875537Y-90766494D01*
X84934502Y-90656180D01*
X84970812Y-90536482D01*
X84983072Y-90412000D01*
X84983072Y-88912000D01*
X84970812Y-88787518D01*
X84934502Y-88667820D01*
X84875537Y-88557506D01*
X84796185Y-88460815D01*
X84699494Y-88381463D01*
X84589180Y-88322498D01*
X84469482Y-88286188D01*
X84345000Y-88273928D01*
X83295000Y-88273928D01*
X83170518Y-88286188D01*
X83050820Y-88322498D01*
X82986098Y-88357093D01*
X82777400Y-88293785D01*
X82550000Y-88271388D01*
X82322601Y-88293785D01*
X82103941Y-88360115D01*
X81915001Y-88461106D01*
X81726060Y-88360115D01*
X81507400Y-88293785D01*
X81280000Y-88271388D01*
X81052601Y-88293785D01*
X80833941Y-88360115D01*
X80632422Y-88467829D01*
X80455789Y-88612788D01*
X80346065Y-88746486D01*
X70258126Y-78658548D01*
X70293857Y-78595070D01*
X70409369Y-78242183D01*
X70453817Y-77873541D01*
X70425492Y-77503311D01*
X70325482Y-77145720D01*
X70157632Y-76814511D01*
X69928392Y-76522413D01*
X69646570Y-76280648D01*
X69322998Y-76098511D01*
X69058539Y-76011944D01*
X67901439Y-75755421D01*
X67625173Y-75722111D01*
X67452160Y-75735348D01*
X68615574Y-74571934D01*
X69342073Y-74732995D01*
X69618339Y-74766305D01*
X69988570Y-74737980D01*
X70346161Y-74637970D01*
X70677370Y-74470120D01*
X70969468Y-74240880D01*
X71211233Y-73959058D01*
X71393370Y-73635486D01*
X71508882Y-73282599D01*
X71553330Y-72913957D01*
X71525005Y-72543727D01*
X71424995Y-72186136D01*
X71257145Y-71854927D01*
X71027905Y-71562829D01*
X70746083Y-71321064D01*
X70422511Y-71138927D01*
X70158052Y-71052360D01*
X69000952Y-70795837D01*
X68724686Y-70762527D01*
X68354456Y-70790852D01*
X67996865Y-70890862D01*
X67665656Y-71058712D01*
X67373558Y-71287952D01*
X67131793Y-71569774D01*
X66949656Y-71893346D01*
X66834144Y-72246233D01*
X66789696Y-72614875D01*
X66818021Y-72985105D01*
X66918031Y-73342696D01*
X67060509Y-73623841D01*
X64077174Y-76607177D01*
X64043401Y-76634894D01*
X63932807Y-76769653D01*
X63850629Y-76923399D01*
X63800023Y-77090222D01*
X63787218Y-77220235D01*
X63787218Y-77220242D01*
X63782937Y-77263711D01*
X63787218Y-77307180D01*
X63787219Y-84374850D01*
X63746207Y-84387291D01*
X63631550Y-84448576D01*
X63531052Y-84531053D01*
X63448575Y-84631551D01*
X63387290Y-84746208D01*
X63375358Y-84785541D01*
X62603595Y-86793772D01*
X62597135Y-86812300D01*
X62590645Y-86830705D01*
X61848875Y-89165714D01*
X61848862Y-89165752D01*
X61844703Y-89180429D01*
X61837556Y-89205644D01*
X61837549Y-89205674D01*
X61243864Y-91582632D01*
X61243856Y-91582662D01*
X61235078Y-91623185D01*
X61135000Y-92167202D01*
X61135000Y-88292721D01*
X61858923Y-87568799D01*
X61892691Y-87541086D01*
X61920613Y-87507064D01*
X62003284Y-87406329D01*
X62003285Y-87406328D01*
X62085463Y-87252582D01*
X62136069Y-87085759D01*
X62148874Y-86955746D01*
X62148874Y-86955736D01*
X62153155Y-86912270D01*
X62148874Y-86868804D01*
X62148874Y-81599400D01*
X63505072Y-75496506D01*
X66095049Y-72906530D01*
X66128817Y-72878817D01*
X66203541Y-72787767D01*
X66239411Y-72744059D01*
X66321589Y-72590314D01*
X66372195Y-72423490D01*
X66372625Y-72419125D01*
X66385000Y-72293477D01*
X66385000Y-72293469D01*
X66389281Y-72250000D01*
X66385000Y-72206531D01*
X66385000Y-68366578D01*
X67973240Y-66778339D01*
X67934426Y-67100251D01*
X67962751Y-67470481D01*
X68062761Y-67828072D01*
X68230611Y-68159281D01*
X68459851Y-68451379D01*
X68741673Y-68693144D01*
X69065245Y-68875281D01*
X69329704Y-68961848D01*
X70486803Y-69218371D01*
X70763069Y-69251681D01*
X71044986Y-69230113D01*
X95834827Y-94019955D01*
X95027750Y-94023000D01*
X94869000Y-94181750D01*
X94869000Y-95631000D01*
X96318250Y-95631000D01*
X96477000Y-95472250D01*
X96480045Y-94665173D01*
X99115000Y-97300128D01*
X99115000Y-97369672D01*
X98988698Y-97421988D01*
X98639017Y-97655637D01*
X98341637Y-97953017D01*
X98107988Y-98302698D01*
X97947047Y-98691244D01*
X97865000Y-99103721D01*
X97865000Y-99524279D01*
X97947047Y-99936756D01*
X98107988Y-100325302D01*
X98341637Y-100674983D01*
X98639017Y-100972363D01*
X98988698Y-101206012D01*
X99377244Y-101366953D01*
X99789721Y-101449000D01*
X100210279Y-101449000D01*
X100622756Y-101366953D01*
X101011302Y-101206012D01*
X101065002Y-101170131D01*
X101065001Y-115234420D01*
X99899922Y-116399500D01*
X84371465Y-116399500D01*
X84327999Y-116395219D01*
X84284533Y-116399500D01*
X84284523Y-116399500D01*
X84154510Y-116412305D01*
X83987687Y-116462911D01*
X83833941Y-116545089D01*
X83831397Y-116547177D01*
X83732953Y-116627968D01*
X83732951Y-116627970D01*
X83699183Y-116655683D01*
X83671470Y-116689451D01*
X80875451Y-119485471D01*
X80841684Y-119513183D01*
X80813971Y-119546951D01*
X80813968Y-119546954D01*
X80731090Y-119647941D01*
X80648912Y-119801687D01*
X80598305Y-119968510D01*
X80581219Y-120142000D01*
X80585501Y-120185479D01*
X80585500Y-127274031D01*
X80581219Y-127317500D01*
X80585500Y-127360969D01*
X80585500Y-127360976D01*
X80592041Y-127427387D01*
X80598305Y-127490990D01*
X80602959Y-127506330D01*
X80648911Y-127657812D01*
X80731089Y-127811558D01*
X80841683Y-127946317D01*
X80875456Y-127974034D01*
X84560470Y-131659049D01*
X84588183Y-131692817D01*
X84621951Y-131720530D01*
X84621953Y-131720532D01*
X84644929Y-131739388D01*
X84722941Y-131803411D01*
X84876687Y-131885589D01*
X85043510Y-131936195D01*
X85173523Y-131949000D01*
X85173533Y-131949000D01*
X85216999Y-131953281D01*
X85260465Y-131949000D01*
X90393546Y-131949000D01*
X90441744Y-131981205D01*
X90630102Y-132059226D01*
X90830061Y-132099000D01*
X91033939Y-132099000D01*
X91233898Y-132059226D01*
X91422256Y-131981205D01*
X91591774Y-131867937D01*
X91735937Y-131723774D01*
X91849205Y-131554256D01*
X91927226Y-131365898D01*
X91967000Y-131165939D01*
X91967000Y-130962061D01*
X91927226Y-130762102D01*
X91849205Y-130573744D01*
X91735937Y-130404226D01*
X91591774Y-130260063D01*
X91422256Y-130146795D01*
X91233898Y-130068774D01*
X91033939Y-130029000D01*
X90830061Y-130029000D01*
X90630102Y-130068774D01*
X90441744Y-130146795D01*
X90393546Y-130179000D01*
X85583579Y-130179000D01*
X82355500Y-126950922D01*
X82355500Y-120508578D01*
X84694579Y-118169500D01*
X100223031Y-118169500D01*
X100266500Y-118173781D01*
X100309969Y-118169500D01*
X100309977Y-118169500D01*
X100439990Y-118156695D01*
X100606813Y-118106089D01*
X100760559Y-118023911D01*
X100895317Y-117913317D01*
X100923034Y-117879544D01*
X102545051Y-116257528D01*
X102578818Y-116229816D01*
X102610970Y-116190640D01*
X102689411Y-116095059D01*
X102689412Y-116095058D01*
X102771590Y-115941312D01*
X102818006Y-115788303D01*
X102822196Y-115774490D01*
X102825071Y-115745301D01*
X102835001Y-115644476D01*
X102835001Y-115644468D01*
X102839282Y-115600999D01*
X102835001Y-115557530D01*
X102835001Y-95587117D01*
X103167000Y-95587117D01*
X103167000Y-95928883D01*
X103233675Y-96264081D01*
X103364463Y-96579831D01*
X103554337Y-96863998D01*
X103796002Y-97105663D01*
X104080169Y-97295537D01*
X104395919Y-97426325D01*
X104731117Y-97493000D01*
X105072883Y-97493000D01*
X105408081Y-97426325D01*
X105723831Y-97295537D01*
X106007998Y-97105663D01*
X106249663Y-96863998D01*
X106439537Y-96579831D01*
X106570325Y-96264081D01*
X106637000Y-95928883D01*
X106637000Y-95587117D01*
X106570325Y-95251919D01*
X106439537Y-94936169D01*
X106249663Y-94652002D01*
X106007998Y-94410337D01*
X105723831Y-94220463D01*
X105408081Y-94089675D01*
X105072883Y-94023000D01*
X104731117Y-94023000D01*
X104395919Y-94089675D01*
X104080169Y-94220463D01*
X103796002Y-94410337D01*
X103554337Y-94652002D01*
X103364463Y-94936169D01*
X103233675Y-95251919D01*
X103167000Y-95587117D01*
X102835001Y-95587117D01*
X102835001Y-94516838D01*
X102839282Y-94473372D01*
X102835001Y-94429906D01*
X102835001Y-94429896D01*
X102822196Y-94299883D01*
X102771590Y-94133060D01*
X102689412Y-93979314D01*
X102628839Y-93905506D01*
X102606533Y-93878326D01*
X102606531Y-93878324D01*
X102578818Y-93844556D01*
X102545050Y-93816843D01*
X99746805Y-91018598D01*
X99785100Y-91030215D01*
X100012500Y-91052612D01*
X100239899Y-91030215D01*
X100448598Y-90966907D01*
X100513320Y-91001502D01*
X100633018Y-91037812D01*
X100757500Y-91050072D01*
X101807500Y-91050072D01*
X101931982Y-91037812D01*
X102051680Y-91001502D01*
X102161994Y-90942537D01*
X102258685Y-90863185D01*
X102338037Y-90766494D01*
X102397002Y-90656180D01*
X102433312Y-90536482D01*
X102445572Y-90412000D01*
X102445572Y-88912000D01*
X102433312Y-88787518D01*
X102397002Y-88667820D01*
X102338037Y-88557506D01*
X102258685Y-88460815D01*
X102161994Y-88381463D01*
X102051680Y-88322498D01*
X101931982Y-88286188D01*
X101807500Y-88273928D01*
X100757500Y-88273928D01*
X100633018Y-88286188D01*
X100513320Y-88322498D01*
X100448598Y-88357093D01*
X100239900Y-88293785D01*
X100012500Y-88271388D01*
X99785101Y-88293785D01*
X99566441Y-88360115D01*
X99377501Y-88461106D01*
X99188560Y-88360115D01*
X98969900Y-88293785D01*
X98742500Y-88271388D01*
X98515101Y-88293785D01*
X98296441Y-88360115D01*
X98094922Y-88467829D01*
X97918289Y-88612788D01*
X97773330Y-88789421D01*
X97684261Y-88956055D01*
X95436500Y-86708294D01*
X95436500Y-85901078D01*
X95495043Y-85842535D01*
X95551898Y-85831226D01*
X95740256Y-85753205D01*
X95909774Y-85639937D01*
X96053937Y-85495774D01*
X96167205Y-85326256D01*
X96245226Y-85137898D01*
X96285000Y-84937939D01*
X96285000Y-84734061D01*
X96245226Y-84534102D01*
X96167205Y-84345744D01*
X96053937Y-84176226D01*
X95909774Y-84032063D01*
X95740256Y-83918795D01*
X95551898Y-83840774D01*
X95351939Y-83801000D01*
X95148061Y-83801000D01*
X94948102Y-83840774D01*
X94759744Y-83918795D01*
X94590226Y-84032063D01*
X94446063Y-84176226D01*
X94332795Y-84345744D01*
X94254774Y-84534102D01*
X94243465Y-84590957D01*
X93956451Y-84877971D01*
X93922684Y-84905683D01*
X93894971Y-84939451D01*
X93894968Y-84939454D01*
X93812090Y-85040441D01*
X93729912Y-85194187D01*
X93679305Y-85361010D01*
X93662219Y-85534500D01*
X93666501Y-85577979D01*
X93666500Y-87031402D01*
X93662219Y-87074872D01*
X93666500Y-87118341D01*
X93666500Y-87118348D01*
X93674651Y-87201107D01*
X93679305Y-87248362D01*
X93693379Y-87294755D01*
X93729911Y-87415184D01*
X93812089Y-87568930D01*
X93922683Y-87703689D01*
X93956456Y-87731406D01*
X101065002Y-94839953D01*
X101065002Y-97457869D01*
X101011302Y-97421988D01*
X100885000Y-97369672D01*
X100885000Y-96977018D01*
X100889281Y-96933549D01*
X100885000Y-96890080D01*
X100885000Y-96890072D01*
X100872195Y-96760059D01*
X100821589Y-96593236D01*
X100739411Y-96439490D01*
X100687975Y-96376815D01*
X100656532Y-96338502D01*
X100656530Y-96338500D01*
X100628817Y-96304732D01*
X100595051Y-96277021D01*
X72502369Y-68184340D01*
X72538100Y-68120862D01*
X72653612Y-67767975D01*
X72698060Y-67399333D01*
X72669735Y-67029103D01*
X72569725Y-66671512D01*
X72401875Y-66340303D01*
X72172635Y-66048205D01*
X71890813Y-65806440D01*
X71567241Y-65624303D01*
X71302782Y-65537736D01*
X70145682Y-65281213D01*
X69869416Y-65247903D01*
X69499186Y-65276228D01*
X69141595Y-65376238D01*
X68810386Y-65544088D01*
X68518288Y-65773328D01*
X68298853Y-66029120D01*
X68298853Y-62140667D01*
X69033940Y-62140667D01*
X69062265Y-62510897D01*
X69162275Y-62868488D01*
X69330125Y-63199697D01*
X69559365Y-63491795D01*
X69841187Y-63733560D01*
X70164759Y-63915697D01*
X70429218Y-64002264D01*
X71586317Y-64258787D01*
X71862583Y-64292097D01*
X72232814Y-64263772D01*
X72590405Y-64163762D01*
X72921614Y-63995912D01*
X73213712Y-63766672D01*
X73455477Y-63484850D01*
X73637614Y-63161278D01*
X73753126Y-62808391D01*
X73797574Y-62439749D01*
X73769249Y-62069519D01*
X73669239Y-61711928D01*
X73501389Y-61380719D01*
X73272149Y-61088621D01*
X72990327Y-60846856D01*
X72666755Y-60664719D01*
X72402296Y-60578152D01*
X71245196Y-60321629D01*
X70968930Y-60288319D01*
X70598700Y-60316644D01*
X70241109Y-60416654D01*
X69909900Y-60584504D01*
X69617802Y-60813744D01*
X69376037Y-61095566D01*
X69193900Y-61419138D01*
X69078388Y-61772025D01*
X69033940Y-62140667D01*
X68298853Y-62140667D01*
X68298853Y-60588320D01*
X69462960Y-59424214D01*
X69496728Y-59396501D01*
X69535263Y-59349547D01*
X69607322Y-59261743D01*
X69689500Y-59107998D01*
X69740106Y-58941174D01*
X69752911Y-58811161D01*
X69752911Y-58811153D01*
X69757192Y-58767684D01*
X69752911Y-58724215D01*
X69752911Y-56686251D01*
X70220426Y-56686251D01*
X70248751Y-57056481D01*
X70348761Y-57414072D01*
X70516611Y-57745281D01*
X70745851Y-58037379D01*
X71027673Y-58279144D01*
X71351245Y-58461281D01*
X71615704Y-58547848D01*
X72772803Y-58804371D01*
X73049069Y-58837681D01*
X73330985Y-58816113D01*
X74805490Y-60290618D01*
X74805491Y-69426013D01*
X74801209Y-69469492D01*
X74818295Y-69642982D01*
X74868902Y-69809805D01*
X74951080Y-69963551D01*
X75033958Y-70064538D01*
X75033961Y-70064541D01*
X75061674Y-70098309D01*
X75095442Y-70126022D01*
X87225468Y-82256049D01*
X87253181Y-82289817D01*
X87286949Y-82317530D01*
X87286951Y-82317532D01*
X87318314Y-82343271D01*
X87387939Y-82400411D01*
X87541685Y-82482589D01*
X87657901Y-82517843D01*
X87708507Y-82533195D01*
X87717118Y-82534043D01*
X87838521Y-82546000D01*
X87838529Y-82546000D01*
X87881998Y-82550281D01*
X87925467Y-82546000D01*
X100086388Y-82546000D01*
X106765001Y-89224614D01*
X106765001Y-99561275D01*
X106499834Y-99451439D01*
X106135656Y-99379000D01*
X105764344Y-99379000D01*
X105400166Y-99451439D01*
X105057118Y-99593534D01*
X104748382Y-99799825D01*
X104485825Y-100062382D01*
X104279534Y-100371118D01*
X104137439Y-100714166D01*
X104065000Y-101078344D01*
X104065000Y-101449656D01*
X104137439Y-101813834D01*
X104279534Y-102156882D01*
X104485825Y-102465618D01*
X104748382Y-102728175D01*
X105057118Y-102934466D01*
X105400166Y-103076561D01*
X105764344Y-103149000D01*
X106135656Y-103149000D01*
X106499834Y-103076561D01*
X106765002Y-102966725D01*
X106765002Y-111497419D01*
X106749058Y-111513363D01*
X106622756Y-111461047D01*
X106210279Y-111379000D01*
X105789721Y-111379000D01*
X105377244Y-111461047D01*
X104988698Y-111621988D01*
X104639017Y-111855637D01*
X104341637Y-112153017D01*
X104107988Y-112502698D01*
X103947047Y-112891244D01*
X103865000Y-113303721D01*
X103865000Y-113724279D01*
X103947047Y-114136756D01*
X104107988Y-114525302D01*
X104341637Y-114874983D01*
X104639017Y-115172363D01*
X104988698Y-115406012D01*
X105377244Y-115566953D01*
X105789721Y-115649000D01*
X106210279Y-115649000D01*
X106622756Y-115566953D01*
X107011302Y-115406012D01*
X107360983Y-115172363D01*
X107658363Y-114874983D01*
X107892012Y-114525302D01*
X108052953Y-114136756D01*
X108135000Y-113724279D01*
X108135000Y-113303721D01*
X108125055Y-113253721D01*
X109163000Y-113253721D01*
X109163000Y-113674279D01*
X109245047Y-114086756D01*
X109405988Y-114475302D01*
X109639637Y-114824983D01*
X109937017Y-115122363D01*
X110286698Y-115356012D01*
X110675244Y-115516953D01*
X111087721Y-115599000D01*
X111508279Y-115599000D01*
X111920756Y-115516953D01*
X112309302Y-115356012D01*
X112658983Y-115122363D01*
X112956363Y-114824983D01*
X113190012Y-114475302D01*
X113350953Y-114086756D01*
X113433000Y-113674279D01*
X113433000Y-113303721D01*
X121213000Y-113303721D01*
X121213000Y-113724279D01*
X121295047Y-114136756D01*
X121455988Y-114525302D01*
X121689637Y-114874983D01*
X121987017Y-115172363D01*
X122336698Y-115406012D01*
X122725244Y-115566953D01*
X123137721Y-115649000D01*
X123558279Y-115649000D01*
X123970756Y-115566953D01*
X124359302Y-115406012D01*
X124708983Y-115172363D01*
X125006363Y-114874983D01*
X125240012Y-114525302D01*
X125400953Y-114136756D01*
X125483000Y-113724279D01*
X125483000Y-113303721D01*
X125400953Y-112891244D01*
X125240012Y-112502698D01*
X125006363Y-112153017D01*
X124708983Y-111855637D01*
X124359302Y-111621988D01*
X123970756Y-111461047D01*
X123558279Y-111379000D01*
X123137721Y-111379000D01*
X122725244Y-111461047D01*
X122336698Y-111621988D01*
X121987017Y-111855637D01*
X121689637Y-112153017D01*
X121455988Y-112502698D01*
X121295047Y-112891244D01*
X121213000Y-113303721D01*
X113433000Y-113303721D01*
X113433000Y-113253721D01*
X113350953Y-112841244D01*
X113190012Y-112452698D01*
X112956363Y-112103017D01*
X112658983Y-111805637D01*
X112309302Y-111571988D01*
X111920756Y-111411047D01*
X111508279Y-111329000D01*
X111087721Y-111329000D01*
X110675244Y-111411047D01*
X110286698Y-111571988D01*
X109937017Y-111805637D01*
X109639637Y-112103017D01*
X109405988Y-112452698D01*
X109245047Y-112841244D01*
X109163000Y-113253721D01*
X108125055Y-113253721D01*
X108052953Y-112891244D01*
X108000637Y-112764942D01*
X108245050Y-112520529D01*
X108278818Y-112492816D01*
X108306722Y-112458816D01*
X108389412Y-112358058D01*
X108406021Y-112326984D01*
X108471590Y-112204312D01*
X108522196Y-112037489D01*
X108535001Y-111907476D01*
X108535001Y-111907468D01*
X108539282Y-111863999D01*
X108535001Y-111820530D01*
X108535001Y-102577605D01*
X110164000Y-102577605D01*
X110289914Y-102867577D01*
X110622126Y-103033433D01*
X110980312Y-103131290D01*
X111350706Y-103157389D01*
X111719075Y-103110725D01*
X112071262Y-102993094D01*
X112306086Y-102867577D01*
X112432000Y-102577605D01*
X111298000Y-101443605D01*
X110164000Y-102577605D01*
X108535001Y-102577605D01*
X108535001Y-101316706D01*
X109404611Y-101316706D01*
X109451275Y-101685075D01*
X109568906Y-102037262D01*
X109694423Y-102272086D01*
X109984395Y-102398000D01*
X111118395Y-101264000D01*
X111477605Y-101264000D01*
X112611605Y-102398000D01*
X112901577Y-102272086D01*
X113067433Y-101939874D01*
X113165290Y-101581688D01*
X113191389Y-101211294D01*
X113144725Y-100842925D01*
X113027094Y-100490738D01*
X112901577Y-100255914D01*
X112611605Y-100130000D01*
X111477605Y-101264000D01*
X111118395Y-101264000D01*
X109984395Y-100130000D01*
X109694423Y-100255914D01*
X109528567Y-100588126D01*
X109430710Y-100946312D01*
X109404611Y-101316706D01*
X108535001Y-101316706D01*
X108535001Y-99950395D01*
X110164000Y-99950395D01*
X111298000Y-101084395D01*
X112432000Y-99950395D01*
X112306086Y-99660423D01*
X111973874Y-99494567D01*
X111615688Y-99396710D01*
X111245294Y-99370611D01*
X110876925Y-99417275D01*
X110524738Y-99534906D01*
X110289914Y-99660423D01*
X110164000Y-99950395D01*
X108535001Y-99950395D01*
X108535001Y-99103721D01*
X115213000Y-99103721D01*
X115213000Y-99524279D01*
X115295047Y-99936756D01*
X115455988Y-100325302D01*
X115689637Y-100674983D01*
X115987017Y-100972363D01*
X116336698Y-101206012D01*
X116725244Y-101366953D01*
X117137721Y-101449000D01*
X117558279Y-101449000D01*
X117970756Y-101366953D01*
X118359302Y-101206012D01*
X118550370Y-101078344D01*
X121413000Y-101078344D01*
X121413000Y-101449656D01*
X121485439Y-101813834D01*
X121627534Y-102156882D01*
X121833825Y-102465618D01*
X122096382Y-102728175D01*
X122405118Y-102934466D01*
X122748166Y-103076561D01*
X123112344Y-103149000D01*
X123483656Y-103149000D01*
X123847834Y-103076561D01*
X124190882Y-102934466D01*
X124499618Y-102728175D01*
X124762175Y-102465618D01*
X124968466Y-102156882D01*
X125110561Y-101813834D01*
X125183000Y-101449656D01*
X125183000Y-101078344D01*
X125110561Y-100714166D01*
X124968466Y-100371118D01*
X124762175Y-100062382D01*
X124499618Y-99799825D01*
X124190882Y-99593534D01*
X123847834Y-99451439D01*
X123483656Y-99379000D01*
X123112344Y-99379000D01*
X122748166Y-99451439D01*
X122405118Y-99593534D01*
X122096382Y-99799825D01*
X121833825Y-100062382D01*
X121627534Y-100371118D01*
X121485439Y-100714166D01*
X121413000Y-101078344D01*
X118550370Y-101078344D01*
X118708983Y-100972363D01*
X119006363Y-100674983D01*
X119240012Y-100325302D01*
X119400953Y-99936756D01*
X119483000Y-99524279D01*
X119483000Y-99103721D01*
X119400953Y-98691244D01*
X119240012Y-98302698D01*
X119006363Y-97953017D01*
X118708983Y-97655637D01*
X118359302Y-97421988D01*
X117970756Y-97261047D01*
X117558279Y-97179000D01*
X117137721Y-97179000D01*
X116725244Y-97261047D01*
X116336698Y-97421988D01*
X115987017Y-97655637D01*
X115689637Y-97953017D01*
X115455988Y-98302698D01*
X115295047Y-98691244D01*
X115213000Y-99103721D01*
X108535001Y-99103721D01*
X108535001Y-96858000D01*
X110529928Y-96858000D01*
X110542188Y-96982482D01*
X110578498Y-97102180D01*
X110637463Y-97212494D01*
X110716815Y-97309185D01*
X110813506Y-97388537D01*
X110923820Y-97447502D01*
X111043518Y-97483812D01*
X111168000Y-97496072D01*
X111982250Y-97493000D01*
X112141000Y-97334250D01*
X112141000Y-95885000D01*
X112395000Y-95885000D01*
X112395000Y-97334250D01*
X112553750Y-97493000D01*
X113368000Y-97496072D01*
X113492482Y-97483812D01*
X113612180Y-97447502D01*
X113722494Y-97388537D01*
X113819185Y-97309185D01*
X113898537Y-97212494D01*
X113957502Y-97102180D01*
X113993812Y-96982482D01*
X114006072Y-96858000D01*
X114003000Y-96043750D01*
X113844250Y-95885000D01*
X112395000Y-95885000D01*
X112141000Y-95885000D01*
X110691750Y-95885000D01*
X110533000Y-96043750D01*
X110529928Y-96858000D01*
X108535001Y-96858000D01*
X108535001Y-94658000D01*
X110529928Y-94658000D01*
X110533000Y-95472250D01*
X110691750Y-95631000D01*
X112141000Y-95631000D01*
X112141000Y-94181750D01*
X112395000Y-94181750D01*
X112395000Y-95631000D01*
X113844250Y-95631000D01*
X113888133Y-95587117D01*
X120693000Y-95587117D01*
X120693000Y-95928883D01*
X120759675Y-96264081D01*
X120890463Y-96579831D01*
X121080337Y-96863998D01*
X121322002Y-97105663D01*
X121606169Y-97295537D01*
X121921919Y-97426325D01*
X122257117Y-97493000D01*
X122598883Y-97493000D01*
X122934081Y-97426325D01*
X123249831Y-97295537D01*
X123533998Y-97105663D01*
X123775663Y-96863998D01*
X123965537Y-96579831D01*
X124096325Y-96264081D01*
X124163000Y-95928883D01*
X124163000Y-95587117D01*
X124096325Y-95251919D01*
X123965537Y-94936169D01*
X123775663Y-94652002D01*
X123533998Y-94410337D01*
X123249831Y-94220463D01*
X122934081Y-94089675D01*
X122598883Y-94023000D01*
X122257117Y-94023000D01*
X121921919Y-94089675D01*
X121606169Y-94220463D01*
X121322002Y-94410337D01*
X121080337Y-94652002D01*
X120890463Y-94936169D01*
X120759675Y-95251919D01*
X120693000Y-95587117D01*
X113888133Y-95587117D01*
X114003000Y-95472250D01*
X114006072Y-94658000D01*
X113993812Y-94533518D01*
X113957502Y-94413820D01*
X113898537Y-94303506D01*
X113819185Y-94206815D01*
X113722494Y-94127463D01*
X113612180Y-94068498D01*
X113492482Y-94032188D01*
X113368000Y-94019928D01*
X112553750Y-94023000D01*
X112395000Y-94181750D01*
X112141000Y-94181750D01*
X111982250Y-94023000D01*
X111168000Y-94019928D01*
X111043518Y-94032188D01*
X110923820Y-94068498D01*
X110813506Y-94127463D01*
X110716815Y-94206815D01*
X110637463Y-94303506D01*
X110578498Y-94413820D01*
X110542188Y-94533518D01*
X110529928Y-94658000D01*
X108535001Y-94658000D01*
X108535001Y-89316521D01*
X114918000Y-89316521D01*
X114918000Y-89880478D01*
X114934785Y-90050899D01*
X115001115Y-90269559D01*
X115108829Y-90471078D01*
X115253788Y-90647712D01*
X115430421Y-90792671D01*
X115631940Y-90900385D01*
X115850600Y-90966715D01*
X116078000Y-90989112D01*
X116305399Y-90966715D01*
X116524059Y-90900385D01*
X116713000Y-90799394D01*
X116901940Y-90900385D01*
X117120600Y-90966715D01*
X117348000Y-90989112D01*
X117575399Y-90966715D01*
X117784098Y-90903407D01*
X117848820Y-90938002D01*
X117968518Y-90974312D01*
X118093000Y-90986572D01*
X119143000Y-90986572D01*
X119267482Y-90974312D01*
X119387180Y-90938002D01*
X119497494Y-90879037D01*
X119594185Y-90799685D01*
X119673537Y-90702994D01*
X119732502Y-90592680D01*
X119768812Y-90472982D01*
X119781072Y-90348500D01*
X119781072Y-88848500D01*
X119768812Y-88724018D01*
X119732502Y-88604320D01*
X119673537Y-88494006D01*
X119594185Y-88397315D01*
X119497494Y-88317963D01*
X119387180Y-88258998D01*
X119267482Y-88222688D01*
X119143000Y-88210428D01*
X118093000Y-88210428D01*
X117968518Y-88222688D01*
X117848820Y-88258998D01*
X117784098Y-88293593D01*
X117575400Y-88230285D01*
X117348000Y-88207888D01*
X117120601Y-88230285D01*
X116901941Y-88296615D01*
X116713001Y-88397606D01*
X116524060Y-88296615D01*
X116305400Y-88230285D01*
X116078000Y-88207888D01*
X115850601Y-88230285D01*
X115631941Y-88296615D01*
X115430422Y-88404329D01*
X115253789Y-88549288D01*
X115108830Y-88725921D01*
X115001115Y-88927440D01*
X114934785Y-89146100D01*
X114918000Y-89316521D01*
X108535001Y-89316521D01*
X108535001Y-88901504D01*
X108539282Y-88858035D01*
X108535001Y-88814566D01*
X108535001Y-88814558D01*
X108522196Y-88684545D01*
X108511325Y-88648708D01*
X108471590Y-88517721D01*
X108389412Y-88363976D01*
X108306533Y-88262988D01*
X108306531Y-88262986D01*
X108278818Y-88229218D01*
X108245052Y-88201507D01*
X101109500Y-81065956D01*
X101081783Y-81032183D01*
X100947025Y-80921589D01*
X100793279Y-80839411D01*
X100626456Y-80788805D01*
X100496443Y-80776000D01*
X100496435Y-80776000D01*
X100452966Y-80771719D01*
X100409497Y-80776000D01*
X88248577Y-80776000D01*
X79891702Y-72419125D01*
X128765696Y-72419125D01*
X128810144Y-72787767D01*
X128925656Y-73140654D01*
X129107793Y-73464226D01*
X129349558Y-73746048D01*
X129641656Y-73975288D01*
X129972865Y-74143138D01*
X130330456Y-74243148D01*
X130700686Y-74271473D01*
X130976952Y-74238163D01*
X132134052Y-73981640D01*
X132398511Y-73895073D01*
X132722083Y-73712936D01*
X133003905Y-73471171D01*
X133233145Y-73179073D01*
X133400995Y-72847864D01*
X133501005Y-72490273D01*
X133529330Y-72120043D01*
X133484882Y-71751401D01*
X133369370Y-71398514D01*
X133187233Y-71074942D01*
X132945468Y-70793120D01*
X132653370Y-70563880D01*
X132322161Y-70396030D01*
X131964570Y-70296020D01*
X131594339Y-70267695D01*
X131318073Y-70301005D01*
X130160974Y-70557528D01*
X129896515Y-70644095D01*
X129572943Y-70826232D01*
X129291121Y-71067997D01*
X129061881Y-71360095D01*
X128894031Y-71691304D01*
X128794021Y-72048895D01*
X128765696Y-72419125D01*
X79891702Y-72419125D01*
X77943242Y-70470665D01*
X84671000Y-70470665D01*
X84671000Y-70753335D01*
X84726147Y-71030574D01*
X84834320Y-71291727D01*
X84991363Y-71526759D01*
X85191241Y-71726637D01*
X85426273Y-71883680D01*
X85687426Y-71991853D01*
X85964665Y-72047000D01*
X86247335Y-72047000D01*
X86524574Y-71991853D01*
X86785727Y-71883680D01*
X87020759Y-71726637D01*
X87220637Y-71526759D01*
X87376000Y-71294241D01*
X87531363Y-71526759D01*
X87731241Y-71726637D01*
X87966273Y-71883680D01*
X88227426Y-71991853D01*
X88504665Y-72047000D01*
X88787335Y-72047000D01*
X89064574Y-71991853D01*
X89325727Y-71883680D01*
X89560759Y-71726637D01*
X89760637Y-71526759D01*
X89917680Y-71291727D01*
X90025853Y-71030574D01*
X90081000Y-70753335D01*
X90081000Y-70470665D01*
X90025853Y-70193426D01*
X89917680Y-69932273D01*
X89760637Y-69697241D01*
X89560759Y-69497363D01*
X89325727Y-69340320D01*
X89064574Y-69232147D01*
X88787335Y-69177000D01*
X88504665Y-69177000D01*
X88227426Y-69232147D01*
X87966273Y-69340320D01*
X87731241Y-69497363D01*
X87531363Y-69697241D01*
X87376000Y-69929759D01*
X87220637Y-69697241D01*
X87020759Y-69497363D01*
X86785727Y-69340320D01*
X86524574Y-69232147D01*
X86247335Y-69177000D01*
X85964665Y-69177000D01*
X85687426Y-69232147D01*
X85426273Y-69340320D01*
X85191241Y-69497363D01*
X84991363Y-69697241D01*
X84834320Y-69932273D01*
X84726147Y-70193426D01*
X84671000Y-70470665D01*
X77943242Y-70470665D01*
X76575490Y-69102914D01*
X76575490Y-62850665D01*
X84671000Y-62850665D01*
X84671000Y-63133335D01*
X84726147Y-63410574D01*
X84834320Y-63671727D01*
X84991363Y-63906759D01*
X85191241Y-64106637D01*
X85426273Y-64263680D01*
X85687426Y-64371853D01*
X85964665Y-64427000D01*
X86247335Y-64427000D01*
X86524574Y-64371853D01*
X86785727Y-64263680D01*
X87020759Y-64106637D01*
X87219357Y-63908039D01*
X87220188Y-63916482D01*
X87256498Y-64036180D01*
X87315463Y-64146494D01*
X87394815Y-64243185D01*
X87491506Y-64322537D01*
X87601820Y-64381502D01*
X87721518Y-64417812D01*
X87846000Y-64430072D01*
X89446000Y-64430072D01*
X89570482Y-64417812D01*
X89690180Y-64381502D01*
X89800494Y-64322537D01*
X89897185Y-64243185D01*
X89976537Y-64146494D01*
X90035502Y-64036180D01*
X90071812Y-63916482D01*
X90084072Y-63792000D01*
X90084072Y-62192000D01*
X90071812Y-62067518D01*
X90035502Y-61947820D01*
X89976537Y-61837506D01*
X89897185Y-61740815D01*
X89800494Y-61661463D01*
X89690180Y-61602498D01*
X89570482Y-61566188D01*
X89446000Y-61553928D01*
X87846000Y-61553928D01*
X87721518Y-61566188D01*
X87601820Y-61602498D01*
X87491506Y-61661463D01*
X87394815Y-61740815D01*
X87315463Y-61837506D01*
X87256498Y-61947820D01*
X87220188Y-62067518D01*
X87219357Y-62075961D01*
X87020759Y-61877363D01*
X86785727Y-61720320D01*
X86524574Y-61612147D01*
X86247335Y-61557000D01*
X85964665Y-61557000D01*
X85687426Y-61612147D01*
X85426273Y-61720320D01*
X85191241Y-61877363D01*
X84991363Y-62077241D01*
X84834320Y-62312273D01*
X84726147Y-62573426D01*
X84671000Y-62850665D01*
X76575490Y-62850665D01*
X76575490Y-59967508D01*
X76579771Y-59924039D01*
X76575490Y-59880570D01*
X76575490Y-59880562D01*
X76562685Y-59750549D01*
X76512079Y-59583726D01*
X76429901Y-59429980D01*
X76347022Y-59328992D01*
X76347020Y-59328990D01*
X76319307Y-59295222D01*
X76285540Y-59267510D01*
X74788369Y-57770339D01*
X74824100Y-57706862D01*
X74939612Y-57353975D01*
X74984060Y-56985333D01*
X74955735Y-56615103D01*
X74855725Y-56257512D01*
X74687875Y-55926303D01*
X74458635Y-55634205D01*
X74176813Y-55392440D01*
X73853241Y-55210303D01*
X73588782Y-55123736D01*
X72431682Y-54867213D01*
X72155416Y-54833903D01*
X71785186Y-54862228D01*
X71427595Y-54962238D01*
X71096386Y-55130088D01*
X70804288Y-55359328D01*
X70562523Y-55641150D01*
X70380386Y-55964722D01*
X70264874Y-56317609D01*
X70220426Y-56686251D01*
X69752911Y-56686251D01*
X69752911Y-51726667D01*
X71319940Y-51726667D01*
X71348265Y-52096897D01*
X71448275Y-52454488D01*
X71616125Y-52785697D01*
X71845365Y-53077795D01*
X72127187Y-53319560D01*
X72450759Y-53501697D01*
X72715218Y-53588264D01*
X73872317Y-53844787D01*
X74148583Y-53878097D01*
X74518814Y-53849772D01*
X74876405Y-53749762D01*
X75207614Y-53581912D01*
X75499712Y-53352672D01*
X75741477Y-53070850D01*
X75923614Y-52747278D01*
X76039126Y-52394391D01*
X76083574Y-52025749D01*
X76055249Y-51655519D01*
X75955239Y-51297928D01*
X75787389Y-50966719D01*
X75558149Y-50674621D01*
X75276327Y-50432856D01*
X74952755Y-50250719D01*
X74688296Y-50164152D01*
X73531196Y-49907629D01*
X73254930Y-49874319D01*
X72884700Y-49902644D01*
X72527109Y-50002654D01*
X72195900Y-50170504D01*
X71903802Y-50399744D01*
X71662037Y-50681566D01*
X71479900Y-51005138D01*
X71364388Y-51358025D01*
X71319940Y-51726667D01*
X69752911Y-51726667D01*
X69752911Y-47650665D01*
X72215000Y-45188577D01*
X72215000Y-45274299D01*
X72322026Y-45812354D01*
X72531965Y-46319192D01*
X72836750Y-46775334D01*
X73224666Y-47163250D01*
X73680808Y-47468035D01*
X74187646Y-47677974D01*
X74725701Y-47785000D01*
X75274299Y-47785000D01*
X75812354Y-47677974D01*
X76319192Y-47468035D01*
X76775334Y-47163250D01*
X77163250Y-46775334D01*
X77468035Y-46319192D01*
X77663623Y-45847000D01*
X80665000Y-45847000D01*
X80665000Y-46347000D01*
X80725996Y-46712305D01*
X80857088Y-47058691D01*
X81053237Y-47372847D01*
X81306906Y-47642699D01*
X81608347Y-47857878D01*
X81945975Y-48010114D01*
X82130355Y-48057695D01*
X82423000Y-47941572D01*
X82423000Y-45847000D01*
X82677000Y-45847000D01*
X82677000Y-47941572D01*
X82969645Y-48057695D01*
X83154025Y-48010114D01*
X83491653Y-47857878D01*
X83793094Y-47642699D01*
X84046763Y-47372847D01*
X84242912Y-47058691D01*
X84374004Y-46712305D01*
X84435000Y-46347000D01*
X84435000Y-45847000D01*
X82677000Y-45847000D01*
X82423000Y-45847000D01*
X80665000Y-45847000D01*
X77663623Y-45847000D01*
X77677974Y-45812354D01*
X77785000Y-45274299D01*
X77785000Y-45093000D01*
X80665000Y-45093000D01*
X80665000Y-45593000D01*
X82423000Y-45593000D01*
X82423000Y-43498428D01*
X82677000Y-43498428D01*
X82677000Y-45593000D01*
X84435000Y-45593000D01*
X84435000Y-45127403D01*
X85745000Y-45127403D01*
X85745000Y-46312596D01*
X85772275Y-46589523D01*
X85880061Y-46944847D01*
X86055097Y-47272317D01*
X86290655Y-47559345D01*
X86577683Y-47794903D01*
X86905152Y-47969939D01*
X87260476Y-48077725D01*
X87630000Y-48114120D01*
X87999523Y-48077725D01*
X88354847Y-47969939D01*
X88682317Y-47794903D01*
X88969345Y-47559345D01*
X89204903Y-47272317D01*
X89379939Y-46944848D01*
X89487725Y-46589524D01*
X89515000Y-46312597D01*
X89515000Y-45127403D01*
X89487725Y-44850476D01*
X89379939Y-44495152D01*
X89204903Y-44167683D01*
X88969345Y-43880655D01*
X88682317Y-43645097D01*
X88354848Y-43470061D01*
X87999524Y-43362275D01*
X87630000Y-43325880D01*
X87260477Y-43362275D01*
X86905153Y-43470061D01*
X86577684Y-43645097D01*
X86290656Y-43880655D01*
X86055098Y-44167683D01*
X85880061Y-44495152D01*
X85772275Y-44850476D01*
X85745000Y-45127403D01*
X84435000Y-45127403D01*
X84435000Y-45093000D01*
X84374004Y-44727695D01*
X84242912Y-44381309D01*
X84046763Y-44067153D01*
X83793094Y-43797301D01*
X83491653Y-43582122D01*
X83154025Y-43429886D01*
X82969645Y-43382305D01*
X82677000Y-43498428D01*
X82423000Y-43498428D01*
X82130355Y-43382305D01*
X81945975Y-43429886D01*
X81608347Y-43582122D01*
X81306906Y-43797301D01*
X81053237Y-44067153D01*
X80857088Y-44381309D01*
X80725996Y-44727695D01*
X80665000Y-45093000D01*
X77785000Y-45093000D01*
X77785000Y-44725701D01*
X77677974Y-44187646D01*
X77468035Y-43680808D01*
X77203563Y-43284999D01*
X88658423Y-43284999D01*
X93873000Y-48499577D01*
X93873000Y-49922933D01*
X93798815Y-49983815D01*
X93719463Y-50080506D01*
X93660498Y-50190820D01*
X93624188Y-50310518D01*
X93611928Y-50435000D01*
X93611928Y-52435000D01*
X93624188Y-52559482D01*
X93660498Y-52679180D01*
X93719463Y-52789494D01*
X93798815Y-52886185D01*
X93895506Y-52965537D01*
X93983476Y-53012559D01*
X93851068Y-53173899D01*
X93717818Y-53423192D01*
X93635764Y-53693691D01*
X93608057Y-53975000D01*
X93635764Y-54256309D01*
X93717818Y-54526808D01*
X93851068Y-54776101D01*
X94030392Y-54994608D01*
X94248899Y-55173932D01*
X94381858Y-55245000D01*
X94248899Y-55316068D01*
X94030392Y-55495392D01*
X93851068Y-55713899D01*
X93717818Y-55963192D01*
X93635764Y-56233691D01*
X93608057Y-56515000D01*
X93635764Y-56796309D01*
X93717818Y-57066808D01*
X93851068Y-57316101D01*
X94030392Y-57534608D01*
X94248899Y-57713932D01*
X94381858Y-57785000D01*
X94248899Y-57856068D01*
X94030392Y-58035392D01*
X93851068Y-58253899D01*
X93717818Y-58503192D01*
X93635764Y-58773691D01*
X93608057Y-59055000D01*
X93635764Y-59336309D01*
X93717818Y-59606808D01*
X93851068Y-59856101D01*
X94030392Y-60074608D01*
X94248899Y-60253932D01*
X94381858Y-60325000D01*
X94248899Y-60396068D01*
X94030392Y-60575392D01*
X93851068Y-60793899D01*
X93717818Y-61043192D01*
X93635764Y-61313691D01*
X93608057Y-61595000D01*
X93635764Y-61876309D01*
X93717818Y-62146808D01*
X93851068Y-62396101D01*
X94030392Y-62614608D01*
X94248899Y-62793932D01*
X94381858Y-62865000D01*
X94248899Y-62936068D01*
X94030392Y-63115392D01*
X93851068Y-63333899D01*
X93717818Y-63583192D01*
X93635764Y-63853691D01*
X93608057Y-64135000D01*
X93635764Y-64416309D01*
X93717818Y-64686808D01*
X93851068Y-64936101D01*
X94030392Y-65154608D01*
X94248899Y-65333932D01*
X94381858Y-65405000D01*
X94248899Y-65476068D01*
X94030392Y-65655392D01*
X93851068Y-65873899D01*
X93717818Y-66123192D01*
X93635764Y-66393691D01*
X93608057Y-66675000D01*
X93635764Y-66956309D01*
X93717818Y-67226808D01*
X93851068Y-67476101D01*
X94030392Y-67694608D01*
X94248899Y-67873932D01*
X94381858Y-67945000D01*
X94248899Y-68016068D01*
X94030392Y-68195392D01*
X93851068Y-68413899D01*
X93717818Y-68663192D01*
X93635764Y-68933691D01*
X93608057Y-69215000D01*
X93635764Y-69496309D01*
X93717818Y-69766808D01*
X93851068Y-70016101D01*
X94030392Y-70234608D01*
X94248899Y-70413932D01*
X94498192Y-70547182D01*
X94768691Y-70629236D01*
X94979508Y-70650000D01*
X95520492Y-70650000D01*
X95731309Y-70629236D01*
X96001808Y-70547182D01*
X96251101Y-70413932D01*
X96469608Y-70234608D01*
X96648932Y-70016101D01*
X96782182Y-69766808D01*
X96843690Y-69564039D01*
X116518096Y-69564039D01*
X116528556Y-69621730D01*
X116634449Y-69883421D01*
X116789361Y-70119425D01*
X116987338Y-70320673D01*
X117220773Y-70479430D01*
X117480694Y-70589596D01*
X117757113Y-70646937D01*
X117983000Y-70494474D01*
X117983000Y-69342000D01*
X118237000Y-69342000D01*
X118237000Y-70494474D01*
X118462887Y-70646937D01*
X118739306Y-70589596D01*
X118999227Y-70479430D01*
X119232662Y-70320673D01*
X119430639Y-70119425D01*
X119585551Y-69883421D01*
X119691444Y-69621730D01*
X119701904Y-69564039D01*
X119579915Y-69342000D01*
X118237000Y-69342000D01*
X117983000Y-69342000D01*
X116640085Y-69342000D01*
X116518096Y-69564039D01*
X96843690Y-69564039D01*
X96864236Y-69496309D01*
X96891943Y-69215000D01*
X96864236Y-68933691D01*
X96782182Y-68663192D01*
X96648932Y-68413899D01*
X96469608Y-68195392D01*
X96251101Y-68016068D01*
X96118142Y-67945000D01*
X96251101Y-67873932D01*
X96469608Y-67694608D01*
X96648932Y-67476101D01*
X96782182Y-67226808D01*
X96864236Y-66956309D01*
X96891943Y-66675000D01*
X96864236Y-66393691D01*
X96782182Y-66123192D01*
X96648932Y-65873899D01*
X96469608Y-65655392D01*
X96251101Y-65476068D01*
X96118142Y-65405000D01*
X96251101Y-65333932D01*
X96469608Y-65154608D01*
X96648932Y-64936101D01*
X96782182Y-64686808D01*
X96864236Y-64416309D01*
X96891943Y-64135000D01*
X96864236Y-63853691D01*
X96782182Y-63583192D01*
X96648932Y-63333899D01*
X96469608Y-63115392D01*
X96251101Y-62936068D01*
X96118142Y-62865000D01*
X96251101Y-62793932D01*
X96469608Y-62614608D01*
X96648932Y-62396101D01*
X96782182Y-62146808D01*
X96864236Y-61876309D01*
X96891943Y-61595000D01*
X96864236Y-61313691D01*
X96782182Y-61043192D01*
X96648932Y-60793899D01*
X96469608Y-60575392D01*
X96251101Y-60396068D01*
X96118142Y-60325000D01*
X96251101Y-60253932D01*
X96469608Y-60074608D01*
X96648932Y-59856101D01*
X96782182Y-59606808D01*
X96864236Y-59336309D01*
X96891943Y-59055000D01*
X96864236Y-58773691D01*
X96782182Y-58503192D01*
X96648932Y-58253899D01*
X96469608Y-58035392D01*
X96251101Y-57856068D01*
X96118142Y-57785000D01*
X96251101Y-57713932D01*
X96469608Y-57534608D01*
X96648932Y-57316101D01*
X96782182Y-57066808D01*
X96864236Y-56796309D01*
X96891943Y-56515000D01*
X96864236Y-56233691D01*
X96782182Y-55963192D01*
X96648932Y-55713899D01*
X96469608Y-55495392D01*
X96251101Y-55316068D01*
X96118142Y-55245000D01*
X96251101Y-55173932D01*
X96469608Y-54994608D01*
X96648932Y-54776101D01*
X96782182Y-54526808D01*
X96864236Y-54256309D01*
X96891943Y-53975000D01*
X96864236Y-53693691D01*
X96782182Y-53423192D01*
X96648932Y-53173899D01*
X96516524Y-53012559D01*
X96604494Y-52965537D01*
X96701185Y-52886185D01*
X96780537Y-52789494D01*
X96839502Y-52679180D01*
X96875812Y-52559482D01*
X96888072Y-52435000D01*
X96888072Y-51514649D01*
X97615001Y-52241578D01*
X97615000Y-65711546D01*
X97582795Y-65759744D01*
X97504774Y-65948102D01*
X97465000Y-66148061D01*
X97465000Y-66351939D01*
X97504774Y-66551898D01*
X97582795Y-66740256D01*
X97696063Y-66909774D01*
X97840226Y-67053937D01*
X98009744Y-67167205D01*
X98198102Y-67245226D01*
X98398061Y-67285000D01*
X98601939Y-67285000D01*
X98801898Y-67245226D01*
X98990256Y-67167205D01*
X99159774Y-67053937D01*
X99303937Y-66909774D01*
X99417205Y-66740256D01*
X99495226Y-66551898D01*
X99535000Y-66351939D01*
X99535000Y-66148061D01*
X99495226Y-65948102D01*
X99417205Y-65759744D01*
X99385000Y-65711546D01*
X99385000Y-60414000D01*
X101431928Y-60414000D01*
X101431928Y-62014000D01*
X101444188Y-62138482D01*
X101480498Y-62258180D01*
X101539463Y-62368494D01*
X101618815Y-62465185D01*
X101715506Y-62544537D01*
X101825820Y-62603502D01*
X101945518Y-62639812D01*
X102070000Y-62652072D01*
X103670000Y-62652072D01*
X103794482Y-62639812D01*
X103914180Y-62603502D01*
X104024494Y-62544537D01*
X104121185Y-62465185D01*
X104200537Y-62368494D01*
X104259502Y-62258180D01*
X104295812Y-62138482D01*
X104296643Y-62130039D01*
X104495241Y-62328637D01*
X104730273Y-62485680D01*
X104991426Y-62593853D01*
X105268665Y-62649000D01*
X105551335Y-62649000D01*
X105828574Y-62593853D01*
X106089727Y-62485680D01*
X106324759Y-62328637D01*
X106524637Y-62128759D01*
X106681680Y-61893727D01*
X106789853Y-61632574D01*
X106845000Y-61355335D01*
X106845000Y-61072665D01*
X106789853Y-60795426D01*
X106681680Y-60534273D01*
X106524637Y-60299241D01*
X106324759Y-60099363D01*
X106089727Y-59942320D01*
X105828574Y-59834147D01*
X105551335Y-59779000D01*
X105268665Y-59779000D01*
X104991426Y-59834147D01*
X104730273Y-59942320D01*
X104495241Y-60099363D01*
X104296643Y-60297961D01*
X104295812Y-60289518D01*
X104259502Y-60169820D01*
X104200537Y-60059506D01*
X104121185Y-59962815D01*
X104024494Y-59883463D01*
X103914180Y-59824498D01*
X103794482Y-59788188D01*
X103670000Y-59775928D01*
X102070000Y-59775928D01*
X101945518Y-59788188D01*
X101825820Y-59824498D01*
X101715506Y-59883463D01*
X101618815Y-59962815D01*
X101539463Y-60059506D01*
X101480498Y-60169820D01*
X101444188Y-60289518D01*
X101431928Y-60414000D01*
X99385000Y-60414000D01*
X99385000Y-53452665D01*
X101435000Y-53452665D01*
X101435000Y-53735335D01*
X101490147Y-54012574D01*
X101598320Y-54273727D01*
X101755363Y-54508759D01*
X101955241Y-54708637D01*
X102190273Y-54865680D01*
X102451426Y-54973853D01*
X102728665Y-55029000D01*
X103011335Y-55029000D01*
X103288574Y-54973853D01*
X103549727Y-54865680D01*
X103784759Y-54708637D01*
X103984637Y-54508759D01*
X104140000Y-54276241D01*
X104295363Y-54508759D01*
X104495241Y-54708637D01*
X104730273Y-54865680D01*
X104991426Y-54973853D01*
X105268665Y-55029000D01*
X105551335Y-55029000D01*
X105828574Y-54973853D01*
X106089727Y-54865680D01*
X106324759Y-54708637D01*
X106524637Y-54508759D01*
X106681680Y-54273727D01*
X106789853Y-54012574D01*
X106845000Y-53735335D01*
X106845000Y-53452665D01*
X106789853Y-53175426D01*
X106681680Y-52914273D01*
X106524637Y-52679241D01*
X106324759Y-52479363D01*
X106089727Y-52322320D01*
X105828574Y-52214147D01*
X105551335Y-52159000D01*
X105268665Y-52159000D01*
X104991426Y-52214147D01*
X104730273Y-52322320D01*
X104495241Y-52479363D01*
X104295363Y-52679241D01*
X104140000Y-52911759D01*
X103984637Y-52679241D01*
X103784759Y-52479363D01*
X103549727Y-52322320D01*
X103288574Y-52214147D01*
X103011335Y-52159000D01*
X102728665Y-52159000D01*
X102451426Y-52214147D01*
X102190273Y-52322320D01*
X101955241Y-52479363D01*
X101755363Y-52679241D01*
X101598320Y-52914273D01*
X101490147Y-53175426D01*
X101435000Y-53452665D01*
X99385000Y-53452665D01*
X99385000Y-51918463D01*
X99389281Y-51874997D01*
X99385000Y-51831531D01*
X99385000Y-51831521D01*
X99372195Y-51701508D01*
X99321589Y-51534685D01*
X99239411Y-51380939D01*
X99128817Y-51246181D01*
X99095049Y-51218468D01*
X98003581Y-50127000D01*
X117312951Y-50127000D01*
X117108899Y-50236068D01*
X116890392Y-50415392D01*
X116711068Y-50633899D01*
X116577818Y-50883192D01*
X116495764Y-51153691D01*
X116468057Y-51435000D01*
X116495764Y-51716309D01*
X116577818Y-51986808D01*
X116711068Y-52236101D01*
X116890392Y-52454608D01*
X117108899Y-52633932D01*
X117241858Y-52705000D01*
X117108899Y-52776068D01*
X116890392Y-52955392D01*
X116711068Y-53173899D01*
X116577818Y-53423192D01*
X116495764Y-53693691D01*
X116468057Y-53975000D01*
X116495764Y-54256309D01*
X116577818Y-54526808D01*
X116711068Y-54776101D01*
X116890392Y-54994608D01*
X117108899Y-55173932D01*
X117241858Y-55245000D01*
X117108899Y-55316068D01*
X116890392Y-55495392D01*
X116711068Y-55713899D01*
X116577818Y-55963192D01*
X116495764Y-56233691D01*
X116468057Y-56515000D01*
X116495764Y-56796309D01*
X116577818Y-57066808D01*
X116711068Y-57316101D01*
X116890392Y-57534608D01*
X117108899Y-57713932D01*
X117241858Y-57785000D01*
X117108899Y-57856068D01*
X116890392Y-58035392D01*
X116711068Y-58253899D01*
X116577818Y-58503192D01*
X116495764Y-58773691D01*
X116468057Y-59055000D01*
X116495764Y-59336309D01*
X116577818Y-59606808D01*
X116711068Y-59856101D01*
X116890392Y-60074608D01*
X117108899Y-60253932D01*
X117241858Y-60325000D01*
X117108899Y-60396068D01*
X116890392Y-60575392D01*
X116711068Y-60793899D01*
X116577818Y-61043192D01*
X116495764Y-61313691D01*
X116468057Y-61595000D01*
X116495764Y-61876309D01*
X116577818Y-62146808D01*
X116711068Y-62396101D01*
X116890392Y-62614608D01*
X117108899Y-62793932D01*
X117241858Y-62865000D01*
X117108899Y-62936068D01*
X116890392Y-63115392D01*
X116711068Y-63333899D01*
X116577818Y-63583192D01*
X116495764Y-63853691D01*
X116468057Y-64135000D01*
X116495764Y-64416309D01*
X116577818Y-64686808D01*
X116711068Y-64936101D01*
X116890392Y-65154608D01*
X117108899Y-65333932D01*
X117241858Y-65405000D01*
X117108899Y-65476068D01*
X116890392Y-65655392D01*
X116711068Y-65873899D01*
X116577818Y-66123192D01*
X116495764Y-66393691D01*
X116468057Y-66675000D01*
X116495764Y-66956309D01*
X116577818Y-67226808D01*
X116711068Y-67476101D01*
X116890392Y-67694608D01*
X117108899Y-67873932D01*
X117238345Y-67943122D01*
X117220773Y-67950570D01*
X116987338Y-68109327D01*
X116789361Y-68310575D01*
X116634449Y-68546579D01*
X116528556Y-68808270D01*
X116518096Y-68865961D01*
X116640085Y-69088000D01*
X117983000Y-69088000D01*
X117983000Y-69068000D01*
X118237000Y-69068000D01*
X118237000Y-69088000D01*
X119579915Y-69088000D01*
X119701904Y-68865961D01*
X119691444Y-68808270D01*
X119585551Y-68546579D01*
X119430639Y-68310575D01*
X119232662Y-68109327D01*
X118999227Y-67950570D01*
X118981655Y-67943122D01*
X119111101Y-67873932D01*
X119329608Y-67694608D01*
X119508932Y-67476101D01*
X119517783Y-67459541D01*
X127666183Y-67459541D01*
X127710631Y-67828183D01*
X127826143Y-68181070D01*
X128008280Y-68504642D01*
X128250045Y-68786464D01*
X128542143Y-69015704D01*
X128873352Y-69183554D01*
X129230943Y-69283564D01*
X129601173Y-69311889D01*
X129877439Y-69278579D01*
X131034539Y-69022056D01*
X131298998Y-68935489D01*
X131622570Y-68753352D01*
X131904392Y-68511587D01*
X132133632Y-68219489D01*
X132301482Y-67888280D01*
X132401492Y-67530689D01*
X132429817Y-67160459D01*
X132385369Y-66791817D01*
X132269857Y-66438930D01*
X132087720Y-66115358D01*
X131845955Y-65833536D01*
X131553857Y-65604296D01*
X131222648Y-65436446D01*
X130865057Y-65336436D01*
X130494826Y-65308111D01*
X130218560Y-65341421D01*
X129061461Y-65597944D01*
X128797002Y-65684511D01*
X128473430Y-65866648D01*
X128191608Y-66108413D01*
X127962368Y-66400511D01*
X127794518Y-66731720D01*
X127694508Y-67089311D01*
X127666183Y-67459541D01*
X119517783Y-67459541D01*
X119642182Y-67226808D01*
X119724236Y-66956309D01*
X119751943Y-66675000D01*
X119724236Y-66393691D01*
X119642182Y-66123192D01*
X119508932Y-65873899D01*
X119329608Y-65655392D01*
X119111101Y-65476068D01*
X118978142Y-65405000D01*
X119111101Y-65333932D01*
X119329608Y-65154608D01*
X119508932Y-64936101D01*
X119642182Y-64686808D01*
X119724236Y-64416309D01*
X119751943Y-64135000D01*
X119724236Y-63853691D01*
X119642182Y-63583192D01*
X119508932Y-63333899D01*
X119329608Y-63115392D01*
X119111101Y-62936068D01*
X118978142Y-62865000D01*
X119111101Y-62793932D01*
X119329608Y-62614608D01*
X119423699Y-62499957D01*
X126566670Y-62499957D01*
X126611118Y-62868599D01*
X126726630Y-63221486D01*
X126908767Y-63545058D01*
X127150532Y-63826880D01*
X127442630Y-64056120D01*
X127773839Y-64223970D01*
X128131430Y-64323980D01*
X128501660Y-64352305D01*
X128777926Y-64318995D01*
X129935026Y-64062472D01*
X130199485Y-63975905D01*
X130523057Y-63793768D01*
X130804879Y-63552003D01*
X131034119Y-63259905D01*
X131201969Y-62928696D01*
X131301979Y-62571105D01*
X131330304Y-62200875D01*
X131285856Y-61832233D01*
X131170344Y-61479346D01*
X130988207Y-61155774D01*
X130746442Y-60873952D01*
X130454344Y-60644712D01*
X130123135Y-60476862D01*
X129765544Y-60376852D01*
X129395313Y-60348527D01*
X129119047Y-60381837D01*
X127961948Y-60638360D01*
X127697489Y-60724927D01*
X127373917Y-60907064D01*
X127092095Y-61148829D01*
X126862855Y-61440927D01*
X126695005Y-61772136D01*
X126594995Y-62129727D01*
X126566670Y-62499957D01*
X119423699Y-62499957D01*
X119508932Y-62396101D01*
X119642182Y-62146808D01*
X119724236Y-61876309D01*
X119751943Y-61595000D01*
X119724236Y-61313691D01*
X119642182Y-61043192D01*
X119508932Y-60793899D01*
X119329608Y-60575392D01*
X119111101Y-60396068D01*
X118978142Y-60325000D01*
X119111101Y-60253932D01*
X119329608Y-60074608D01*
X119508932Y-59856101D01*
X119642182Y-59606808D01*
X119724236Y-59336309D01*
X119751943Y-59055000D01*
X119724236Y-58773691D01*
X119642182Y-58503192D01*
X119508932Y-58253899D01*
X119329608Y-58035392D01*
X119111101Y-57856068D01*
X118978142Y-57785000D01*
X119111101Y-57713932D01*
X119329608Y-57534608D01*
X119508932Y-57316101D01*
X119549965Y-57239333D01*
X125421940Y-57239333D01*
X125466388Y-57607975D01*
X125581900Y-57960862D01*
X125764037Y-58284434D01*
X126005802Y-58566256D01*
X126297900Y-58795496D01*
X126629109Y-58963346D01*
X126986700Y-59063356D01*
X127356930Y-59091681D01*
X127633196Y-59058371D01*
X128790296Y-58801848D01*
X129054755Y-58715281D01*
X129378327Y-58533144D01*
X129660149Y-58291379D01*
X129889389Y-57999281D01*
X130057239Y-57668072D01*
X130157249Y-57310481D01*
X130185574Y-56940251D01*
X130141126Y-56571609D01*
X130025614Y-56218722D01*
X129843477Y-55895150D01*
X129601712Y-55613328D01*
X129309614Y-55384088D01*
X128978405Y-55216238D01*
X128620814Y-55116228D01*
X128250583Y-55087903D01*
X127974317Y-55121213D01*
X126817218Y-55377736D01*
X126552759Y-55464303D01*
X126229187Y-55646440D01*
X125947365Y-55888205D01*
X125718125Y-56180303D01*
X125550275Y-56511512D01*
X125450265Y-56869103D01*
X125421940Y-57239333D01*
X119549965Y-57239333D01*
X119642182Y-57066808D01*
X119724236Y-56796309D01*
X119751943Y-56515000D01*
X119724236Y-56233691D01*
X119642182Y-55963192D01*
X119508932Y-55713899D01*
X119329608Y-55495392D01*
X119111101Y-55316068D01*
X118978142Y-55245000D01*
X119111101Y-55173932D01*
X119329608Y-54994608D01*
X119508932Y-54776101D01*
X119642182Y-54526808D01*
X119724236Y-54256309D01*
X119751943Y-53975000D01*
X119724236Y-53693691D01*
X119642182Y-53423192D01*
X119508932Y-53173899D01*
X119329608Y-52955392D01*
X119111101Y-52776068D01*
X118978142Y-52705000D01*
X119111101Y-52633932D01*
X119329608Y-52454608D01*
X119473111Y-52279749D01*
X124322426Y-52279749D01*
X124366874Y-52648391D01*
X124482386Y-53001278D01*
X124664523Y-53324850D01*
X124906288Y-53606672D01*
X125198386Y-53835912D01*
X125529595Y-54003762D01*
X125887186Y-54103772D01*
X126257416Y-54132097D01*
X126533682Y-54098787D01*
X127690782Y-53842264D01*
X127955241Y-53755697D01*
X128278813Y-53573560D01*
X128560635Y-53331795D01*
X128789875Y-53039697D01*
X128957725Y-52708488D01*
X129057735Y-52350897D01*
X129086060Y-51980667D01*
X129041612Y-51612025D01*
X128926100Y-51259138D01*
X128743963Y-50935566D01*
X128502198Y-50653744D01*
X128210100Y-50424504D01*
X127878891Y-50256654D01*
X127521300Y-50156644D01*
X127151069Y-50128319D01*
X126874803Y-50161629D01*
X125717704Y-50418152D01*
X125453245Y-50504719D01*
X125129673Y-50686856D01*
X124847851Y-50928621D01*
X124618611Y-51220719D01*
X124450761Y-51551928D01*
X124350751Y-51909519D01*
X124322426Y-52279749D01*
X119473111Y-52279749D01*
X119508932Y-52236101D01*
X119642182Y-51986808D01*
X119724236Y-51716309D01*
X119751943Y-51435000D01*
X119724236Y-51153691D01*
X119642182Y-50883192D01*
X119508932Y-50633899D01*
X119329608Y-50415392D01*
X119111101Y-50236068D01*
X118907049Y-50127000D01*
X119250000Y-50127000D01*
X119274776Y-50124560D01*
X119298601Y-50117333D01*
X119320557Y-50105597D01*
X119339803Y-50089803D01*
X119355597Y-50070557D01*
X119367333Y-50048601D01*
X119374560Y-50024776D01*
X119377000Y-50000000D01*
X119377000Y-44725701D01*
X122215000Y-44725701D01*
X122215000Y-45274299D01*
X122322026Y-45812354D01*
X122531965Y-46319192D01*
X122836750Y-46775334D01*
X123224666Y-47163250D01*
X123680808Y-47468035D01*
X124187646Y-47677974D01*
X124725701Y-47785000D01*
X125274299Y-47785000D01*
X125812354Y-47677974D01*
X126319192Y-47468035D01*
X126775334Y-47163250D01*
X127163250Y-46775334D01*
X127468035Y-46319192D01*
X127677974Y-45812354D01*
X127785000Y-45274299D01*
X127785000Y-44725701D01*
X127677974Y-44187646D01*
X127468035Y-43680808D01*
X127163250Y-43224666D01*
X126775334Y-42836750D01*
X126319192Y-42531965D01*
X125812354Y-42322026D01*
X125274299Y-42215000D01*
X124725701Y-42215000D01*
X124187646Y-42322026D01*
X123680808Y-42531965D01*
X123224666Y-42836750D01*
X122836750Y-43224666D01*
X122531965Y-43680808D01*
X122322026Y-44187646D01*
X122215000Y-44725701D01*
X119377000Y-44725701D01*
X119377000Y-43250000D01*
X119374560Y-43225224D01*
X119367333Y-43201399D01*
X119355597Y-43179443D01*
X119339803Y-43160197D01*
X119320557Y-43144403D01*
X119298601Y-43132667D01*
X119274776Y-43125440D01*
X119250000Y-43123000D01*
X94000000Y-43123000D01*
X93975224Y-43125440D01*
X93951399Y-43132667D01*
X93929443Y-43144403D01*
X93910197Y-43160197D01*
X93894403Y-43179443D01*
X93882667Y-43201399D01*
X93875440Y-43225224D01*
X93873000Y-43250000D01*
X93873000Y-45996420D01*
X89681535Y-41804955D01*
X89653818Y-41771182D01*
X89519060Y-41660588D01*
X89365314Y-41578410D01*
X89198491Y-41527804D01*
X89068478Y-41514999D01*
X89068470Y-41514999D01*
X89025001Y-41510718D01*
X88981532Y-41514999D01*
X73795464Y-41514999D01*
X73751998Y-41510718D01*
X73708532Y-41514999D01*
X73708522Y-41514999D01*
X73578509Y-41527804D01*
X73411686Y-41578410D01*
X73257940Y-41660588D01*
X73257938Y-41660589D01*
X73257939Y-41660589D01*
X73156952Y-41743467D01*
X73156950Y-41743469D01*
X73123182Y-41771182D01*
X73095469Y-41804950D01*
X69469151Y-45431268D01*
X70529433Y-40660000D01*
X129469469Y-40660000D01*
X139177214Y-84340000D01*
G37*
%TD.AperFunction*%
%TD*%
M02*
