%TF.GenerationSoftware,KiCad,Pcbnew,5.1.9*%
%TF.CreationDate,2021-02-19T00:33:09+01:00*%
%TF.ProjectId,klingel,6b6c696e-6765-46c2-9e6b-696361645f70,rev?*%
%TF.SameCoordinates,Original*%
%TF.FileFunction,Paste,Top*%
%TF.FilePolarity,Positive*%
%FSLAX46Y46*%
G04 Gerber Fmt 4.6, Leading zero omitted, Abs format (unit mm)*
G04 Created by KiCad (PCBNEW 5.1.9) date 2021-02-19 00:33:09*
%MOMM*%
%LPD*%
G01*
G04 APERTURE LIST*
%ADD10R,1.500000X2.000000*%
%ADD11R,3.800000X2.000000*%
%ADD12R,2.000000X1.500000*%
%ADD13R,2.000000X3.800000*%
%ADD14R,1.500000X1.000000*%
%ADD15R,1.000000X0.700000*%
G04 APERTURE END LIST*
%TO.C,R12*%
G36*
G01*
X98049999Y-63650000D02*
X98950001Y-63650000D01*
G75*
G02*
X99200000Y-63899999I0J-249999D01*
G01*
X99200000Y-64600001D01*
G75*
G02*
X98950001Y-64850000I-249999J0D01*
G01*
X98049999Y-64850000D01*
G75*
G02*
X97800000Y-64600001I0J249999D01*
G01*
X97800000Y-63899999D01*
G75*
G02*
X98049999Y-63650000I249999J0D01*
G01*
G37*
G36*
G01*
X98049999Y-61650000D02*
X98950001Y-61650000D01*
G75*
G02*
X99200000Y-61899999I0J-249999D01*
G01*
X99200000Y-62600001D01*
G75*
G02*
X98950001Y-62850000I-249999J0D01*
G01*
X98049999Y-62850000D01*
G75*
G02*
X97800000Y-62600001I0J249999D01*
G01*
X97800000Y-61899999D01*
G75*
G02*
X98049999Y-61650000I249999J0D01*
G01*
G37*
%TD*%
%TO.C,D11*%
G36*
G01*
X64706250Y-118050000D02*
X63793750Y-118050000D01*
G75*
G02*
X63550000Y-117806250I0J243750D01*
G01*
X63550000Y-117318750D01*
G75*
G02*
X63793750Y-117075000I243750J0D01*
G01*
X64706250Y-117075000D01*
G75*
G02*
X64950000Y-117318750I0J-243750D01*
G01*
X64950000Y-117806250D01*
G75*
G02*
X64706250Y-118050000I-243750J0D01*
G01*
G37*
G36*
G01*
X64706250Y-119925000D02*
X63793750Y-119925000D01*
G75*
G02*
X63550000Y-119681250I0J243750D01*
G01*
X63550000Y-119193750D01*
G75*
G02*
X63793750Y-118950000I243750J0D01*
G01*
X64706250Y-118950000D01*
G75*
G02*
X64950000Y-119193750I0J-243750D01*
G01*
X64950000Y-119681250D01*
G75*
G02*
X64706250Y-119925000I-243750J0D01*
G01*
G37*
%TD*%
%TO.C,C5*%
G36*
G01*
X99362500Y-118764499D02*
X99362500Y-119614501D01*
G75*
G02*
X99112501Y-119864500I-249999J0D01*
G01*
X98037499Y-119864500D01*
G75*
G02*
X97787500Y-119614501I0J249999D01*
G01*
X97787500Y-118764499D01*
G75*
G02*
X98037499Y-118514500I249999J0D01*
G01*
X99112501Y-118514500D01*
G75*
G02*
X99362500Y-118764499I0J-249999D01*
G01*
G37*
G36*
G01*
X102237500Y-118764499D02*
X102237500Y-119614501D01*
G75*
G02*
X101987501Y-119864500I-249999J0D01*
G01*
X100912499Y-119864500D01*
G75*
G02*
X100662500Y-119614501I0J249999D01*
G01*
X100662500Y-118764499D01*
G75*
G02*
X100912499Y-118514500I249999J0D01*
G01*
X101987501Y-118514500D01*
G75*
G02*
X102237500Y-118764499I0J-249999D01*
G01*
G37*
%TD*%
%TO.C,C4*%
G36*
G01*
X82438000Y-60750001D02*
X82438000Y-59899999D01*
G75*
G02*
X82687999Y-59650000I249999J0D01*
G01*
X83763001Y-59650000D01*
G75*
G02*
X84013000Y-59899999I0J-249999D01*
G01*
X84013000Y-60750001D01*
G75*
G02*
X83763001Y-61000000I-249999J0D01*
G01*
X82687999Y-61000000D01*
G75*
G02*
X82438000Y-60750001I0J249999D01*
G01*
G37*
G36*
G01*
X79563000Y-60750001D02*
X79563000Y-59899999D01*
G75*
G02*
X79812999Y-59650000I249999J0D01*
G01*
X80888001Y-59650000D01*
G75*
G02*
X81138000Y-59899999I0J-249999D01*
G01*
X81138000Y-60750001D01*
G75*
G02*
X80888001Y-61000000I-249999J0D01*
G01*
X79812999Y-61000000D01*
G75*
G02*
X79563000Y-60750001I0J249999D01*
G01*
G37*
%TD*%
%TO.C,C3*%
G36*
G01*
X102469501Y-67104500D02*
X101619499Y-67104500D01*
G75*
G02*
X101369500Y-66854501I0J249999D01*
G01*
X101369500Y-65779499D01*
G75*
G02*
X101619499Y-65529500I249999J0D01*
G01*
X102469501Y-65529500D01*
G75*
G02*
X102719500Y-65779499I0J-249999D01*
G01*
X102719500Y-66854501D01*
G75*
G02*
X102469501Y-67104500I-249999J0D01*
G01*
G37*
G36*
G01*
X102469501Y-69979500D02*
X101619499Y-69979500D01*
G75*
G02*
X101369500Y-69729501I0J249999D01*
G01*
X101369500Y-68654499D01*
G75*
G02*
X101619499Y-68404500I249999J0D01*
G01*
X102469501Y-68404500D01*
G75*
G02*
X102719500Y-68654499I0J-249999D01*
G01*
X102719500Y-69729501D01*
G75*
G02*
X102469501Y-69979500I-249999J0D01*
G01*
G37*
%TD*%
%TO.C,C2*%
G36*
G01*
X89579001Y-53325000D02*
X88728999Y-53325000D01*
G75*
G02*
X88479000Y-53075001I0J249999D01*
G01*
X88479000Y-51999999D01*
G75*
G02*
X88728999Y-51750000I249999J0D01*
G01*
X89579001Y-51750000D01*
G75*
G02*
X89829000Y-51999999I0J-249999D01*
G01*
X89829000Y-53075001D01*
G75*
G02*
X89579001Y-53325000I-249999J0D01*
G01*
G37*
G36*
G01*
X89579001Y-56200000D02*
X88728999Y-56200000D01*
G75*
G02*
X88479000Y-55950001I0J249999D01*
G01*
X88479000Y-54874999D01*
G75*
G02*
X88728999Y-54625000I249999J0D01*
G01*
X89579001Y-54625000D01*
G75*
G02*
X89829000Y-54874999I0J-249999D01*
G01*
X89829000Y-55950001D01*
G75*
G02*
X89579001Y-56200000I-249999J0D01*
G01*
G37*
%TD*%
%TO.C,C1*%
G36*
G01*
X107270999Y-76151500D02*
X108121001Y-76151500D01*
G75*
G02*
X108371000Y-76401499I0J-249999D01*
G01*
X108371000Y-77476501D01*
G75*
G02*
X108121001Y-77726500I-249999J0D01*
G01*
X107270999Y-77726500D01*
G75*
G02*
X107021000Y-77476501I0J249999D01*
G01*
X107021000Y-76401499D01*
G75*
G02*
X107270999Y-76151500I249999J0D01*
G01*
G37*
G36*
G01*
X107270999Y-73276500D02*
X108121001Y-73276500D01*
G75*
G02*
X108371000Y-73526499I0J-249999D01*
G01*
X108371000Y-74601501D01*
G75*
G02*
X108121001Y-74851500I-249999J0D01*
G01*
X107270999Y-74851500D01*
G75*
G02*
X107021000Y-74601501I0J249999D01*
G01*
X107021000Y-73526499D01*
G75*
G02*
X107270999Y-73276500I249999J0D01*
G01*
G37*
%TD*%
D10*
%TO.C,U2*%
X82564000Y-64033000D03*
X77964000Y-64033000D03*
X80264000Y-64033000D03*
D11*
X80264000Y-70333000D03*
%TD*%
D12*
%TO.C,U1*%
X102210000Y-77992000D03*
X102210000Y-73392000D03*
X102210000Y-75692000D03*
D13*
X95910000Y-75692000D03*
%TD*%
%TO.C,R9*%
G36*
G01*
X87992000Y-128010499D02*
X87992000Y-128910501D01*
G75*
G02*
X87742001Y-129160500I-249999J0D01*
G01*
X87041999Y-129160500D01*
G75*
G02*
X86792000Y-128910501I0J249999D01*
G01*
X86792000Y-128010499D01*
G75*
G02*
X87041999Y-127760500I249999J0D01*
G01*
X87742001Y-127760500D01*
G75*
G02*
X87992000Y-128010499I0J-249999D01*
G01*
G37*
G36*
G01*
X89992000Y-128010499D02*
X89992000Y-128910501D01*
G75*
G02*
X89742001Y-129160500I-249999J0D01*
G01*
X89041999Y-129160500D01*
G75*
G02*
X88792000Y-128910501I0J249999D01*
G01*
X88792000Y-128010499D01*
G75*
G02*
X89041999Y-127760500I249999J0D01*
G01*
X89742001Y-127760500D01*
G75*
G02*
X89992000Y-128010499I0J-249999D01*
G01*
G37*
%TD*%
%TO.C,R8*%
G36*
G01*
X83496999Y-85871000D02*
X84397001Y-85871000D01*
G75*
G02*
X84647000Y-86120999I0J-249999D01*
G01*
X84647000Y-86821001D01*
G75*
G02*
X84397001Y-87071000I-249999J0D01*
G01*
X83496999Y-87071000D01*
G75*
G02*
X83247000Y-86821001I0J249999D01*
G01*
X83247000Y-86120999D01*
G75*
G02*
X83496999Y-85871000I249999J0D01*
G01*
G37*
G36*
G01*
X83496999Y-83871000D02*
X84397001Y-83871000D01*
G75*
G02*
X84647000Y-84120999I0J-249999D01*
G01*
X84647000Y-84821001D01*
G75*
G02*
X84397001Y-85071000I-249999J0D01*
G01*
X83496999Y-85071000D01*
G75*
G02*
X83247000Y-84821001I0J249999D01*
G01*
X83247000Y-84120999D01*
G75*
G02*
X83496999Y-83871000I249999J0D01*
G01*
G37*
%TD*%
%TO.C,R7*%
G36*
G01*
X99192501Y-85007500D02*
X98292499Y-85007500D01*
G75*
G02*
X98042500Y-84757501I0J249999D01*
G01*
X98042500Y-84057499D01*
G75*
G02*
X98292499Y-83807500I249999J0D01*
G01*
X99192501Y-83807500D01*
G75*
G02*
X99442500Y-84057499I0J-249999D01*
G01*
X99442500Y-84757501D01*
G75*
G02*
X99192501Y-85007500I-249999J0D01*
G01*
G37*
G36*
G01*
X99192501Y-87007500D02*
X98292499Y-87007500D01*
G75*
G02*
X98042500Y-86757501I0J249999D01*
G01*
X98042500Y-86057499D01*
G75*
G02*
X98292499Y-85807500I249999J0D01*
G01*
X99192501Y-85807500D01*
G75*
G02*
X99442500Y-86057499I0J-249999D01*
G01*
X99442500Y-86757501D01*
G75*
G02*
X99192501Y-87007500I-249999J0D01*
G01*
G37*
%TD*%
%TO.C,R6*%
G36*
G01*
X88538000Y-60267001D02*
X88538000Y-59366999D01*
G75*
G02*
X88787999Y-59117000I249999J0D01*
G01*
X89488001Y-59117000D01*
G75*
G02*
X89738000Y-59366999I0J-249999D01*
G01*
X89738000Y-60267001D01*
G75*
G02*
X89488001Y-60517000I-249999J0D01*
G01*
X88787999Y-60517000D01*
G75*
G02*
X88538000Y-60267001I0J249999D01*
G01*
G37*
G36*
G01*
X86538000Y-60267001D02*
X86538000Y-59366999D01*
G75*
G02*
X86787999Y-59117000I249999J0D01*
G01*
X87488001Y-59117000D01*
G75*
G02*
X87738000Y-59366999I0J-249999D01*
G01*
X87738000Y-60267001D01*
G75*
G02*
X87488001Y-60517000I-249999J0D01*
G01*
X86787999Y-60517000D01*
G75*
G02*
X86538000Y-60267001I0J249999D01*
G01*
G37*
%TD*%
%TO.C,R5*%
G36*
G01*
X104959999Y-68091000D02*
X105860001Y-68091000D01*
G75*
G02*
X106110000Y-68340999I0J-249999D01*
G01*
X106110000Y-69041001D01*
G75*
G02*
X105860001Y-69291000I-249999J0D01*
G01*
X104959999Y-69291000D01*
G75*
G02*
X104710000Y-69041001I0J249999D01*
G01*
X104710000Y-68340999D01*
G75*
G02*
X104959999Y-68091000I249999J0D01*
G01*
G37*
G36*
G01*
X104959999Y-66091000D02*
X105860001Y-66091000D01*
G75*
G02*
X106110000Y-66340999I0J-249999D01*
G01*
X106110000Y-67041001D01*
G75*
G02*
X105860001Y-67291000I-249999J0D01*
G01*
X104959999Y-67291000D01*
G75*
G02*
X104710000Y-67041001I0J249999D01*
G01*
X104710000Y-66340999D01*
G75*
G02*
X104959999Y-66091000I249999J0D01*
G01*
G37*
%TD*%
%TO.C,R4*%
G36*
G01*
X116464501Y-85007500D02*
X115564499Y-85007500D01*
G75*
G02*
X115314500Y-84757501I0J249999D01*
G01*
X115314500Y-84057499D01*
G75*
G02*
X115564499Y-83807500I249999J0D01*
G01*
X116464501Y-83807500D01*
G75*
G02*
X116714500Y-84057499I0J-249999D01*
G01*
X116714500Y-84757501D01*
G75*
G02*
X116464501Y-85007500I-249999J0D01*
G01*
G37*
G36*
G01*
X116464501Y-87007500D02*
X115564499Y-87007500D01*
G75*
G02*
X115314500Y-86757501I0J249999D01*
G01*
X115314500Y-86057499D01*
G75*
G02*
X115564499Y-85807500I249999J0D01*
G01*
X116464501Y-85807500D01*
G75*
G02*
X116714500Y-86057499I0J-249999D01*
G01*
X116714500Y-86757501D01*
G75*
G02*
X116464501Y-87007500I-249999J0D01*
G01*
G37*
%TD*%
%TO.C,R3*%
G36*
G01*
X101859501Y-85007500D02*
X100959499Y-85007500D01*
G75*
G02*
X100709500Y-84757501I0J249999D01*
G01*
X100709500Y-84057499D01*
G75*
G02*
X100959499Y-83807500I249999J0D01*
G01*
X101859501Y-83807500D01*
G75*
G02*
X102109500Y-84057499I0J-249999D01*
G01*
X102109500Y-84757501D01*
G75*
G02*
X101859501Y-85007500I-249999J0D01*
G01*
G37*
G36*
G01*
X101859501Y-87007500D02*
X100959499Y-87007500D01*
G75*
G02*
X100709500Y-86757501I0J249999D01*
G01*
X100709500Y-86057499D01*
G75*
G02*
X100959499Y-85807500I249999J0D01*
G01*
X101859501Y-85807500D01*
G75*
G02*
X102109500Y-86057499I0J-249999D01*
G01*
X102109500Y-86757501D01*
G75*
G02*
X101859501Y-87007500I-249999J0D01*
G01*
G37*
%TD*%
%TO.C,R2*%
G36*
G01*
X118231499Y-85807500D02*
X119131501Y-85807500D01*
G75*
G02*
X119381500Y-86057499I0J-249999D01*
G01*
X119381500Y-86757501D01*
G75*
G02*
X119131501Y-87007500I-249999J0D01*
G01*
X118231499Y-87007500D01*
G75*
G02*
X117981500Y-86757501I0J249999D01*
G01*
X117981500Y-86057499D01*
G75*
G02*
X118231499Y-85807500I249999J0D01*
G01*
G37*
G36*
G01*
X118231499Y-83807500D02*
X119131501Y-83807500D01*
G75*
G02*
X119381500Y-84057499I0J-249999D01*
G01*
X119381500Y-84757501D01*
G75*
G02*
X119131501Y-85007500I-249999J0D01*
G01*
X118231499Y-85007500D01*
G75*
G02*
X117981500Y-84757501I0J249999D01*
G01*
X117981500Y-84057499D01*
G75*
G02*
X118231499Y-83807500I249999J0D01*
G01*
G37*
%TD*%
%TO.C,R1*%
G36*
G01*
X81730001Y-85071000D02*
X80829999Y-85071000D01*
G75*
G02*
X80580000Y-84821001I0J249999D01*
G01*
X80580000Y-84120999D01*
G75*
G02*
X80829999Y-83871000I249999J0D01*
G01*
X81730001Y-83871000D01*
G75*
G02*
X81980000Y-84120999I0J-249999D01*
G01*
X81980000Y-84821001D01*
G75*
G02*
X81730001Y-85071000I-249999J0D01*
G01*
G37*
G36*
G01*
X81730001Y-87071000D02*
X80829999Y-87071000D01*
G75*
G02*
X80580000Y-86821001I0J249999D01*
G01*
X80580000Y-86120999D01*
G75*
G02*
X80829999Y-85871000I249999J0D01*
G01*
X81730001Y-85871000D01*
G75*
G02*
X81980000Y-86120999I0J-249999D01*
G01*
X81980000Y-86821001D01*
G75*
G02*
X81730001Y-87071000I-249999J0D01*
G01*
G37*
%TD*%
D14*
%TO.C,D10*%
X111151500Y-121717000D03*
X111151500Y-123317000D03*
X111151500Y-124917000D03*
X116051500Y-121717000D03*
X116051500Y-123317000D03*
X116051500Y-124917000D03*
%TD*%
%TO.C,D9*%
X102071000Y-121717000D03*
X102071000Y-123317000D03*
X102071000Y-124917000D03*
X106971000Y-121717000D03*
X106971000Y-123317000D03*
X106971000Y-124917000D03*
%TD*%
%TO.C,D8*%
X93054000Y-121717000D03*
X93054000Y-123317000D03*
X93054000Y-124917000D03*
X97954000Y-121717000D03*
X97954000Y-123317000D03*
X97954000Y-124917000D03*
%TD*%
%TO.C,D7*%
X84037000Y-121717000D03*
X84037000Y-123317000D03*
X84037000Y-124917000D03*
X88937000Y-121717000D03*
X88937000Y-123317000D03*
X88937000Y-124917000D03*
%TD*%
%TO.C,D5*%
G36*
G01*
X88893000Y-131647250D02*
X88893000Y-130734750D01*
G75*
G02*
X89136750Y-130491000I243750J0D01*
G01*
X89624250Y-130491000D01*
G75*
G02*
X89868000Y-130734750I0J-243750D01*
G01*
X89868000Y-131647250D01*
G75*
G02*
X89624250Y-131891000I-243750J0D01*
G01*
X89136750Y-131891000D01*
G75*
G02*
X88893000Y-131647250I0J243750D01*
G01*
G37*
G36*
G01*
X87018000Y-131647250D02*
X87018000Y-130734750D01*
G75*
G02*
X87261750Y-130491000I243750J0D01*
G01*
X87749250Y-130491000D01*
G75*
G02*
X87993000Y-130734750I0J-243750D01*
G01*
X87993000Y-131647250D01*
G75*
G02*
X87749250Y-131891000I-243750J0D01*
G01*
X87261750Y-131891000D01*
G75*
G02*
X87018000Y-131647250I0J243750D01*
G01*
G37*
%TD*%
D15*
%TO.C,D4*%
X79321000Y-56483000D03*
X79321000Y-52483000D03*
X85271000Y-52483000D03*
X85271000Y-56483000D03*
%TD*%
%TO.C,D3*%
X118545000Y-73438000D03*
X118545000Y-77438000D03*
X112595000Y-77438000D03*
X112595000Y-73438000D03*
%TD*%
M02*
