%TF.GenerationSoftware,KiCad,Pcbnew,5.1.9*%
%TF.CreationDate,2021-02-19T00:33:09+01:00*%
%TF.ProjectId,klingel,6b6c696e-6765-46c2-9e6b-696361645f70,rev?*%
%TF.SameCoordinates,Original*%
%TF.FileFunction,Legend,Top*%
%TF.FilePolarity,Positive*%
%FSLAX46Y46*%
G04 Gerber Fmt 4.6, Leading zero omitted, Abs format (unit mm)*
G04 Created by KiCad (PCBNEW 5.1.9) date 2021-02-19 00:33:09*
%MOMM*%
%LPD*%
G01*
G04 APERTURE LIST*
%ADD10C,0.150000*%
%ADD11C,0.120000*%
G04 APERTURE END LIST*
D10*
X90785714Y-130928571D02*
X91547619Y-130928571D01*
X91547619Y-131214285D02*
X90785714Y-131214285D01*
X92023809Y-131452380D02*
X92023809Y-130785714D01*
X92023809Y-130880952D02*
X92071428Y-130833333D01*
X92166666Y-130785714D01*
X92309523Y-130785714D01*
X92404761Y-130833333D01*
X92452380Y-130928571D01*
X92452380Y-131452380D01*
X92452380Y-130928571D02*
X92500000Y-130833333D01*
X92595238Y-130785714D01*
X92738095Y-130785714D01*
X92833333Y-130833333D01*
X92880952Y-130928571D01*
X92880952Y-131452380D01*
X93785714Y-130785714D02*
X93785714Y-131452380D01*
X93357142Y-130785714D02*
X93357142Y-131309523D01*
X93404761Y-131404761D01*
X93500000Y-131452380D01*
X93642857Y-131452380D01*
X93738095Y-131404761D01*
X93785714Y-131357142D01*
X94119047Y-130785714D02*
X94500000Y-130785714D01*
X94261904Y-130452380D02*
X94261904Y-131309523D01*
X94309523Y-131404761D01*
X94404761Y-131452380D01*
X94500000Y-131452380D01*
X95214285Y-131404761D02*
X95119047Y-131452380D01*
X94928571Y-131452380D01*
X94833333Y-131404761D01*
X94785714Y-131309523D01*
X94785714Y-130928571D01*
X94833333Y-130833333D01*
X94928571Y-130785714D01*
X95119047Y-130785714D01*
X95214285Y-130833333D01*
X95261904Y-130928571D01*
X95261904Y-131023809D01*
X94785714Y-131119047D01*
X62447366Y-82242434D02*
X61471070Y-82025994D01*
X62571046Y-81684550D01*
X61594750Y-81468111D01*
X62704812Y-80641151D02*
X62740995Y-80697948D01*
X62756566Y-80847725D01*
X62735952Y-80940706D01*
X62658542Y-81069870D01*
X62544948Y-81142237D01*
X62441661Y-81168114D01*
X62245393Y-81173378D01*
X62105922Y-81142458D01*
X61930268Y-81054741D01*
X61847594Y-80987638D01*
X61775227Y-80874044D01*
X61759656Y-80724266D01*
X61780270Y-80631286D01*
X61857680Y-80502121D01*
X61914477Y-80465938D01*
X64704522Y-72061061D02*
X63728226Y-71844622D01*
X64828202Y-71503178D01*
X63851906Y-71286738D01*
X63996199Y-70635874D02*
X64037426Y-70449913D01*
X64104529Y-70367239D01*
X64218123Y-70294872D01*
X64414391Y-70289608D01*
X64739823Y-70361755D01*
X64915477Y-70449472D01*
X64987845Y-70563065D01*
X65013722Y-70666353D01*
X64972495Y-70852314D01*
X64905391Y-70934988D01*
X64791798Y-71007355D01*
X64595530Y-71012619D01*
X64270098Y-70940472D01*
X64094443Y-70852755D01*
X64022076Y-70739161D01*
X63996199Y-70635874D01*
X133128551Y-60383891D02*
X134104847Y-60167452D01*
X133252231Y-60941775D01*
X134228527Y-60725335D01*
X133571957Y-61943948D02*
X133515160Y-61907764D01*
X133437750Y-61778600D01*
X133417137Y-61685619D01*
X133432707Y-61535842D01*
X133505075Y-61422248D01*
X133587748Y-61355145D01*
X133763403Y-61267428D01*
X133902874Y-61236508D01*
X134099142Y-61241771D01*
X134202429Y-61267648D01*
X134316023Y-61340016D01*
X134393433Y-61469180D01*
X134414046Y-61562160D01*
X134398476Y-61711938D01*
X134362292Y-61768735D01*
X135385707Y-70565264D02*
X136362003Y-70348825D01*
X135509387Y-71123148D01*
X136485683Y-70906708D01*
X136629976Y-71557572D02*
X136671202Y-71743533D01*
X136645325Y-71846820D01*
X136572958Y-71960414D01*
X136397303Y-72048131D01*
X136071871Y-72120278D01*
X135875604Y-72115014D01*
X135762010Y-72042647D01*
X135694906Y-71959973D01*
X135653680Y-71774012D01*
X135679557Y-71670724D01*
X135751924Y-71557130D01*
X135927578Y-71469414D01*
X136253010Y-71397267D01*
X136449278Y-71402531D01*
X136562872Y-71474898D01*
X136629976Y-71557572D01*
X82566190Y-40838428D02*
X83328095Y-40838428D01*
X82947142Y-41219380D02*
X82947142Y-40457476D01*
X86851904Y-40838428D02*
X87613809Y-40838428D01*
X96380952Y-40727380D02*
X95904761Y-40727380D01*
X95857142Y-41203571D01*
X95904761Y-41155952D01*
X96000000Y-41108333D01*
X96238095Y-41108333D01*
X96333333Y-41155952D01*
X96380952Y-41203571D01*
X96428571Y-41298809D01*
X96428571Y-41536904D01*
X96380952Y-41632142D01*
X96333333Y-41679761D01*
X96238095Y-41727380D01*
X96000000Y-41727380D01*
X95904761Y-41679761D01*
X95857142Y-41632142D01*
X97047619Y-40727380D02*
X97142857Y-40727380D01*
X97238095Y-40775000D01*
X97285714Y-40822619D01*
X97333333Y-40917857D01*
X97380952Y-41108333D01*
X97380952Y-41346428D01*
X97333333Y-41536904D01*
X97285714Y-41632142D01*
X97238095Y-41679761D01*
X97142857Y-41727380D01*
X97047619Y-41727380D01*
X96952380Y-41679761D01*
X96904761Y-41632142D01*
X96857142Y-41536904D01*
X96809523Y-41346428D01*
X96809523Y-41108333D01*
X96857142Y-40917857D01*
X96904761Y-40822619D01*
X96952380Y-40775000D01*
X97047619Y-40727380D01*
X97809523Y-41632142D02*
X97857142Y-41679761D01*
X97809523Y-41727380D01*
X97761904Y-41679761D01*
X97809523Y-41632142D01*
X97809523Y-41727380D01*
X98476190Y-40727380D02*
X98571428Y-40727380D01*
X98666666Y-40775000D01*
X98714285Y-40822619D01*
X98761904Y-40917857D01*
X98809523Y-41108333D01*
X98809523Y-41346428D01*
X98761904Y-41536904D01*
X98714285Y-41632142D01*
X98666666Y-41679761D01*
X98571428Y-41727380D01*
X98476190Y-41727380D01*
X98380952Y-41679761D01*
X98333333Y-41632142D01*
X98285714Y-41536904D01*
X98238095Y-41346428D01*
X98238095Y-41108333D01*
X98285714Y-40917857D01*
X98333333Y-40822619D01*
X98380952Y-40775000D01*
X98476190Y-40727380D01*
X99428571Y-40727380D02*
X99523809Y-40727380D01*
X99619047Y-40775000D01*
X99666666Y-40822619D01*
X99714285Y-40917857D01*
X99761904Y-41108333D01*
X99761904Y-41346428D01*
X99714285Y-41536904D01*
X99666666Y-41632142D01*
X99619047Y-41679761D01*
X99523809Y-41727380D01*
X99428571Y-41727380D01*
X99333333Y-41679761D01*
X99285714Y-41632142D01*
X99238095Y-41536904D01*
X99190476Y-41346428D01*
X99190476Y-41108333D01*
X99238095Y-40917857D01*
X99285714Y-40822619D01*
X99333333Y-40775000D01*
X99428571Y-40727380D01*
X100380952Y-40727380D02*
X100476190Y-40727380D01*
X100571428Y-40775000D01*
X100619047Y-40822619D01*
X100666666Y-40917857D01*
X100714285Y-41108333D01*
X100714285Y-41346428D01*
X100666666Y-41536904D01*
X100619047Y-41632142D01*
X100571428Y-41679761D01*
X100476190Y-41727380D01*
X100380952Y-41727380D01*
X100285714Y-41679761D01*
X100238095Y-41632142D01*
X100190476Y-41536904D01*
X100142857Y-41346428D01*
X100142857Y-41108333D01*
X100190476Y-40917857D01*
X100238095Y-40822619D01*
X100285714Y-40775000D01*
X100380952Y-40727380D01*
X101904761Y-41727380D02*
X101904761Y-41060714D01*
X101904761Y-41155952D02*
X101952380Y-41108333D01*
X102047619Y-41060714D01*
X102190476Y-41060714D01*
X102285714Y-41108333D01*
X102333333Y-41203571D01*
X102333333Y-41727380D01*
X102333333Y-41203571D02*
X102380952Y-41108333D01*
X102476190Y-41060714D01*
X102619047Y-41060714D01*
X102714285Y-41108333D01*
X102761904Y-41203571D01*
X102761904Y-41727380D01*
X103238095Y-41727380D02*
X103238095Y-41060714D01*
X103238095Y-41155952D02*
X103285714Y-41108333D01*
X103380952Y-41060714D01*
X103523809Y-41060714D01*
X103619047Y-41108333D01*
X103666666Y-41203571D01*
X103666666Y-41727380D01*
X103666666Y-41203571D02*
X103714285Y-41108333D01*
X103809523Y-41060714D01*
X103952380Y-41060714D01*
X104047619Y-41108333D01*
X104095238Y-41203571D01*
X104095238Y-41727380D01*
D11*
X75000000Y-42545000D02*
X125000000Y-42545000D01*
X75000000Y-45085000D02*
X75000000Y-41958579D01*
X125000000Y-45085000D02*
X125000000Y-41958579D01*
X125000000Y-42545000D02*
X123873496Y-43131421D01*
X125000000Y-42545000D02*
X123873496Y-41958579D01*
X75000000Y-42545000D02*
X76126504Y-43131421D01*
X75000000Y-42545000D02*
X76126504Y-41958579D01*
%TO.C,R12*%
X99235000Y-63022936D02*
X99235000Y-63477064D01*
X97765000Y-63022936D02*
X97765000Y-63477064D01*
%TO.C,D11*%
X63290000Y-117500000D02*
X63290000Y-120185000D01*
X63290000Y-120185000D02*
X65210000Y-120185000D01*
X65210000Y-120185000D02*
X65210000Y-117500000D01*
%TO.C,U3*%
X96290000Y-77555000D02*
X119610000Y-77555000D01*
X93750000Y-70655000D02*
X93750000Y-45225000D01*
X119610000Y-77555000D02*
X119610000Y-45225000D01*
X117490000Y-43095000D02*
X95880000Y-43095000D01*
D10*
G36*
X92710000Y-50800000D02*
G01*
X92710000Y-52070000D01*
X93345000Y-51435000D01*
X92710000Y-50800000D01*
G37*
X92710000Y-50800000D02*
X92710000Y-52070000D01*
X93345000Y-51435000D01*
X92710000Y-50800000D01*
D11*
X93750000Y-70655000D02*
X96290000Y-70655000D01*
X96290000Y-70655000D02*
X96290000Y-77555000D01*
X117480000Y-43095000D02*
G75*
G02*
X119610000Y-45225000I0J-2130000D01*
G01*
X93750000Y-45225000D02*
G75*
G02*
X95880000Y-43095000I2130000J0D01*
G01*
%TO.C,C5*%
X98412500Y-120124500D02*
X102497500Y-120124500D01*
X102497500Y-120124500D02*
X102497500Y-118254500D01*
X102497500Y-118254500D02*
X98412500Y-118254500D01*
%TO.C,U5*%
X89976000Y-65802000D02*
X89976000Y-64152000D01*
X89976000Y-64152000D02*
X84776000Y-64152000D01*
X84776000Y-64152000D02*
X84776000Y-69452000D01*
X84776000Y-69452000D02*
X89976000Y-69452000D01*
X89976000Y-69452000D02*
X89976000Y-67802000D01*
X89976000Y-67802000D02*
G75*
G02*
X89976000Y-65802000I0J1000000D01*
G01*
D10*
%TO.C,J4*%
X77045273Y-55219118D02*
X75962253Y-60104308D01*
X75962253Y-60104308D02*
X68175706Y-58378072D01*
X68175706Y-58378072D02*
X70341747Y-48607692D01*
X70341747Y-48607692D02*
X78128294Y-50333928D01*
X78128294Y-50333928D02*
X77045273Y-55219118D01*
D11*
%TO.C,C4*%
X83388000Y-59390000D02*
X79303000Y-59390000D01*
X79303000Y-59390000D02*
X79303000Y-61260000D01*
X79303000Y-61260000D02*
X83388000Y-61260000D01*
%TO.C,C3*%
X101109500Y-66154500D02*
X101109500Y-70239500D01*
X101109500Y-70239500D02*
X102979500Y-70239500D01*
X102979500Y-70239500D02*
X102979500Y-66154500D01*
%TO.C,C2*%
X88219000Y-52375000D02*
X88219000Y-56460000D01*
X88219000Y-56460000D02*
X90089000Y-56460000D01*
X90089000Y-56460000D02*
X90089000Y-52375000D01*
%TO.C,C1*%
X108631000Y-77101500D02*
X108631000Y-73016500D01*
X108631000Y-73016500D02*
X106761000Y-73016500D01*
X106761000Y-73016500D02*
X106761000Y-77101500D01*
%TO.C,U4*%
X101540000Y-58404000D02*
X101540000Y-60054000D01*
X101540000Y-60054000D02*
X106740000Y-60054000D01*
X106740000Y-60054000D02*
X106740000Y-54754000D01*
X106740000Y-54754000D02*
X101540000Y-54754000D01*
X101540000Y-54754000D02*
X101540000Y-56404000D01*
X101540000Y-56404000D02*
G75*
G02*
X101540000Y-58404000I0J-1000000D01*
G01*
%TO.C,U2*%
X76854000Y-69093000D02*
X78114000Y-69093000D01*
X83674000Y-69093000D02*
X82414000Y-69093000D01*
X76854000Y-65333000D02*
X76854000Y-69093000D01*
X83674000Y-63083000D02*
X83674000Y-69093000D01*
%TO.C,U1*%
X97150000Y-72282000D02*
X97150000Y-73542000D01*
X97150000Y-79102000D02*
X97150000Y-77842000D01*
X100910000Y-72282000D02*
X97150000Y-72282000D01*
X103160000Y-79102000D02*
X97150000Y-79102000D01*
%TO.C,R9*%
X88619064Y-129195500D02*
X88164936Y-129195500D01*
X88619064Y-127725500D02*
X88164936Y-127725500D01*
%TO.C,R8*%
X84682000Y-85243936D02*
X84682000Y-85698064D01*
X83212000Y-85243936D02*
X83212000Y-85698064D01*
%TO.C,R7*%
X98007500Y-85634564D02*
X98007500Y-85180436D01*
X99477500Y-85634564D02*
X99477500Y-85180436D01*
%TO.C,R6*%
X87910936Y-59082000D02*
X88365064Y-59082000D01*
X87910936Y-60552000D02*
X88365064Y-60552000D01*
%TO.C,R5*%
X106145000Y-67463936D02*
X106145000Y-67918064D01*
X104675000Y-67463936D02*
X104675000Y-67918064D01*
%TO.C,R4*%
X115279500Y-85634564D02*
X115279500Y-85180436D01*
X116749500Y-85634564D02*
X116749500Y-85180436D01*
%TO.C,R3*%
X100674500Y-85634564D02*
X100674500Y-85180436D01*
X102144500Y-85634564D02*
X102144500Y-85180436D01*
%TO.C,R2*%
X119416500Y-85180436D02*
X119416500Y-85634564D01*
X117946500Y-85180436D02*
X117946500Y-85634564D01*
%TO.C,R1*%
X80545000Y-85698064D02*
X80545000Y-85243936D01*
X82015000Y-85698064D02*
X82015000Y-85243936D01*
%TO.C,Q3*%
X119148000Y-87748500D02*
X115548000Y-87748500D01*
X115509522Y-87760022D02*
G75*
G03*
X117348000Y-92198500I1838478J-1838478D01*
G01*
X119186478Y-87760022D02*
G75*
G02*
X117348000Y-92198500I-1838478J-1838478D01*
G01*
%TO.C,Q2*%
X84350000Y-87812000D02*
X80750000Y-87812000D01*
X80711522Y-87823522D02*
G75*
G03*
X82550000Y-92262000I1838478J-1838478D01*
G01*
X84388478Y-87823522D02*
G75*
G02*
X82550000Y-92262000I-1838478J-1838478D01*
G01*
%TO.C,Q1*%
X101812500Y-87812000D02*
X98212500Y-87812000D01*
X98174022Y-87823522D02*
G75*
G03*
X100012500Y-92262000I1838478J-1838478D01*
G01*
X101850978Y-87823522D02*
G75*
G02*
X100012500Y-92262000I-1838478J-1838478D01*
G01*
%TO.C,K3*%
X98800000Y-97914000D02*
X92200000Y-97914000D01*
X107800000Y-97914000D02*
X101200000Y-97914000D01*
X107800000Y-97914000D02*
X107800000Y-117714000D01*
X107800000Y-117714000D02*
X92200000Y-117714000D01*
X92200000Y-117714000D02*
X92200000Y-97914000D01*
X95800000Y-113464000D02*
X98250000Y-113464000D01*
X104200000Y-113464000D02*
X101700000Y-113464000D01*
X93950000Y-102864000D02*
X93950000Y-105364000D01*
X99950000Y-101964000D02*
X99950000Y-101164000D01*
X105950000Y-105364000D02*
X105950000Y-102864000D01*
X99950000Y-108764000D02*
X99950000Y-110264000D01*
X99950000Y-110264000D02*
X102450000Y-114864000D01*
X96350000Y-108764000D02*
X96350000Y-101964000D01*
X99950000Y-108764000D02*
X96350000Y-108764000D01*
X99950000Y-101964000D02*
X96350000Y-101964000D01*
X105950000Y-105364000D02*
X101750000Y-105364000D01*
X98150000Y-105364000D02*
X93950000Y-105364000D01*
X98150000Y-107364000D02*
X101750000Y-103364000D01*
X98150000Y-103364000D02*
X101750000Y-103364000D01*
X101750000Y-103364000D02*
X101750000Y-107364000D01*
X101750000Y-107364000D02*
X98150000Y-107364000D01*
X98150000Y-107364000D02*
X98150000Y-103364000D01*
%TO.C,K2*%
X81350000Y-97914000D02*
X74750000Y-97914000D01*
X90350000Y-97914000D02*
X83750000Y-97914000D01*
X90350000Y-97914000D02*
X90350000Y-117714000D01*
X90350000Y-117714000D02*
X74750000Y-117714000D01*
X74750000Y-117714000D02*
X74750000Y-97914000D01*
X78350000Y-113464000D02*
X80800000Y-113464000D01*
X86750000Y-113464000D02*
X84250000Y-113464000D01*
X76500000Y-102864000D02*
X76500000Y-105364000D01*
X82500000Y-101964000D02*
X82500000Y-101164000D01*
X88500000Y-105364000D02*
X88500000Y-102864000D01*
X82500000Y-108764000D02*
X82500000Y-110264000D01*
X82500000Y-110264000D02*
X85000000Y-114864000D01*
X78900000Y-108764000D02*
X78900000Y-101964000D01*
X82500000Y-108764000D02*
X78900000Y-108764000D01*
X82500000Y-101964000D02*
X78900000Y-101964000D01*
X88500000Y-105364000D02*
X84300000Y-105364000D01*
X80700000Y-105364000D02*
X76500000Y-105364000D01*
X80700000Y-107364000D02*
X84300000Y-103364000D01*
X80700000Y-103364000D02*
X84300000Y-103364000D01*
X84300000Y-103364000D02*
X84300000Y-107364000D01*
X84300000Y-107364000D02*
X80700000Y-107364000D01*
X80700000Y-107364000D02*
X80700000Y-103364000D01*
%TO.C,K1*%
X116148000Y-97914000D02*
X109548000Y-97914000D01*
X125148000Y-97914000D02*
X118548000Y-97914000D01*
X125148000Y-97914000D02*
X125148000Y-117714000D01*
X125148000Y-117714000D02*
X109548000Y-117714000D01*
X109548000Y-117714000D02*
X109548000Y-97914000D01*
X113148000Y-113464000D02*
X115598000Y-113464000D01*
X121548000Y-113464000D02*
X119048000Y-113464000D01*
X111298000Y-102864000D02*
X111298000Y-105364000D01*
X117298000Y-101964000D02*
X117298000Y-101164000D01*
X123298000Y-105364000D02*
X123298000Y-102864000D01*
X117298000Y-108764000D02*
X117298000Y-110264000D01*
X117298000Y-110264000D02*
X119798000Y-114864000D01*
X113698000Y-108764000D02*
X113698000Y-101964000D01*
X117298000Y-108764000D02*
X113698000Y-108764000D01*
X117298000Y-101964000D02*
X113698000Y-101964000D01*
X123298000Y-105364000D02*
X119098000Y-105364000D01*
X115498000Y-105364000D02*
X111298000Y-105364000D01*
X115498000Y-107364000D02*
X119098000Y-103364000D01*
X115498000Y-103364000D02*
X119098000Y-103364000D01*
X119098000Y-103364000D02*
X119098000Y-107364000D01*
X119098000Y-107364000D02*
X115498000Y-107364000D01*
X115498000Y-107364000D02*
X115498000Y-103364000D01*
D10*
%TO.C,J6*%
X85090000Y-49707800D02*
X80086200Y-49707800D01*
X80086200Y-49707800D02*
X80086200Y-41732200D01*
X80086200Y-41732200D02*
X90093800Y-41732200D01*
X90093800Y-41732200D02*
X90093800Y-49707800D01*
X90093800Y-49707800D02*
X85090000Y-49707800D01*
%TO.C,J5*%
X74759273Y-65633118D02*
X73676253Y-70518308D01*
X73676253Y-70518308D02*
X65889706Y-68792072D01*
X65889706Y-68792072D02*
X68055747Y-59021692D01*
X68055747Y-59021692D02*
X75842294Y-60747928D01*
X75842294Y-60747928D02*
X74759273Y-65633118D01*
%TO.C,J3*%
X127787504Y-75538100D02*
X126704483Y-70652910D01*
X135574050Y-73811864D02*
X127787504Y-75538100D01*
X132308496Y-59081900D02*
X135574050Y-73811864D01*
X124521950Y-60808136D02*
X132308496Y-59081900D01*
X126704483Y-70652910D02*
X124521950Y-60808136D01*
%TO.C,J2*%
X123360727Y-55473118D02*
X122277706Y-50587928D01*
X122277706Y-50587928D02*
X130064253Y-48861692D01*
X130064253Y-48861692D02*
X132230294Y-58632072D01*
X132230294Y-58632072D02*
X124443747Y-60358308D01*
X124443747Y-60358308D02*
X123360727Y-55473118D01*
%TO.C,J1*%
X73598050Y-71222136D02*
X72515030Y-76107326D01*
X65811504Y-69495900D02*
X73598050Y-71222136D01*
X62545950Y-84225864D02*
X65811504Y-69495900D01*
X70332496Y-85952100D02*
X62545950Y-84225864D01*
X72515030Y-76107326D02*
X70332496Y-85952100D01*
D11*
%TO.C,D10*%
X109951500Y-126067000D02*
X117251500Y-126067000D01*
X109951500Y-121717000D02*
X109951500Y-120567000D01*
X109951500Y-120567000D02*
X117251500Y-120567000D01*
%TO.C,D9*%
X100871000Y-126067000D02*
X108171000Y-126067000D01*
X100871000Y-121717000D02*
X100871000Y-120567000D01*
X100871000Y-120567000D02*
X108171000Y-120567000D01*
%TO.C,D8*%
X91854000Y-126067000D02*
X99154000Y-126067000D01*
X91854000Y-121717000D02*
X91854000Y-120567000D01*
X91854000Y-120567000D02*
X99154000Y-120567000D01*
%TO.C,D7*%
X82837000Y-126067000D02*
X90137000Y-126067000D01*
X82837000Y-121717000D02*
X82837000Y-120567000D01*
X82837000Y-120567000D02*
X90137000Y-120567000D01*
%TO.C,D6*%
X97102000Y-94288000D02*
X97102000Y-97228000D01*
X97102000Y-97228000D02*
X102542000Y-97228000D01*
X102542000Y-97228000D02*
X102542000Y-94288000D01*
X102542000Y-94288000D02*
X97102000Y-94288000D01*
X96082000Y-95758000D02*
X97102000Y-95758000D01*
X103562000Y-95758000D02*
X102542000Y-95758000D01*
X98002000Y-94288000D02*
X98002000Y-97228000D01*
X98122000Y-94288000D02*
X98122000Y-97228000D01*
X97882000Y-94288000D02*
X97882000Y-97228000D01*
%TO.C,D5*%
X89443000Y-130231000D02*
X86758000Y-130231000D01*
X86758000Y-130231000D02*
X86758000Y-132151000D01*
X86758000Y-132151000D02*
X89443000Y-132151000D01*
%TO.C,D4*%
X79996000Y-56883000D02*
X79996000Y-57083000D01*
X79996000Y-57083000D02*
X85796000Y-57083000D01*
X79996000Y-52083000D02*
X79996000Y-51883000D01*
X79996000Y-51883000D02*
X84596000Y-51883000D01*
X84596000Y-51883000D02*
X84596000Y-52083000D01*
X79996000Y-55983000D02*
X79996000Y-52983000D01*
X84596000Y-52983000D02*
X84596000Y-55983000D01*
%TO.C,D3*%
X117870000Y-73038000D02*
X117870000Y-72838000D01*
X117870000Y-72838000D02*
X112070000Y-72838000D01*
X117870000Y-77838000D02*
X117870000Y-78038000D01*
X117870000Y-78038000D02*
X113270000Y-78038000D01*
X113270000Y-78038000D02*
X113270000Y-77838000D01*
X117870000Y-73938000D02*
X117870000Y-76938000D01*
X113270000Y-76938000D02*
X113270000Y-73938000D01*
%TO.C,D2*%
X79576000Y-94288000D02*
X79576000Y-97228000D01*
X79576000Y-97228000D02*
X85016000Y-97228000D01*
X85016000Y-97228000D02*
X85016000Y-94288000D01*
X85016000Y-94288000D02*
X79576000Y-94288000D01*
X78556000Y-95758000D02*
X79576000Y-95758000D01*
X86036000Y-95758000D02*
X85016000Y-95758000D01*
X80476000Y-94288000D02*
X80476000Y-97228000D01*
X80596000Y-94288000D02*
X80596000Y-97228000D01*
X80356000Y-94288000D02*
X80356000Y-97228000D01*
%TO.C,D1*%
X114628000Y-94288000D02*
X114628000Y-97228000D01*
X114628000Y-97228000D02*
X120068000Y-97228000D01*
X120068000Y-97228000D02*
X120068000Y-94288000D01*
X120068000Y-94288000D02*
X114628000Y-94288000D01*
X113608000Y-95758000D02*
X114628000Y-95758000D01*
X121088000Y-95758000D02*
X120068000Y-95758000D01*
X115528000Y-94288000D02*
X115528000Y-97228000D01*
X115648000Y-94288000D02*
X115648000Y-97228000D01*
X115408000Y-94288000D02*
X115408000Y-97228000D01*
%TO.C,R12*%
D10*
X100602380Y-63892857D02*
X100126190Y-64226190D01*
X100602380Y-64464285D02*
X99602380Y-64464285D01*
X99602380Y-64083333D01*
X99650000Y-63988095D01*
X99697619Y-63940476D01*
X99792857Y-63892857D01*
X99935714Y-63892857D01*
X100030952Y-63940476D01*
X100078571Y-63988095D01*
X100126190Y-64083333D01*
X100126190Y-64464285D01*
X100602380Y-62940476D02*
X100602380Y-63511904D01*
X100602380Y-63226190D02*
X99602380Y-63226190D01*
X99745238Y-63321428D01*
X99840476Y-63416666D01*
X99888095Y-63511904D01*
X99697619Y-62559523D02*
X99650000Y-62511904D01*
X99602380Y-62416666D01*
X99602380Y-62178571D01*
X99650000Y-62083333D01*
X99697619Y-62035714D01*
X99792857Y-61988095D01*
X99888095Y-61988095D01*
X100030952Y-62035714D01*
X100602380Y-62607142D01*
X100602380Y-61988095D01*
%TO.C,D11*%
X63052380Y-119714285D02*
X62052380Y-119714285D01*
X62052380Y-119476190D01*
X62100000Y-119333333D01*
X62195238Y-119238095D01*
X62290476Y-119190476D01*
X62480952Y-119142857D01*
X62623809Y-119142857D01*
X62814285Y-119190476D01*
X62909523Y-119238095D01*
X63004761Y-119333333D01*
X63052380Y-119476190D01*
X63052380Y-119714285D01*
X63052380Y-118190476D02*
X63052380Y-118761904D01*
X63052380Y-118476190D02*
X62052380Y-118476190D01*
X62195238Y-118571428D01*
X62290476Y-118666666D01*
X62338095Y-118761904D01*
X63052380Y-117238095D02*
X63052380Y-117809523D01*
X63052380Y-117523809D02*
X62052380Y-117523809D01*
X62195238Y-117619047D01*
X62290476Y-117714285D01*
X62338095Y-117809523D01*
%TO.C,U3*%
X116488095Y-77887380D02*
X116488095Y-78696904D01*
X116535714Y-78792142D01*
X116583333Y-78839761D01*
X116678571Y-78887380D01*
X116869047Y-78887380D01*
X116964285Y-78839761D01*
X117011904Y-78792142D01*
X117059523Y-78696904D01*
X117059523Y-77887380D01*
X117440476Y-77887380D02*
X118059523Y-77887380D01*
X117726190Y-78268333D01*
X117869047Y-78268333D01*
X117964285Y-78315952D01*
X118011904Y-78363571D01*
X118059523Y-78458809D01*
X118059523Y-78696904D01*
X118011904Y-78792142D01*
X117964285Y-78839761D01*
X117869047Y-78887380D01*
X117583333Y-78887380D01*
X117488095Y-78839761D01*
X117440476Y-78792142D01*
%TO.C,C5*%
X103401833Y-119610142D02*
X103354214Y-119657761D01*
X103211357Y-119705380D01*
X103116119Y-119705380D01*
X102973261Y-119657761D01*
X102878023Y-119562523D01*
X102830404Y-119467285D01*
X102782785Y-119276809D01*
X102782785Y-119133952D01*
X102830404Y-118943476D01*
X102878023Y-118848238D01*
X102973261Y-118753000D01*
X103116119Y-118705380D01*
X103211357Y-118705380D01*
X103354214Y-118753000D01*
X103401833Y-118800619D01*
X104306595Y-118705380D02*
X103830404Y-118705380D01*
X103782785Y-119181571D01*
X103830404Y-119133952D01*
X103925642Y-119086333D01*
X104163738Y-119086333D01*
X104258976Y-119133952D01*
X104306595Y-119181571D01*
X104354214Y-119276809D01*
X104354214Y-119514904D01*
X104306595Y-119610142D01*
X104258976Y-119657761D01*
X104163738Y-119705380D01*
X103925642Y-119705380D01*
X103830404Y-119657761D01*
X103782785Y-119610142D01*
%TO.C,U5*%
X86487095Y-72096380D02*
X86487095Y-72905904D01*
X86534714Y-73001142D01*
X86582333Y-73048761D01*
X86677571Y-73096380D01*
X86868047Y-73096380D01*
X86963285Y-73048761D01*
X87010904Y-73001142D01*
X87058523Y-72905904D01*
X87058523Y-72096380D01*
X88010904Y-72096380D02*
X87534714Y-72096380D01*
X87487095Y-72572571D01*
X87534714Y-72524952D01*
X87629952Y-72477333D01*
X87868047Y-72477333D01*
X87963285Y-72524952D01*
X88010904Y-72572571D01*
X88058523Y-72667809D01*
X88058523Y-72905904D01*
X88010904Y-73001142D01*
X87963285Y-73048761D01*
X87868047Y-73096380D01*
X87629952Y-73096380D01*
X87534714Y-73048761D01*
X87487095Y-73001142D01*
%TO.C,J4*%
X68346107Y-55826870D02*
X67369810Y-55610430D01*
X67741733Y-55692883D02*
X67715856Y-55589596D01*
X67757082Y-55403635D01*
X67824186Y-55320961D01*
X67880983Y-55284777D01*
X67984270Y-55258900D01*
X68263212Y-55320740D01*
X68345886Y-55387844D01*
X68382069Y-55444641D01*
X68407946Y-55547928D01*
X68366720Y-55733889D01*
X68299616Y-55816563D01*
X68577896Y-54561325D02*
X68603773Y-54664612D01*
X68562546Y-54850574D01*
X68495443Y-54933247D01*
X68392155Y-54959124D01*
X68020233Y-54876671D01*
X67937559Y-54809568D01*
X67911682Y-54706280D01*
X67952909Y-54520319D01*
X68020012Y-54437645D01*
X68123300Y-54411768D01*
X68216280Y-54432382D01*
X68206194Y-54917898D01*
X68758372Y-53967258D02*
X68691269Y-54049932D01*
X68587982Y-54075809D01*
X67751156Y-53890289D01*
X68871746Y-53455865D02*
X68804642Y-53538539D01*
X68701355Y-53564416D01*
X67864530Y-53378896D01*
X68582276Y-53001489D02*
X68747183Y-52257645D01*
X69222172Y-51875195D02*
X68571308Y-51730902D01*
X68245876Y-51658756D02*
X68282059Y-51715553D01*
X68338856Y-51679369D01*
X68302673Y-51622572D01*
X68245876Y-51658756D01*
X68338856Y-51679369D01*
X68674374Y-51265999D02*
X69325238Y-51410292D01*
X68767355Y-51286613D02*
X68731171Y-51229816D01*
X68705294Y-51126528D01*
X68736214Y-50987058D01*
X68803318Y-50904384D01*
X68906605Y-50878507D01*
X69417998Y-50991880D01*
%TO.C,H2*%
X124238095Y-40152380D02*
X124238095Y-39152380D01*
X124238095Y-39628571D02*
X124809523Y-39628571D01*
X124809523Y-40152380D02*
X124809523Y-39152380D01*
X125238095Y-39247619D02*
X125285714Y-39200000D01*
X125380952Y-39152380D01*
X125619047Y-39152380D01*
X125714285Y-39200000D01*
X125761904Y-39247619D01*
X125809523Y-39342857D01*
X125809523Y-39438095D01*
X125761904Y-39580952D01*
X125190476Y-40152380D01*
X125809523Y-40152380D01*
%TO.C,H1*%
X74238095Y-40152380D02*
X74238095Y-39152380D01*
X74238095Y-39628571D02*
X74809523Y-39628571D01*
X74809523Y-40152380D02*
X74809523Y-39152380D01*
X75809523Y-40152380D02*
X75238095Y-40152380D01*
X75523809Y-40152380D02*
X75523809Y-39152380D01*
X75428571Y-39295238D01*
X75333333Y-39390476D01*
X75238095Y-39438095D01*
%TO.C,C4*%
X78001833Y-60745642D02*
X77954214Y-60793261D01*
X77811357Y-60840880D01*
X77716119Y-60840880D01*
X77573261Y-60793261D01*
X77478023Y-60698023D01*
X77430404Y-60602785D01*
X77382785Y-60412309D01*
X77382785Y-60269452D01*
X77430404Y-60078976D01*
X77478023Y-59983738D01*
X77573261Y-59888500D01*
X77716119Y-59840880D01*
X77811357Y-59840880D01*
X77954214Y-59888500D01*
X78001833Y-59936119D01*
X78858976Y-60174214D02*
X78858976Y-60840880D01*
X78620880Y-59793261D02*
X78382785Y-60507547D01*
X79001833Y-60507547D01*
%TO.C,C3*%
X100651642Y-67921166D02*
X100699261Y-67968785D01*
X100746880Y-68111642D01*
X100746880Y-68206880D01*
X100699261Y-68349738D01*
X100604023Y-68444976D01*
X100508785Y-68492595D01*
X100318309Y-68540214D01*
X100175452Y-68540214D01*
X99984976Y-68492595D01*
X99889738Y-68444976D01*
X99794500Y-68349738D01*
X99746880Y-68206880D01*
X99746880Y-68111642D01*
X99794500Y-67968785D01*
X99842119Y-67921166D01*
X99746880Y-67587833D02*
X99746880Y-66968785D01*
X100127833Y-67302119D01*
X100127833Y-67159261D01*
X100175452Y-67064023D01*
X100223071Y-67016404D01*
X100318309Y-66968785D01*
X100556404Y-66968785D01*
X100651642Y-67016404D01*
X100699261Y-67064023D01*
X100746880Y-67159261D01*
X100746880Y-67444976D01*
X100699261Y-67540214D01*
X100651642Y-67587833D01*
%TO.C,C2*%
X87761142Y-54141666D02*
X87808761Y-54189285D01*
X87856380Y-54332142D01*
X87856380Y-54427380D01*
X87808761Y-54570238D01*
X87713523Y-54665476D01*
X87618285Y-54713095D01*
X87427809Y-54760714D01*
X87284952Y-54760714D01*
X87094476Y-54713095D01*
X86999238Y-54665476D01*
X86904000Y-54570238D01*
X86856380Y-54427380D01*
X86856380Y-54332142D01*
X86904000Y-54189285D01*
X86951619Y-54141666D01*
X86951619Y-53760714D02*
X86904000Y-53713095D01*
X86856380Y-53617857D01*
X86856380Y-53379761D01*
X86904000Y-53284523D01*
X86951619Y-53236904D01*
X87046857Y-53189285D01*
X87142095Y-53189285D01*
X87284952Y-53236904D01*
X87856380Y-53808333D01*
X87856380Y-53189285D01*
%TO.C,C1*%
X109803142Y-75668166D02*
X109850761Y-75715785D01*
X109898380Y-75858642D01*
X109898380Y-75953880D01*
X109850761Y-76096738D01*
X109755523Y-76191976D01*
X109660285Y-76239595D01*
X109469809Y-76287214D01*
X109326952Y-76287214D01*
X109136476Y-76239595D01*
X109041238Y-76191976D01*
X108946000Y-76096738D01*
X108898380Y-75953880D01*
X108898380Y-75858642D01*
X108946000Y-75715785D01*
X108993619Y-75668166D01*
X109898380Y-74715785D02*
X109898380Y-75287214D01*
X109898380Y-75001500D02*
X108898380Y-75001500D01*
X109041238Y-75096738D01*
X109136476Y-75191976D01*
X109184095Y-75287214D01*
%TO.C,U4*%
X99992380Y-58165904D02*
X100801904Y-58165904D01*
X100897142Y-58118285D01*
X100944761Y-58070666D01*
X100992380Y-57975428D01*
X100992380Y-57784952D01*
X100944761Y-57689714D01*
X100897142Y-57642095D01*
X100801904Y-57594476D01*
X99992380Y-57594476D01*
X100325714Y-56689714D02*
X100992380Y-56689714D01*
X99944761Y-56927809D02*
X100659047Y-57165904D01*
X100659047Y-56546857D01*
%TO.C,U2*%
X79629095Y-71969380D02*
X79629095Y-72778904D01*
X79676714Y-72874142D01*
X79724333Y-72921761D01*
X79819571Y-72969380D01*
X80010047Y-72969380D01*
X80105285Y-72921761D01*
X80152904Y-72874142D01*
X80200523Y-72778904D01*
X80200523Y-71969380D01*
X80629095Y-72064619D02*
X80676714Y-72017000D01*
X80771952Y-71969380D01*
X81010047Y-71969380D01*
X81105285Y-72017000D01*
X81152904Y-72064619D01*
X81200523Y-72159857D01*
X81200523Y-72255095D01*
X81152904Y-72397952D01*
X80581476Y-72969380D01*
X81200523Y-72969380D01*
%TO.C,U1*%
X98298095Y-79644380D02*
X98298095Y-80453904D01*
X98345714Y-80549142D01*
X98393333Y-80596761D01*
X98488571Y-80644380D01*
X98679047Y-80644380D01*
X98774285Y-80596761D01*
X98821904Y-80549142D01*
X98869523Y-80453904D01*
X98869523Y-79644380D01*
X99869523Y-80644380D02*
X99298095Y-80644380D01*
X99583809Y-80644380D02*
X99583809Y-79644380D01*
X99488571Y-79787238D01*
X99393333Y-79882476D01*
X99298095Y-79930095D01*
%TO.C,R9*%
X85304333Y-128912880D02*
X84971000Y-128436690D01*
X84732904Y-128912880D02*
X84732904Y-127912880D01*
X85113857Y-127912880D01*
X85209095Y-127960500D01*
X85256714Y-128008119D01*
X85304333Y-128103357D01*
X85304333Y-128246214D01*
X85256714Y-128341452D01*
X85209095Y-128389071D01*
X85113857Y-128436690D01*
X84732904Y-128436690D01*
X85780523Y-128912880D02*
X85971000Y-128912880D01*
X86066238Y-128865261D01*
X86113857Y-128817642D01*
X86209095Y-128674785D01*
X86256714Y-128484309D01*
X86256714Y-128103357D01*
X86209095Y-128008119D01*
X86161476Y-127960500D01*
X86066238Y-127912880D01*
X85875761Y-127912880D01*
X85780523Y-127960500D01*
X85732904Y-128008119D01*
X85685285Y-128103357D01*
X85685285Y-128341452D01*
X85732904Y-128436690D01*
X85780523Y-128484309D01*
X85875761Y-128531928D01*
X86066238Y-128531928D01*
X86161476Y-128484309D01*
X86209095Y-128436690D01*
X86256714Y-128341452D01*
%TO.C,R8*%
X86049380Y-85637666D02*
X85573190Y-85971000D01*
X86049380Y-86209095D02*
X85049380Y-86209095D01*
X85049380Y-85828142D01*
X85097000Y-85732904D01*
X85144619Y-85685285D01*
X85239857Y-85637666D01*
X85382714Y-85637666D01*
X85477952Y-85685285D01*
X85525571Y-85732904D01*
X85573190Y-85828142D01*
X85573190Y-86209095D01*
X85477952Y-85066238D02*
X85430333Y-85161476D01*
X85382714Y-85209095D01*
X85287476Y-85256714D01*
X85239857Y-85256714D01*
X85144619Y-85209095D01*
X85097000Y-85161476D01*
X85049380Y-85066238D01*
X85049380Y-84875761D01*
X85097000Y-84780523D01*
X85144619Y-84732904D01*
X85239857Y-84685285D01*
X85287476Y-84685285D01*
X85382714Y-84732904D01*
X85430333Y-84780523D01*
X85477952Y-84875761D01*
X85477952Y-85066238D01*
X85525571Y-85161476D01*
X85573190Y-85209095D01*
X85668428Y-85256714D01*
X85858904Y-85256714D01*
X85954142Y-85209095D01*
X86001761Y-85161476D01*
X86049380Y-85066238D01*
X86049380Y-84875761D01*
X86001761Y-84780523D01*
X85954142Y-84732904D01*
X85858904Y-84685285D01*
X85668428Y-84685285D01*
X85573190Y-84732904D01*
X85525571Y-84780523D01*
X85477952Y-84875761D01*
%TO.C,R7*%
X97544880Y-85574166D02*
X97068690Y-85907500D01*
X97544880Y-86145595D02*
X96544880Y-86145595D01*
X96544880Y-85764642D01*
X96592500Y-85669404D01*
X96640119Y-85621785D01*
X96735357Y-85574166D01*
X96878214Y-85574166D01*
X96973452Y-85621785D01*
X97021071Y-85669404D01*
X97068690Y-85764642D01*
X97068690Y-86145595D01*
X96544880Y-85240833D02*
X96544880Y-84574166D01*
X97544880Y-85002738D01*
%TO.C,R6*%
X87971333Y-58619380D02*
X87638000Y-58143190D01*
X87399904Y-58619380D02*
X87399904Y-57619380D01*
X87780857Y-57619380D01*
X87876095Y-57667000D01*
X87923714Y-57714619D01*
X87971333Y-57809857D01*
X87971333Y-57952714D01*
X87923714Y-58047952D01*
X87876095Y-58095571D01*
X87780857Y-58143190D01*
X87399904Y-58143190D01*
X88828476Y-57619380D02*
X88638000Y-57619380D01*
X88542761Y-57667000D01*
X88495142Y-57714619D01*
X88399904Y-57857476D01*
X88352285Y-58047952D01*
X88352285Y-58428904D01*
X88399904Y-58524142D01*
X88447523Y-58571761D01*
X88542761Y-58619380D01*
X88733238Y-58619380D01*
X88828476Y-58571761D01*
X88876095Y-58524142D01*
X88923714Y-58428904D01*
X88923714Y-58190809D01*
X88876095Y-58095571D01*
X88828476Y-58047952D01*
X88733238Y-58000333D01*
X88542761Y-58000333D01*
X88447523Y-58047952D01*
X88399904Y-58095571D01*
X88352285Y-58190809D01*
%TO.C,R5*%
X107512380Y-67857666D02*
X107036190Y-68191000D01*
X107512380Y-68429095D02*
X106512380Y-68429095D01*
X106512380Y-68048142D01*
X106560000Y-67952904D01*
X106607619Y-67905285D01*
X106702857Y-67857666D01*
X106845714Y-67857666D01*
X106940952Y-67905285D01*
X106988571Y-67952904D01*
X107036190Y-68048142D01*
X107036190Y-68429095D01*
X106512380Y-66952904D02*
X106512380Y-67429095D01*
X106988571Y-67476714D01*
X106940952Y-67429095D01*
X106893333Y-67333857D01*
X106893333Y-67095761D01*
X106940952Y-67000523D01*
X106988571Y-66952904D01*
X107083809Y-66905285D01*
X107321904Y-66905285D01*
X107417142Y-66952904D01*
X107464761Y-67000523D01*
X107512380Y-67095761D01*
X107512380Y-67333857D01*
X107464761Y-67429095D01*
X107417142Y-67476714D01*
%TO.C,R4*%
X114816880Y-85574166D02*
X114340690Y-85907500D01*
X114816880Y-86145595D02*
X113816880Y-86145595D01*
X113816880Y-85764642D01*
X113864500Y-85669404D01*
X113912119Y-85621785D01*
X114007357Y-85574166D01*
X114150214Y-85574166D01*
X114245452Y-85621785D01*
X114293071Y-85669404D01*
X114340690Y-85764642D01*
X114340690Y-86145595D01*
X114150214Y-84717023D02*
X114816880Y-84717023D01*
X113769261Y-84955119D02*
X114483547Y-85193214D01*
X114483547Y-84574166D01*
%TO.C,R3*%
X103830380Y-85574166D02*
X103354190Y-85907500D01*
X103830380Y-86145595D02*
X102830380Y-86145595D01*
X102830380Y-85764642D01*
X102878000Y-85669404D01*
X102925619Y-85621785D01*
X103020857Y-85574166D01*
X103163714Y-85574166D01*
X103258952Y-85621785D01*
X103306571Y-85669404D01*
X103354190Y-85764642D01*
X103354190Y-86145595D01*
X102830380Y-85240833D02*
X102830380Y-84621785D01*
X103211333Y-84955119D01*
X103211333Y-84812261D01*
X103258952Y-84717023D01*
X103306571Y-84669404D01*
X103401809Y-84621785D01*
X103639904Y-84621785D01*
X103735142Y-84669404D01*
X103782761Y-84717023D01*
X103830380Y-84812261D01*
X103830380Y-85097976D01*
X103782761Y-85193214D01*
X103735142Y-85240833D01*
%TO.C,R2*%
X120783880Y-85574166D02*
X120307690Y-85907500D01*
X120783880Y-86145595D02*
X119783880Y-86145595D01*
X119783880Y-85764642D01*
X119831500Y-85669404D01*
X119879119Y-85621785D01*
X119974357Y-85574166D01*
X120117214Y-85574166D01*
X120212452Y-85621785D01*
X120260071Y-85669404D01*
X120307690Y-85764642D01*
X120307690Y-86145595D01*
X119879119Y-85193214D02*
X119831500Y-85145595D01*
X119783880Y-85050357D01*
X119783880Y-84812261D01*
X119831500Y-84717023D01*
X119879119Y-84669404D01*
X119974357Y-84621785D01*
X120069595Y-84621785D01*
X120212452Y-84669404D01*
X120783880Y-85240833D01*
X120783880Y-84621785D01*
%TO.C,R1*%
X80082380Y-85637666D02*
X79606190Y-85971000D01*
X80082380Y-86209095D02*
X79082380Y-86209095D01*
X79082380Y-85828142D01*
X79130000Y-85732904D01*
X79177619Y-85685285D01*
X79272857Y-85637666D01*
X79415714Y-85637666D01*
X79510952Y-85685285D01*
X79558571Y-85732904D01*
X79606190Y-85828142D01*
X79606190Y-86209095D01*
X80082380Y-84685285D02*
X80082380Y-85256714D01*
X80082380Y-84971000D02*
X79082380Y-84971000D01*
X79225238Y-85066238D01*
X79320476Y-85161476D01*
X79368095Y-85256714D01*
%TO.C,Q3*%
X113442761Y-90209619D02*
X113347523Y-90162000D01*
X113252285Y-90066761D01*
X113109428Y-89923904D01*
X113014190Y-89876285D01*
X112918952Y-89876285D01*
X112966571Y-90114380D02*
X112871333Y-90066761D01*
X112776095Y-89971523D01*
X112728476Y-89781047D01*
X112728476Y-89447714D01*
X112776095Y-89257238D01*
X112871333Y-89162000D01*
X112966571Y-89114380D01*
X113157047Y-89114380D01*
X113252285Y-89162000D01*
X113347523Y-89257238D01*
X113395142Y-89447714D01*
X113395142Y-89781047D01*
X113347523Y-89971523D01*
X113252285Y-90066761D01*
X113157047Y-90114380D01*
X112966571Y-90114380D01*
X113728476Y-89114380D02*
X114347523Y-89114380D01*
X114014190Y-89495333D01*
X114157047Y-89495333D01*
X114252285Y-89542952D01*
X114299904Y-89590571D01*
X114347523Y-89685809D01*
X114347523Y-89923904D01*
X114299904Y-90019142D01*
X114252285Y-90066761D01*
X114157047Y-90114380D01*
X113871333Y-90114380D01*
X113776095Y-90066761D01*
X113728476Y-90019142D01*
%TO.C,Q2*%
X78644761Y-90400119D02*
X78549523Y-90352500D01*
X78454285Y-90257261D01*
X78311428Y-90114404D01*
X78216190Y-90066785D01*
X78120952Y-90066785D01*
X78168571Y-90304880D02*
X78073333Y-90257261D01*
X77978095Y-90162023D01*
X77930476Y-89971547D01*
X77930476Y-89638214D01*
X77978095Y-89447738D01*
X78073333Y-89352500D01*
X78168571Y-89304880D01*
X78359047Y-89304880D01*
X78454285Y-89352500D01*
X78549523Y-89447738D01*
X78597142Y-89638214D01*
X78597142Y-89971547D01*
X78549523Y-90162023D01*
X78454285Y-90257261D01*
X78359047Y-90304880D01*
X78168571Y-90304880D01*
X78978095Y-89400119D02*
X79025714Y-89352500D01*
X79120952Y-89304880D01*
X79359047Y-89304880D01*
X79454285Y-89352500D01*
X79501904Y-89400119D01*
X79549523Y-89495357D01*
X79549523Y-89590595D01*
X79501904Y-89733452D01*
X78930476Y-90304880D01*
X79549523Y-90304880D01*
%TO.C,Q1*%
X96234261Y-90336619D02*
X96139023Y-90289000D01*
X96043785Y-90193761D01*
X95900928Y-90050904D01*
X95805690Y-90003285D01*
X95710452Y-90003285D01*
X95758071Y-90241380D02*
X95662833Y-90193761D01*
X95567595Y-90098523D01*
X95519976Y-89908047D01*
X95519976Y-89574714D01*
X95567595Y-89384238D01*
X95662833Y-89289000D01*
X95758071Y-89241380D01*
X95948547Y-89241380D01*
X96043785Y-89289000D01*
X96139023Y-89384238D01*
X96186642Y-89574714D01*
X96186642Y-89908047D01*
X96139023Y-90098523D01*
X96043785Y-90193761D01*
X95948547Y-90241380D01*
X95758071Y-90241380D01*
X97139023Y-90241380D02*
X96567595Y-90241380D01*
X96853309Y-90241380D02*
X96853309Y-89241380D01*
X96758071Y-89384238D01*
X96662833Y-89479476D01*
X96567595Y-89527095D01*
%TO.C,K3*%
X91252380Y-108152095D02*
X90252380Y-108152095D01*
X91252380Y-107580666D02*
X90680952Y-108009238D01*
X90252380Y-107580666D02*
X90823809Y-108152095D01*
X90252380Y-107247333D02*
X90252380Y-106628285D01*
X90633333Y-106961619D01*
X90633333Y-106818761D01*
X90680952Y-106723523D01*
X90728571Y-106675904D01*
X90823809Y-106628285D01*
X91061904Y-106628285D01*
X91157142Y-106675904D01*
X91204761Y-106723523D01*
X91252380Y-106818761D01*
X91252380Y-107104476D01*
X91204761Y-107199714D01*
X91157142Y-107247333D01*
%TO.C,K2*%
X73802380Y-108152095D02*
X72802380Y-108152095D01*
X73802380Y-107580666D02*
X73230952Y-108009238D01*
X72802380Y-107580666D02*
X73373809Y-108152095D01*
X72897619Y-107199714D02*
X72850000Y-107152095D01*
X72802380Y-107056857D01*
X72802380Y-106818761D01*
X72850000Y-106723523D01*
X72897619Y-106675904D01*
X72992857Y-106628285D01*
X73088095Y-106628285D01*
X73230952Y-106675904D01*
X73802380Y-107247333D01*
X73802380Y-106628285D01*
%TO.C,K1*%
X108600380Y-108152095D02*
X107600380Y-108152095D01*
X108600380Y-107580666D02*
X108028952Y-108009238D01*
X107600380Y-107580666D02*
X108171809Y-108152095D01*
X108600380Y-106628285D02*
X108600380Y-107199714D01*
X108600380Y-106914000D02*
X107600380Y-106914000D01*
X107743238Y-107009238D01*
X107838476Y-107104476D01*
X107886095Y-107199714D01*
%TO.C,J6*%
X84899523Y-40346380D02*
X84423333Y-40346380D01*
X84375714Y-40822571D01*
X84423333Y-40774952D01*
X84518571Y-40727333D01*
X84756666Y-40727333D01*
X84851904Y-40774952D01*
X84899523Y-40822571D01*
X84947142Y-40917809D01*
X84947142Y-41155904D01*
X84899523Y-41251142D01*
X84851904Y-41298761D01*
X84756666Y-41346380D01*
X84518571Y-41346380D01*
X84423333Y-41298761D01*
X84375714Y-41251142D01*
X85232857Y-40346380D02*
X85566190Y-41346380D01*
X85899523Y-40346380D01*
%TO.C,J5*%
X65951887Y-66729018D02*
X64975591Y-66512578D01*
X65347513Y-66595031D02*
X65321636Y-66491744D01*
X65362863Y-66305783D01*
X65429966Y-66223109D01*
X65486763Y-66186925D01*
X65590050Y-66161048D01*
X65868992Y-66222888D01*
X65951666Y-66289992D01*
X65987850Y-66346789D01*
X66013727Y-66450076D01*
X65972500Y-66636037D01*
X65905396Y-66718711D01*
X66183676Y-65463473D02*
X66209553Y-65566760D01*
X66168326Y-65752722D01*
X66101223Y-65835395D01*
X65997936Y-65861272D01*
X65626013Y-65778819D01*
X65543339Y-65711716D01*
X65517462Y-65608428D01*
X65558689Y-65422467D01*
X65625792Y-65339793D01*
X65729080Y-65313916D01*
X65822060Y-65334530D01*
X65811974Y-65820046D01*
X66364153Y-64869406D02*
X66297049Y-64952080D01*
X66193762Y-64977957D01*
X65356937Y-64792437D01*
X66477526Y-64358013D02*
X66410422Y-64440687D01*
X66307135Y-64466564D01*
X65470310Y-64281044D01*
X66188057Y-63903637D02*
X66352963Y-63159793D01*
X66858872Y-62637872D02*
X66791768Y-62720546D01*
X66734971Y-62756730D01*
X66631684Y-62782607D01*
X66352742Y-62720767D01*
X66270068Y-62653663D01*
X66233885Y-62596867D01*
X66208008Y-62493579D01*
X66238928Y-62354108D01*
X66306031Y-62271435D01*
X66362828Y-62235251D01*
X66466115Y-62209374D01*
X66745057Y-62271214D01*
X66827731Y-62338317D01*
X66863915Y-62395114D01*
X66889792Y-62498402D01*
X66858872Y-62637872D01*
X66465674Y-61331322D02*
X67116538Y-61475615D01*
X66372914Y-61749735D02*
X66884307Y-61863108D01*
X66987594Y-61837231D01*
X67054698Y-61754557D01*
X67085618Y-61615086D01*
X67059741Y-61511799D01*
X67023557Y-61455002D01*
X66537820Y-61005890D02*
X66620274Y-60633968D01*
X66243308Y-60794273D02*
X67080134Y-60979792D01*
X67183421Y-60953915D01*
X67250524Y-60871241D01*
X67271138Y-60778261D01*
%TO.C,J3*%
X133864454Y-64317802D02*
X134515318Y-64173509D01*
X134329357Y-64214736D02*
X134432644Y-64240613D01*
X134489441Y-64276796D01*
X134556545Y-64359470D01*
X134577158Y-64452451D01*
X134127384Y-65283791D02*
X134060281Y-65201118D01*
X134019054Y-65015156D01*
X134044931Y-64911869D01*
X134127605Y-64844766D01*
X134499527Y-64762312D01*
X134602814Y-64788189D01*
X134669918Y-64870863D01*
X134711145Y-65056824D01*
X134685268Y-65160112D01*
X134602594Y-65227215D01*
X134509613Y-65247829D01*
X134313566Y-64803539D01*
X134214880Y-65898472D02*
X134240757Y-65795185D01*
X134323431Y-65728081D01*
X135160256Y-65542561D01*
X134390093Y-66688807D02*
X134901486Y-66575434D01*
X134984160Y-66508330D01*
X135010037Y-66405043D01*
X134968811Y-66219082D01*
X134901707Y-66136408D01*
X134436584Y-66678500D02*
X134369480Y-66595826D01*
X134317947Y-66363375D01*
X134343824Y-66260087D01*
X134426498Y-66192984D01*
X134519478Y-66172371D01*
X134622765Y-66198248D01*
X134689869Y-66280921D01*
X134741402Y-66513373D01*
X134808506Y-66596047D01*
X135123411Y-66916436D02*
X134524080Y-67293180D01*
X135226477Y-67381339D02*
X134524080Y-67293180D01*
X134271015Y-67251733D01*
X134214218Y-67215549D01*
X134147115Y-67132875D01*
X135241606Y-68109613D02*
X135226036Y-68259390D01*
X135189852Y-68316187D01*
X135107178Y-68383291D01*
X134967707Y-68414211D01*
X134864420Y-68388334D01*
X134807623Y-68352150D01*
X134740519Y-68269476D01*
X134658066Y-67897554D01*
X135634362Y-67681114D01*
X135706509Y-68006546D01*
X135680632Y-68109834D01*
X135644448Y-68166631D01*
X135561774Y-68233734D01*
X135468794Y-68254348D01*
X135365506Y-68228471D01*
X135308709Y-68192287D01*
X135241606Y-68109613D01*
X135169459Y-67784181D01*
%TO.C,J2*%
X131153018Y-51770211D02*
X131127141Y-51873499D01*
X131168367Y-52059460D01*
X131235471Y-52142134D01*
X131338758Y-52168011D01*
X131385249Y-52157704D01*
X131467922Y-52090600D01*
X131493799Y-51987313D01*
X131462879Y-51847842D01*
X131488756Y-51744555D01*
X131571430Y-51677452D01*
X131617921Y-51667145D01*
X131721208Y-51693022D01*
X131788311Y-51775696D01*
X131819231Y-51915167D01*
X131793354Y-52018454D01*
X131420991Y-52978959D02*
X131353887Y-52896285D01*
X131312660Y-52710324D01*
X131338537Y-52607037D01*
X131421211Y-52539933D01*
X131793134Y-52457480D01*
X131896421Y-52483357D01*
X131963524Y-52566031D01*
X132004751Y-52751992D01*
X131978874Y-52855279D01*
X131896200Y-52922383D01*
X131803220Y-52942996D01*
X131607173Y-52498706D01*
X132128431Y-53309875D02*
X131477567Y-53454168D01*
X132035450Y-53330489D02*
X132092247Y-53366672D01*
X132159351Y-53449346D01*
X132190271Y-53588817D01*
X132164394Y-53692104D01*
X132081720Y-53759208D01*
X131570327Y-53872581D01*
X131709577Y-54280687D02*
X131683700Y-54383974D01*
X131724926Y-54569935D01*
X131792030Y-54652609D01*
X131895317Y-54678486D01*
X131941808Y-54668180D01*
X132024481Y-54601076D01*
X132050358Y-54497789D01*
X132019438Y-54358318D01*
X132045315Y-54255031D01*
X132127989Y-54187927D01*
X132174480Y-54177620D01*
X132277767Y-54203497D01*
X132344870Y-54286171D01*
X132375790Y-54425642D01*
X132349913Y-54528929D01*
X131977550Y-55489434D02*
X131910446Y-55406760D01*
X131869219Y-55220799D01*
X131895096Y-55117512D01*
X131977770Y-55050408D01*
X132349693Y-54967955D01*
X132452980Y-54993832D01*
X132520084Y-55076506D01*
X132561310Y-55262467D01*
X132535433Y-55365755D01*
X132452759Y-55432858D01*
X132359779Y-55453471D01*
X132163732Y-55009182D01*
%TO.C,J1*%
X63364019Y-78753212D02*
X62713155Y-78608919D01*
X62899116Y-78650145D02*
X62816442Y-78583042D01*
X62780258Y-78526245D01*
X62754381Y-78422958D01*
X62774995Y-78329977D01*
X63533968Y-77766609D02*
X63559845Y-77869896D01*
X63518618Y-78055858D01*
X63451515Y-78138531D01*
X63348228Y-78164408D01*
X62976305Y-78081955D01*
X62893631Y-78014852D01*
X62867754Y-77911564D01*
X62908981Y-77725603D01*
X62976085Y-77642929D01*
X63079372Y-77617052D01*
X63172352Y-77637666D01*
X63162266Y-78123182D01*
X63714445Y-77172542D02*
X63647341Y-77255216D01*
X63544054Y-77281093D01*
X62707229Y-77095573D01*
X63889658Y-76382207D02*
X63378265Y-76268834D01*
X63274977Y-76294711D01*
X63207874Y-76377385D01*
X63166647Y-76563346D01*
X63192524Y-76666633D01*
X63843167Y-76371901D02*
X63869044Y-76475188D01*
X63817511Y-76707639D01*
X63750408Y-76790313D01*
X63647120Y-76816190D01*
X63554140Y-76795577D01*
X63471466Y-76728473D01*
X63445589Y-76625186D01*
X63497122Y-76392735D01*
X63471245Y-76289447D01*
X63321247Y-75865992D02*
X64023644Y-75777834D01*
X63424313Y-75401089D02*
X64023644Y-75777834D01*
X64235482Y-75922347D01*
X64271666Y-75979144D01*
X64297543Y-76082431D01*
X63868382Y-75158110D02*
X63971449Y-74693207D01*
X64126711Y-75312931D02*
X63222561Y-74771059D01*
X64271004Y-74662067D01*
%TO.C,D10*%
X112387214Y-120269380D02*
X112387214Y-119269380D01*
X112625309Y-119269380D01*
X112768166Y-119317000D01*
X112863404Y-119412238D01*
X112911023Y-119507476D01*
X112958642Y-119697952D01*
X112958642Y-119840809D01*
X112911023Y-120031285D01*
X112863404Y-120126523D01*
X112768166Y-120221761D01*
X112625309Y-120269380D01*
X112387214Y-120269380D01*
X113911023Y-120269380D02*
X113339595Y-120269380D01*
X113625309Y-120269380D02*
X113625309Y-119269380D01*
X113530071Y-119412238D01*
X113434833Y-119507476D01*
X113339595Y-119555095D01*
X114530071Y-119269380D02*
X114625309Y-119269380D01*
X114720547Y-119317000D01*
X114768166Y-119364619D01*
X114815785Y-119459857D01*
X114863404Y-119650333D01*
X114863404Y-119888428D01*
X114815785Y-120078904D01*
X114768166Y-120174142D01*
X114720547Y-120221761D01*
X114625309Y-120269380D01*
X114530071Y-120269380D01*
X114434833Y-120221761D01*
X114387214Y-120174142D01*
X114339595Y-120078904D01*
X114291976Y-119888428D01*
X114291976Y-119650333D01*
X114339595Y-119459857D01*
X114387214Y-119364619D01*
X114434833Y-119317000D01*
X114530071Y-119269380D01*
%TO.C,D9*%
X106259404Y-120340380D02*
X106259404Y-119340380D01*
X106497500Y-119340380D01*
X106640357Y-119388000D01*
X106735595Y-119483238D01*
X106783214Y-119578476D01*
X106830833Y-119768952D01*
X106830833Y-119911809D01*
X106783214Y-120102285D01*
X106735595Y-120197523D01*
X106640357Y-120292761D01*
X106497500Y-120340380D01*
X106259404Y-120340380D01*
X107307023Y-120340380D02*
X107497500Y-120340380D01*
X107592738Y-120292761D01*
X107640357Y-120245142D01*
X107735595Y-120102285D01*
X107783214Y-119911809D01*
X107783214Y-119530857D01*
X107735595Y-119435619D01*
X107687976Y-119388000D01*
X107592738Y-119340380D01*
X107402261Y-119340380D01*
X107307023Y-119388000D01*
X107259404Y-119435619D01*
X107211785Y-119530857D01*
X107211785Y-119768952D01*
X107259404Y-119864190D01*
X107307023Y-119911809D01*
X107402261Y-119959428D01*
X107592738Y-119959428D01*
X107687976Y-119911809D01*
X107735595Y-119864190D01*
X107783214Y-119768952D01*
%TO.C,D8*%
X92035404Y-120276880D02*
X92035404Y-119276880D01*
X92273500Y-119276880D01*
X92416357Y-119324500D01*
X92511595Y-119419738D01*
X92559214Y-119514976D01*
X92606833Y-119705452D01*
X92606833Y-119848309D01*
X92559214Y-120038785D01*
X92511595Y-120134023D01*
X92416357Y-120229261D01*
X92273500Y-120276880D01*
X92035404Y-120276880D01*
X93178261Y-119705452D02*
X93083023Y-119657833D01*
X93035404Y-119610214D01*
X92987785Y-119514976D01*
X92987785Y-119467357D01*
X93035404Y-119372119D01*
X93083023Y-119324500D01*
X93178261Y-119276880D01*
X93368738Y-119276880D01*
X93463976Y-119324500D01*
X93511595Y-119372119D01*
X93559214Y-119467357D01*
X93559214Y-119514976D01*
X93511595Y-119610214D01*
X93463976Y-119657833D01*
X93368738Y-119705452D01*
X93178261Y-119705452D01*
X93083023Y-119753071D01*
X93035404Y-119800690D01*
X92987785Y-119895928D01*
X92987785Y-120086404D01*
X93035404Y-120181642D01*
X93083023Y-120229261D01*
X93178261Y-120276880D01*
X93368738Y-120276880D01*
X93463976Y-120229261D01*
X93511595Y-120181642D01*
X93559214Y-120086404D01*
X93559214Y-119895928D01*
X93511595Y-119800690D01*
X93463976Y-119753071D01*
X93368738Y-119705452D01*
%TO.C,D7*%
X85748904Y-120269380D02*
X85748904Y-119269380D01*
X85987000Y-119269380D01*
X86129857Y-119317000D01*
X86225095Y-119412238D01*
X86272714Y-119507476D01*
X86320333Y-119697952D01*
X86320333Y-119840809D01*
X86272714Y-120031285D01*
X86225095Y-120126523D01*
X86129857Y-120221761D01*
X85987000Y-120269380D01*
X85748904Y-120269380D01*
X86653666Y-119269380D02*
X87320333Y-119269380D01*
X86891761Y-120269380D01*
%TO.C,D6*%
X99337904Y-96210380D02*
X99337904Y-95210380D01*
X99576000Y-95210380D01*
X99718857Y-95258000D01*
X99814095Y-95353238D01*
X99861714Y-95448476D01*
X99909333Y-95638952D01*
X99909333Y-95781809D01*
X99861714Y-95972285D01*
X99814095Y-96067523D01*
X99718857Y-96162761D01*
X99576000Y-96210380D01*
X99337904Y-96210380D01*
X100766476Y-95210380D02*
X100576000Y-95210380D01*
X100480761Y-95258000D01*
X100433142Y-95305619D01*
X100337904Y-95448476D01*
X100290285Y-95638952D01*
X100290285Y-96019904D01*
X100337904Y-96115142D01*
X100385523Y-96162761D01*
X100480761Y-96210380D01*
X100671238Y-96210380D01*
X100766476Y-96162761D01*
X100814095Y-96115142D01*
X100861714Y-96019904D01*
X100861714Y-95781809D01*
X100814095Y-95686571D01*
X100766476Y-95638952D01*
X100671238Y-95591333D01*
X100480761Y-95591333D01*
X100385523Y-95638952D01*
X100337904Y-95686571D01*
X100290285Y-95781809D01*
X94480095Y-94110380D02*
X94480095Y-93110380D01*
X95051523Y-94110380D02*
X94622952Y-93538952D01*
X95051523Y-93110380D02*
X94480095Y-93681809D01*
%TO.C,D5*%
X84796404Y-131643380D02*
X84796404Y-130643380D01*
X85034500Y-130643380D01*
X85177357Y-130691000D01*
X85272595Y-130786238D01*
X85320214Y-130881476D01*
X85367833Y-131071952D01*
X85367833Y-131214809D01*
X85320214Y-131405285D01*
X85272595Y-131500523D01*
X85177357Y-131595761D01*
X85034500Y-131643380D01*
X84796404Y-131643380D01*
X86272595Y-130643380D02*
X85796404Y-130643380D01*
X85748785Y-131119571D01*
X85796404Y-131071952D01*
X85891642Y-131024333D01*
X86129738Y-131024333D01*
X86224976Y-131071952D01*
X86272595Y-131119571D01*
X86320214Y-131214809D01*
X86320214Y-131452904D01*
X86272595Y-131548142D01*
X86224976Y-131595761D01*
X86129738Y-131643380D01*
X85891642Y-131643380D01*
X85796404Y-131595761D01*
X85748785Y-131548142D01*
%TO.C,D4*%
X81557904Y-58364380D02*
X81557904Y-57364380D01*
X81796000Y-57364380D01*
X81938857Y-57412000D01*
X82034095Y-57507238D01*
X82081714Y-57602476D01*
X82129333Y-57792952D01*
X82129333Y-57935809D01*
X82081714Y-58126285D01*
X82034095Y-58221523D01*
X81938857Y-58316761D01*
X81796000Y-58364380D01*
X81557904Y-58364380D01*
X82986476Y-57697714D02*
X82986476Y-58364380D01*
X82748380Y-57316761D02*
X82510285Y-58031047D01*
X83129333Y-58031047D01*
%TO.C,D3*%
X114831904Y-72190380D02*
X114831904Y-71190380D01*
X115070000Y-71190380D01*
X115212857Y-71238000D01*
X115308095Y-71333238D01*
X115355714Y-71428476D01*
X115403333Y-71618952D01*
X115403333Y-71761809D01*
X115355714Y-71952285D01*
X115308095Y-72047523D01*
X115212857Y-72142761D01*
X115070000Y-72190380D01*
X114831904Y-72190380D01*
X115736666Y-71190380D02*
X116355714Y-71190380D01*
X116022380Y-71571333D01*
X116165238Y-71571333D01*
X116260476Y-71618952D01*
X116308095Y-71666571D01*
X116355714Y-71761809D01*
X116355714Y-71999904D01*
X116308095Y-72095142D01*
X116260476Y-72142761D01*
X116165238Y-72190380D01*
X115879523Y-72190380D01*
X115784285Y-72142761D01*
X115736666Y-72095142D01*
%TO.C,D2*%
X81811904Y-96210380D02*
X81811904Y-95210380D01*
X82050000Y-95210380D01*
X82192857Y-95258000D01*
X82288095Y-95353238D01*
X82335714Y-95448476D01*
X82383333Y-95638952D01*
X82383333Y-95781809D01*
X82335714Y-95972285D01*
X82288095Y-96067523D01*
X82192857Y-96162761D01*
X82050000Y-96210380D01*
X81811904Y-96210380D01*
X82764285Y-95305619D02*
X82811904Y-95258000D01*
X82907142Y-95210380D01*
X83145238Y-95210380D01*
X83240476Y-95258000D01*
X83288095Y-95305619D01*
X83335714Y-95400857D01*
X83335714Y-95496095D01*
X83288095Y-95638952D01*
X82716666Y-96210380D01*
X83335714Y-96210380D01*
X76954095Y-94110380D02*
X76954095Y-93110380D01*
X77525523Y-94110380D02*
X77096952Y-93538952D01*
X77525523Y-93110380D02*
X76954095Y-93681809D01*
%TO.C,D1*%
X116863904Y-96210380D02*
X116863904Y-95210380D01*
X117102000Y-95210380D01*
X117244857Y-95258000D01*
X117340095Y-95353238D01*
X117387714Y-95448476D01*
X117435333Y-95638952D01*
X117435333Y-95781809D01*
X117387714Y-95972285D01*
X117340095Y-96067523D01*
X117244857Y-96162761D01*
X117102000Y-96210380D01*
X116863904Y-96210380D01*
X118387714Y-96210380D02*
X117816285Y-96210380D01*
X118102000Y-96210380D02*
X118102000Y-95210380D01*
X118006761Y-95353238D01*
X117911523Y-95448476D01*
X117816285Y-95496095D01*
X112006095Y-94110380D02*
X112006095Y-93110380D01*
X112577523Y-94110380D02*
X112148952Y-93538952D01*
X112577523Y-93110380D02*
X112006095Y-93681809D01*
%TD*%
M02*
